Literata-M7.ufo
<glyph name="exclam" format="2">
	<unicode hex="0021"/>
	<advance width="372"/>
	<outline>
		<contour>
			<point x="123" y="230" type="line"/>
			<point x="250" y="230" type="line"/>
			<point x="250" y="293" type="line" smooth="yes"/>
			<point x="250" y="435"/>
			<point x="312" y="534"/>
			<point x="312" y="621" type="curve" smooth="yes"/>
			<point x="312" y="688"/>
			<point x="262" y="714"/>
			<point x="189" y="714" type="curve" smooth="yes"/>
			<point x="129" y="714"/>
			<point x="65" y="692"/>
			<point x="65" y="618" type="curve" smooth="yes"/>
			<point x="65" y="534"/>
			<point x="123" y="451"/>
			<point x="123" y="294" type="curve" smooth="yes"/>
		</contour>
		<contour>
			<point x="186" y="-15" type="curve" smooth="yes"/>
			<point x="255" y="-15"/>
			<point x="298" y="23"/>
			<point x="298" y="80" type="curve" smooth="yes"/>
			<point x="298" y="138"/>
			<point x="260" y="174"/>
			<point x="186" y="174" type="curve" smooth="yes"/>
			<point x="114" y="174"/>
			<point x="74" y="137"/>
			<point x="74" y="81" type="curve" smooth="yes"/>
			<point x="74" y="22"/>
			<point x="115" y="-15"/>
		</contour>
	</outline>
</glyph>
<glyph name="quotedbl" format="2">
	<unicode hex="0022"/>
	<advance width="518"/>
	<outline>
		<contour>
			<point x="110" y="501" type="line"/>
			<point x="176" y="501" type="line"/>
			<point x="230" y="700" type="line" smooth="yes"/>
			<point x="235" y="718"/>
			<point x="236" y="729"/>
			<point x="236" y="739" type="curve" smooth="yes"/>
			<point x="236" y="783"/>
			<point x="195" y="805"/>
			<point x="148" y="805" type="curve" smooth="yes"/>
			<point x="92" y="805"/>
			<point x="62" y="781"/>
			<point x="62" y="741" type="curve" smooth="yes"/>
			<point x="62" y="718"/>
			<point x="66" y="690"/>
			<point x="71" y="668" type="curve" smooth="yes"/>
		</contour>
		<contour>
			<point x="330" y="501" type="line"/>
			<point x="396" y="501" type="line"/>
			<point x="450" y="700" type="line" smooth="yes"/>
			<point x="455" y="718"/>
			<point x="456" y="729"/>
			<point x="456" y="739" type="curve" smooth="yes"/>
			<point x="456" y="783"/>
			<point x="415" y="805"/>
			<point x="368" y="805" type="curve" smooth="yes"/>
			<point x="312" y="805"/>
			<point x="282" y="781"/>
			<point x="282" y="741" type="curve" smooth="yes"/>
			<point x="282" y="718"/>
			<point x="286" y="690"/>
			<point x="291" y="668" type="curve" smooth="yes"/>
		</contour>
	</outline>
</glyph>
<glyph name="numbersign" format="2">
	<unicode hex="0023"/>
	<advance width="780"/>
	<outline>
		<contour>
			<point x="139" y="-18" type="line"/>
			<point x="285" y="-18" type="line"/>
			<point x="307" y="112" type="line"/>
			<point x="408" y="112" type="line"/>
			<point x="386" y="-18" type="line"/>
			<point x="532" y="-18" type="line"/>
			<point x="554" y="112" type="line"/>
			<point x="706" y="112" type="line"/>
			<point x="728" y="235" type="line"/>
			<point x="573" y="235" type="line"/>
			<point x="587" y="324" type="line"/>
			<point x="738" y="324" type="line"/>
			<point x="758" y="447" type="line"/>
			<point x="610" y="447" type="line"/>
			<point x="633" y="568" type="line"/>
			<point x="489" y="568" type="line"/>
			<point x="467" y="447" type="line"/>
			<point x="363" y="447" type="line"/>
			<point x="385" y="568" type="line"/>
			<point x="240" y="568" type="line"/>
			<point x="220" y="447" type="line"/>
			<point x="81" y="447" type="line"/>
			<point x="59" y="325" type="line"/>
			<point x="200" y="325" type="line"/>
			<point x="184" y="235" type="line"/>
			<point x="45" y="235" type="line"/>
			<point x="22" y="112" type="line"/>
			<point x="163" y="112" type="line"/>
		</contour>
		<contour>
			<point x="326" y="235" type="line"/>
			<point x="341" y="325" type="line"/>
			<point x="446" y="325" type="line"/>
			<point x="430" y="235" type="line"/>
		</contour>
	</outline>
</glyph>
<glyph name="dollar" format="2">
	<unicode hex="0024"/>
	<advance width="687"/>
	<outline>
		<contour>
			<point x="296" y="-90" type="line"/>
			<point x="382" y="-90" type="line"/>
			<point x="382" y="-14" type="line"/>
			<point x="512" y="-9"/>
			<point x="652" y="63"/>
			<point x="652" y="220" type="curve" smooth="yes"/>
			<point x="652" y="380"/>
			<point x="532" y="422"/>
			<point x="407" y="451" type="curve" smooth="yes"/>
			<point x="395" y="454"/>
			<point x="389" y="455"/>
			<point x="382" y="457" type="curve"/>
			<point x="382" y="584" type="line"/>
			<point x="431" y="576"/>
			<point x="488" y="549"/>
			<point x="522" y="465" type="curve"/>
			<point x="626" y="486" type="line"/>
			<point x="603" y="714" type="line"/>
			<point x="520" y="714" type="line"/>
			<point x="505" y="667" type="line"/>
			<point x="468" y="691"/>
			<point x="432" y="706"/>
			<point x="382" y="711" type="curve"/>
			<point x="382" y="806" type="line"/>
			<point x="296" y="806" type="line"/>
			<point x="296" y="713" type="line"/>
			<point x="97" y="696"/>
			<point x="50" y="544"/>
			<point x="50" y="479" type="curve" smooth="yes"/>
			<point x="50" y="318"/>
			<point x="169" y="275"/>
			<point x="275" y="249" type="curve" smooth="yes"/>
			<point x="282" y="247"/>
			<point x="289" y="245"/>
			<point x="296" y="244" type="curve"/>
			<point x="296" y="115" type="line"/>
			<point x="224" y="127"/>
			<point x="167" y="175"/>
			<point x="142" y="234" type="curve"/>
			<point x="40" y="216" type="line"/>
			<point x="55" y="-6" type="line"/>
			<point x="151" y="-6" type="line"/>
			<point x="164" y="43" type="line"/>
			<point x="196" y="20"/>
			<point x="242" y="1"/>
			<point x="296" y="-8" type="curve"/>
		</contour>
		<contour>
			<point x="382" y="118" type="curve"/>
			<point x="382" y="216" type="line"/>
			<point x="413" y="202"/>
			<point x="428" y="186"/>
			<point x="428" y="161" type="curve" smooth="yes"/>
			<point x="428" y="142"/>
			<point x="414" y="126"/>
		</contour>
		<contour>
			<point x="296" y="484" type="line"/>
			<point x="271" y="497"/>
			<point x="256" y="513"/>
			<point x="256" y="536" type="curve" smooth="yes"/>
			<point x="256" y="558"/>
			<point x="272" y="573"/>
			<point x="296" y="580" type="curve"/>
		</contour>
	</outline>
	<anchor name="bottom" x="358" y="-30"/>
	<anchor name="top" x="349" y="730"/>
</glyph>
<glyph name="ampersand" format="2">
	<unicode hex="0026"/>
	<advance width="948"/>
	<outline>
		<contour>
			<point x="300" y="-14" type="curve" smooth="yes"/>
			<point x="411" y="-14"/>
			<point x="479" y="17"/>
			<point x="534" y="59" type="curve"/>
			<point x="595" y="13"/>
			<point x="647" y="-9"/>
			<point x="727" y="-9" type="curve" smooth="yes"/>
			<point x="802" y="-9"/>
			<point x="866" y="35"/>
			<point x="915" y="83" type="curve"/>
			<point x="883" y="161" type="line"/>
			<point x="859" y="147"/>
			<point x="824" y="132"/>
			<point x="792" y="132" type="curve" smooth="yes"/>
			<point x="740" y="132"/>
			<point x="706" y="156"/>
			<point x="630" y="229" type="curve"/>
			<point x="652" y="305"/>
			<point x="690" y="360"/>
			<point x="738" y="397" type="curve"/>
			<point x="760" y="344"/>
			<point x="777" y="299"/>
			<point x="830" y="299" type="curve" smooth="yes"/>
			<point x="885" y="299"/>
			<point x="912" y="351"/>
			<point x="912" y="402" type="curve" smooth="yes"/>
			<point x="912" y="460"/>
			<point x="861" y="508"/>
			<point x="783" y="508" type="curve" smooth="yes"/>
			<point x="696" y="508"/>
			<point x="606" y="427"/>
			<point x="554" y="300" type="curve"/>
			<point x="445" y="400" type="line"/>
			<point x="524" y="427"/>
			<point x="589" y="488"/>
			<point x="589" y="560" type="curve" smooth="yes"/>
			<point x="589" y="654"/>
			<point x="508" y="717"/>
			<point x="368" y="717" type="curve" smooth="yes"/>
			<point x="247" y="717"/>
			<point x="116" y="663"/>
			<point x="116" y="537" type="curve" smooth="yes"/>
			<point x="116" y="475"/>
			<point x="149" y="425"/>
			<point x="209" y="364" type="curve"/>
			<point x="94" y="322"/>
			<point x="38" y="257"/>
			<point x="38" y="181" type="curve" smooth="yes"/>
			<point x="38" y="43"/>
			<point x="159" y="-14"/>
		</contour>
		<contour>
			<point x="358" y="107" type="curve" smooth="yes"/>
			<point x="298" y="107"/>
			<point x="232" y="145"/>
			<point x="232" y="219" type="curve" smooth="yes"/>
			<point x="232" y="248"/>
			<point x="247" y="272"/>
			<point x="273" y="296" type="curve"/>
			<point x="455" y="128" type="line"/>
			<point x="433" y="115"/>
			<point x="404" y="107"/>
		</contour>
		<contour>
			<point x="383" y="458" type="curve"/>
			<point x="337" y="498"/>
			<point x="303" y="532"/>
			<point x="303" y="580" type="curve" smooth="yes"/>
			<point x="303" y="607"/>
			<point x="325" y="636"/>
			<point x="375" y="636" type="curve" smooth="yes"/>
			<point x="418" y="636"/>
			<point x="450" y="612"/>
			<point x="450" y="578" type="curve" smooth="yes"/>
			<point x="450" y="544"/>
			<point x="431" y="500"/>
		</contour>
	</outline>
</glyph>
<glyph name="quotesingle" format="2">
	<unicode hex="0027"/>
	<advance width="298"/>
	<outline>
		<contour>
			<point x="110" y="501" type="line"/>
			<point x="176" y="501" type="line"/>
			<point x="230" y="700" type="line" smooth="yes"/>
			<point x="235" y="718"/>
			<point x="236" y="729"/>
			<point x="236" y="739" type="curve" smooth="yes"/>
			<point x="236" y="783"/>
			<point x="195" y="805"/>
			<point x="148" y="805" type="curve" smooth="yes"/>
			<point x="92" y="805"/>
			<point x="62" y="781"/>
			<point x="62" y="741" type="curve" smooth="yes"/>
			<point x="62" y="718"/>
			<point x="66" y="690"/>
			<point x="71" y="668" type="curve" smooth="yes"/>
		</contour>
	</outline>
</glyph>
<glyph name="parenleft" format="2">
	<unicode hex="0028"/>
	<advance width="412"/>
	<outline>
		<contour>
			<point x="286" y="-225" type="curve"/>
			<point x="372" y="-175" type="line"/>
			<point x="308" y="-30"/>
			<point x="256" y="151"/>
			<point x="256" y="325" type="curve" smooth="yes"/>
			<point x="256" y="480"/>
			<point x="301" y="665"/>
			<point x="372" y="787" type="curve"/>
			<point x="288" y="839" type="line"/>
			<point x="148" y="701"/>
			<point x="24" y="547"/>
			<point x="24" y="340" type="curve" smooth="yes"/>
			<point x="24" y="120"/>
			<point x="127" y="-53"/>
		</contour>
	</outline>
</glyph>
<glyph name="parenright" format="2">
	<unicode hex="0029"/>
	<advance width="412"/>
	<outline>
		<contour>
			<point x="108" y="-225" type="line"/>
			<point x="248" y="-87"/>
			<point x="372" y="67"/>
			<point x="372" y="274" type="curve" smooth="yes"/>
			<point x="372" y="494"/>
			<point x="269" y="667"/>
			<point x="110" y="839" type="curve"/>
			<point x="24" y="789" type="line"/>
			<point x="88" y="644"/>
			<point x="140" y="463"/>
			<point x="140" y="289" type="curve" smooth="yes"/>
			<point x="140" y="134"/>
			<point x="95" y="-51"/>
			<point x="24" y="-173" type="curve"/>
		</contour>
	</outline>
</glyph>
<glyph name="plus" format="2">
	<unicode hex="002B"/>
	<advance width="620"/>
	<outline>
		<contour>
			<point x="227" y="85" type="line"/>
			<point x="386" y="85" type="line"/>
			<point x="386" y="230" type="line"/>
			<point x="530" y="230" type="line"/>
			<point x="530" y="385" type="line"/>
			<point x="386" y="385" type="line"/>
			<point x="386" y="517" type="line"/>
			<point x="227" y="517" type="line"/>
			<point x="227" y="385" type="line"/>
			<point x="90" y="385" type="line"/>
			<point x="90" y="230" type="line"/>
			<point x="227" y="230" type="line"/>
		</contour>
	</outline>
</glyph>
<glyph name="comma" format="2">
	<unicode hex="002C"/>
	<advance width="355"/>
	<outline>
		<contour>
			<point x="119" y="-180" type="line"/>
			<point x="235" y="-118"/>
			<point x="300" y="-22"/>
			<point x="300" y="71" type="curve" smooth="yes"/>
			<point x="300" y="153"/>
			<point x="255" y="194"/>
			<point x="180" y="194" type="curve" smooth="yes"/>
			<point x="93" y="194"/>
			<point x="55" y="147"/>
			<point x="55" y="86" type="curve" smooth="yes"/>
			<point x="55" y="12"/>
			<point x="115" y="-7"/>
			<point x="152" y="-7" type="curve" smooth="yes"/>
			<point x="167" y="-7" type="line"/>
			<point x="161" y="-46"/>
			<point x="117" y="-81"/>
			<point x="69" y="-113" type="curve"/>
		</contour>
	</outline>
</glyph>
<glyph name="period" format="2">
	<unicode hex="002E"/>
	<advance width="357"/>
	<outline>
		<contour>
			<point x="179" y="-15" type="curve" smooth="yes"/>
			<point x="255" y="-15"/>
			<point x="302" y="26"/>
			<point x="302" y="89" type="curve" smooth="yes"/>
			<point x="302" y="153"/>
			<point x="260" y="193"/>
			<point x="179" y="193" type="curve" smooth="yes"/>
			<point x="99" y="193"/>
			<point x="55" y="152"/>
			<point x="55" y="90" type="curve" smooth="yes"/>
			<point x="55" y="25"/>
			<point x="100" y="-15"/>
		</contour>
	</outline>
</glyph>
<glyph name="zero" format="2">
	<unicode hex="0030"/>
	<advance width="718"/>
	<outline>
		<contour>
			<point x="361" y="-14" type="curve" smooth="yes"/>
			<point x="562" y="-14"/>
			<point x="676" y="117"/>
			<point x="676" y="366" type="curve" smooth="yes"/>
			<point x="676" y="605"/>
			<point x="554" y="714"/>
			<point x="364" y="714" type="curve" smooth="yes"/>
			<point x="202" y="714"/>
			<point x="42" y="622"/>
			<point x="42" y="344" type="curve" smooth="yes"/>
			<point x="42" y="139"/>
			<point x="132" y="-14"/>
		</contour>
		<contour>
			<point x="367" y="102" type="curve" smooth="yes"/>
			<point x="304" y="102"/>
			<point x="277" y="171"/>
			<point x="277" y="363" type="curve" smooth="yes"/>
			<point x="277" y="564"/>
			<point x="303" y="598"/>
			<point x="358" y="598" type="curve" smooth="yes"/>
			<point x="419" y="598"/>
			<point x="443" y="555"/>
			<point x="443" y="355" type="curve" smooth="yes"/>
			<point x="443" y="156"/>
			<point x="422" y="102"/>
		</contour>
	</outline>
</glyph>
<glyph name="three" format="2">
	<unicode hex="0033"/>
	<advance width="631"/>
	<outline>
		<contour>
			<point x="295" y="-14" type="curve" smooth="yes"/>
			<point x="469" y="-14"/>
			<point x="598" y="59"/>
			<point x="598" y="199" type="curve" smooth="yes"/>
			<point x="598" y="313"/>
			<point x="524" y="361"/>
			<point x="403" y="375" type="curve"/>
			<point x="403" y="381" type="line"/>
			<point x="523" y="406"/>
			<point x="578" y="462"/>
			<point x="578" y="549" type="curve" smooth="yes"/>
			<point x="578" y="661"/>
			<point x="477" y="714"/>
			<point x="319" y="714" type="curve" smooth="yes"/>
			<point x="136" y="714"/>
			<point x="39" y="637"/>
			<point x="39" y="555" type="curve" smooth="yes"/>
			<point x="39" y="504"/>
			<point x="67" y="464"/>
			<point x="132" y="464" type="curve" smooth="yes"/>
			<point x="207" y="464"/>
			<point x="233" y="504"/>
			<point x="233" y="531" type="curve" smooth="yes"/>
			<point x="233" y="554"/>
			<point x="226" y="570"/>
			<point x="205" y="602" type="curve"/>
			<point x="228" y="611"/>
			<point x="257" y="614"/>
			<point x="278" y="614" type="curve" smooth="yes"/>
			<point x="327" y="614"/>
			<point x="363" y="589"/>
			<point x="363" y="525" type="curve" smooth="yes"/>
			<point x="363" y="445"/>
			<point x="315" y="411"/>
			<point x="182" y="400" type="curve"/>
			<point x="171" y="285" type="line"/>
			<point x="307" y="293"/>
			<point x="366" y="276"/>
			<point x="366" y="215" type="curve" smooth="yes"/>
			<point x="366" y="165"/>
			<point x="336" y="139"/>
			<point x="263" y="139" type="curve" smooth="yes"/>
			<point x="201" y="139"/>
			<point x="147" y="158"/>
			<point x="92" y="193" type="curve"/>
			<point x="19" y="74" type="line"/>
			<point x="61" y="39"/>
			<point x="155" y="-14"/>
		</contour>
	</outline>
</glyph>
<glyph name="four" format="2">
	<unicode hex="0034"/>
	<advance width="700"/>
	<outline>
		<contour>
			<point x="245" y="0" type="line"/>
			<point x="660" y="0" type="line"/>
			<point x="660" y="93" type="line"/>
			<point x="619" y="98" type="line" smooth="yes"/>
			<point x="592" y="101"/>
			<point x="578" y="109"/>
			<point x="578" y="131" type="curve" smooth="yes"/>
			<point x="578" y="158" type="line"/>
			<point x="675" y="158" type="line"/>
			<point x="675" y="281" type="line"/>
			<point x="578" y="281" type="line"/>
			<point x="578" y="691" type="line"/>
			<point x="548" y="711" type="line"/>
			<point x="343" y="690" type="line"/>
			<point x="15" y="254" type="line"/>
			<point x="30" y="158" type="line"/>
			<point x="344" y="158" type="line"/>
			<point x="344" y="141" type="line" smooth="yes"/>
			<point x="344" y="116"/>
			<point x="338" y="102"/>
			<point x="305" y="99" type="curve" smooth="yes"/>
			<point x="245" y="93" type="line"/>
		</contour>
		<contour>
			<point x="160" y="281" type="line"/>
			<point x="340" y="515" type="line"/>
			<point x="344" y="515" type="line"/>
			<point x="344" y="281" type="line"/>
		</contour>
	</outline>
</glyph>
<glyph name="semicolon" format="2">
	<unicode hex="003B"/>
	<advance width="357"/>
	<outline>
		<contour>
			<point x="119" y="-180" type="line"/>
			<point x="235" y="-118"/>
			<point x="300" y="-22"/>
			<point x="300" y="71" type="curve" smooth="yes"/>
			<point x="300" y="153"/>
			<point x="255" y="194"/>
			<point x="180" y="194" type="curve" smooth="yes"/>
			<point x="93" y="194"/>
			<point x="55" y="147"/>
			<point x="55" y="86" type="curve" smooth="yes"/>
			<point x="55" y="12"/>
			<point x="115" y="-7"/>
			<point x="152" y="-7" type="curve" smooth="yes"/>
			<point x="167" y="-7" type="line"/>
			<point x="161" y="-46"/>
			<point x="117" y="-81"/>
			<point x="69" y="-113" type="curve"/>
		</contour>
		<contour>
			<point x="179" y="335" type="curve" smooth="yes"/>
			<point x="255" y="335"/>
			<point x="302" y="376"/>
			<point x="302" y="439" type="curve" smooth="yes"/>
			<point x="302" y="503"/>
			<point x="260" y="543"/>
			<point x="179" y="543" type="curve" smooth="yes"/>
			<point x="99" y="543"/>
			<point x="55" y="502"/>
			<point x="55" y="440" type="curve" smooth="yes"/>
			<point x="55" y="375"/>
			<point x="100" y="335"/>
		</contour>
	</outline>
</glyph>
<glyph name="question" format="2">
	<unicode hex="003F"/>
	<advance width="629"/>
	<outline>
		<contour>
			<point x="205" y="230" type="line"/>
			<point x="355" y="230" type="line"/>
			<point x="355" y="267" type="line" smooth="yes"/>
			<point x="355" y="298"/>
			<point x="366" y="317"/>
			<point x="424" y="357" type="curve" smooth="yes"/>
			<point x="560" y="451"/>
			<point x="589" y="482"/>
			<point x="589" y="551" type="curve" smooth="yes"/>
			<point x="589" y="651"/>
			<point x="474" y="714"/>
			<point x="323" y="714" type="curve" smooth="yes"/>
			<point x="139" y="714"/>
			<point x="35" y="637"/>
			<point x="35" y="551" type="curve" smooth="yes"/>
			<point x="35" y="497"/>
			<point x="72" y="466"/>
			<point x="128" y="466" type="curve" smooth="yes"/>
			<point x="185" y="466"/>
			<point x="208" y="493"/>
			<point x="208" y="525" type="curve" smooth="yes"/>
			<point x="208" y="549"/>
			<point x="199" y="565"/>
			<point x="181" y="595" type="curve"/>
			<point x="201" y="605"/>
			<point x="229" y="615"/>
			<point x="277" y="615" type="curve" smooth="yes"/>
			<point x="331" y="615"/>
			<point x="366" y="595"/>
			<point x="366" y="560" type="curve" smooth="yes"/>
			<point x="366" y="531"/>
			<point x="338" y="511"/>
			<point x="275" y="473" type="curve" smooth="yes"/>
			<point x="206" y="431"/>
			<point x="205" y="403"/>
			<point x="205" y="336" type="curve" smooth="yes"/>
		</contour>
		<contour>
			<point x="279" y="-15" type="curve" smooth="yes"/>
			<point x="348" y="-15"/>
			<point x="391" y="23"/>
			<point x="391" y="80" type="curve" smooth="yes"/>
			<point x="391" y="138"/>
			<point x="353" y="174"/>
			<point x="279" y="174" type="curve" smooth="yes"/>
			<point x="207" y="174"/>
			<point x="167" y="137"/>
			<point x="167" y="81" type="curve" smooth="yes"/>
			<point x="167" y="22"/>
			<point x="208" y="-15"/>
		</contour>
	</outline>
</glyph>
<glyph name="F" format="2">
	<unicode hex="0046"/>
	<advance width="726"/>
	<outline>
		<contour>
			<point x="48" y="0" type="line"/>
			<point x="475" y="0" type="line"/>
			<point x="475" y="101" type="line"/>
			<point x="399" y="105" type="line" smooth="yes"/>
			<point x="356" y="107"/>
			<point x="353" y="118"/>
			<point x="353" y="158" type="curve" smooth="yes"/>
			<point x="353" y="276" type="line"/>
			<point x="390" y="276" type="line" smooth="yes"/>
			<point x="431" y="276"/>
			<point x="446" y="261"/>
			<point x="453" y="203" type="curve"/>
			<point x="548" y="217" type="line"/>
			<point x="548" y="459" type="line"/>
			<point x="454" y="453" type="line"/>
			<point x="443" y="394"/>
			<point x="431" y="387"/>
			<point x="393" y="387" type="curve" smooth="yes"/>
			<point x="353" y="387" type="line"/>
			<point x="353" y="586" type="line"/>
			<point x="449" y="586" type="line" smooth="yes"/>
			<point x="528" y="586"/>
			<point x="553" y="572"/>
			<point x="577" y="467" type="curve"/>
			<point x="700" y="481" type="line"/>
			<point x="668" y="700" type="line"/>
			<point x="48" y="700" type="line"/>
			<point x="48" y="601" type="line"/>
			<point x="82" y="600" type="line" smooth="yes"/>
			<point x="113" y="599"/>
			<point x="118" y="584"/>
			<point x="118" y="552" type="curve" smooth="yes"/>
			<point x="118" y="154" type="line" smooth="yes"/>
			<point x="118" y="110"/>
			<point x="108" y="104"/>
			<point x="84" y="102" type="curve" smooth="yes"/>
			<point x="48" y="99" type="line"/>
		</contour>
	</outline>
</glyph>
<glyph name="G" format="2">
	<unicode hex="0047"/>
	<advance width="868"/>
	<outline>
		<contour>
			<point x="395" y="-14" type="curve" smooth="yes"/>
			<point x="525" y="-14"/>
			<point x="599" y="54"/>
			<point x="620" y="71" type="curve"/>
			<point x="640" y="0" type="line"/>
			<point x="773" y="0" type="line"/>
			<point x="773" y="214" type="line" smooth="yes"/>
			<point x="773" y="249"/>
			<point x="779" y="262"/>
			<point x="806" y="265" type="curve" smooth="yes"/>
			<point x="838" y="268" type="line"/>
			<point x="838" y="367" type="line"/>
			<point x="482" y="367" type="line"/>
			<point x="482" y="268" type="line"/>
			<point x="525" y="267" type="line" smooth="yes"/>
			<point x="556" y="266"/>
			<point x="561" y="251"/>
			<point x="561" y="217" type="curve" smooth="yes"/>
			<point x="561" y="161" type="line"/>
			<point x="536" y="151"/>
			<point x="507" y="147"/>
			<point x="463" y="147" type="curve" smooth="yes"/>
			<point x="368" y="147"/>
			<point x="290" y="203"/>
			<point x="290" y="379" type="curve" smooth="yes"/>
			<point x="290" y="503"/>
			<point x="351" y="581"/>
			<point x="462" y="581" type="curve" smooth="yes"/>
			<point x="555" y="581"/>
			<point x="607" y="546"/>
			<point x="649" y="437" type="curve"/>
			<point x="762" y="458" type="line"/>
			<point x="720" y="714" type="line"/>
			<point x="635" y="714" type="line"/>
			<point x="621" y="667" type="line"/>
			<point x="574" y="696"/>
			<point x="524" y="714"/>
			<point x="441" y="714" type="curve" smooth="yes"/>
			<point x="205" y="714"/>
			<point x="48" y="569"/>
			<point x="48" y="345" type="curve" smooth="yes"/>
			<point x="48" y="141"/>
			<point x="164" y="-14"/>
		</contour>
	</outline>
	<anchor name="bottom" x="444" y="-30"/>
	<anchor name="top" x="441" y="730"/>
</glyph>
<glyph name="H" format="2">
	<unicode hex="0048"/>
	<advance width="932"/>
	<outline>
		<contour>
			<point x="48" y="0" type="line"/>
			<point x="422" y="0" type="line"/>
			<point x="422" y="99" type="line"/>
			<point x="388" y="101" type="line" smooth="yes"/>
			<point x="360" y="103"/>
			<point x="353" y="112"/>
			<point x="353" y="148" type="curve" smooth="yes"/>
			<point x="353" y="288" type="line"/>
			<point x="580" y="288" type="line"/>
			<point x="580" y="152" type="line" smooth="yes"/>
			<point x="580" y="108"/>
			<point x="569" y="104"/>
			<point x="546" y="102" type="curve" smooth="yes"/>
			<point x="511" y="99" type="line"/>
			<point x="511" y="0" type="line"/>
			<point x="884" y="0" type="line"/>
			<point x="884" y="99" type="line"/>
			<point x="851" y="101" type="line" smooth="yes"/>
			<point x="822" y="103"/>
			<point x="815" y="111"/>
			<point x="815" y="148" type="curve" smooth="yes"/>
			<point x="815" y="549" type="line" smooth="yes"/>
			<point x="815" y="586"/>
			<point x="823" y="599"/>
			<point x="849" y="600" type="curve" smooth="yes"/>
			<point x="884" y="601" type="line"/>
			<point x="884" y="700" type="line"/>
			<point x="511" y="700" type="line"/>
			<point x="511" y="601" type="line"/>
			<point x="544" y="598" type="line" smooth="yes"/>
			<point x="579" y="595"/>
			<point x="580" y="578"/>
			<point x="580" y="551" type="curve" smooth="yes"/>
			<point x="580" y="421" type="line"/>
			<point x="353" y="421" type="line"/>
			<point x="353" y="547" type="line" smooth="yes"/>
			<point x="353" y="582"/>
			<point x="359" y="596"/>
			<point x="386" y="598" type="curve" smooth="yes"/>
			<point x="422" y="601" type="line"/>
			<point x="422" y="700" type="line"/>
			<point x="48" y="700" type="line"/>
			<point x="48" y="601" type="line"/>
			<point x="82" y="600" type="line" smooth="yes"/>
			<point x="113" y="599"/>
			<point x="118" y="584"/>
			<point x="118" y="550" type="curve" smooth="yes"/>
			<point x="118" y="152" type="line" smooth="yes"/>
			<point x="118" y="108"/>
			<point x="107" y="104"/>
			<point x="84" y="102" type="curve" smooth="yes"/>
			<point x="48" y="99" type="line"/>
		</contour>
	</outline>
	<anchor name="bottom" x="466" y="-30"/>
	<anchor name="top" x="468" y="730"/>
</glyph>
<glyph name="I" format="2">
	<unicode hex="0049"/>
	<advance width="471"/>
	<outline>
		<contour>
			<point x="48" y="0" type="line"/>
			<point x="423" y="0" type="line"/>
			<point x="423" y="99" type="line"/>
			<point x="388" y="102" type="line" smooth="yes"/>
			<point x="359" y="104"/>
			<point x="353" y="111"/>
			<point x="353" y="149" type="curve" smooth="yes"/>
			<point x="353" y="548" type="line" smooth="yes"/>
			<point x="353" y="588"/>
			<point x="361" y="596"/>
			<point x="386" y="598" type="curve" smooth="yes"/>
			<point x="423" y="601" type="line"/>
			<point x="423" y="700" type="line"/>
			<point x="48" y="700" type="line"/>
			<point x="48" y="601" type="line"/>
			<point x="81" y="600" type="line" smooth="yes"/>
			<point x="111" y="599"/>
			<point x="118" y="588"/>
			<point x="118" y="551" type="curve" smooth="yes"/>
			<point x="118" y="152" type="line" smooth="yes"/>
			<point x="118" y="120"/>
			<point x="114" y="104"/>
			<point x="85" y="102" type="curve" smooth="yes"/>
			<point x="48" y="99" type="line"/>
		</contour>
	</outline>
	<anchor name="bottom" x="229" y="-30"/>
	<anchor name="top" x="237" y="730"/>
</glyph>
<glyph name="K" format="2">
	<unicode hex="004B"/>
	<advance width="879"/>
	<outline>
		<contour>
			<point x="714" y="-16" type="curve" smooth="yes"/>
			<point x="791" y="-16"/>
			<point x="850" y="8"/>
			<point x="882" y="31" type="curve"/>
			<point x="864" y="117" type="line"/>
			<point x="849" y="115"/>
			<point x="834" y="113"/>
			<point x="817" y="113" type="curve" smooth="yes"/>
			<point x="775" y="113"/>
			<point x="756" y="140"/>
			<point x="718" y="196" type="curve" smooth="yes"/>
			<point x="565" y="421" type="line"/>
			<point x="705" y="548" type="line" smooth="yes"/>
			<point x="736" y="576"/>
			<point x="745" y="591"/>
			<point x="776" y="594" type="curve" smooth="yes"/>
			<point x="819" y="598" type="line"/>
			<point x="819" y="700" type="line"/>
			<point x="523" y="700" type="line"/>
			<point x="511" y="602" type="line"/>
			<point x="556" y="600" type="line" smooth="yes"/>
			<point x="581" y="599"/>
			<point x="583" y="578"/>
			<point x="562" y="559" type="curve" smooth="yes"/>
			<point x="352" y="375" type="line"/>
			<point x="352" y="547" type="line" smooth="yes"/>
			<point x="352" y="582"/>
			<point x="358" y="596"/>
			<point x="385" y="598" type="curve" smooth="yes"/>
			<point x="421" y="601" type="line"/>
			<point x="421" y="700" type="line"/>
			<point x="48" y="700" type="line"/>
			<point x="48" y="601" type="line"/>
			<point x="82" y="600" type="line" smooth="yes"/>
			<point x="113" y="599"/>
			<point x="118" y="584"/>
			<point x="118" y="550" type="curve" smooth="yes"/>
			<point x="118" y="152" type="line" smooth="yes"/>
			<point x="118" y="108"/>
			<point x="107" y="104"/>
			<point x="84" y="102" type="curve" smooth="yes"/>
			<point x="48" y="99" type="line"/>
			<point x="48" y="0" type="line"/>
			<point x="421" y="0" type="line"/>
			<point x="421" y="99" type="line"/>
			<point x="387" y="101" type="line" smooth="yes"/>
			<point x="359" y="103"/>
			<point x="352" y="112"/>
			<point x="352" y="148" type="curve" smooth="yes"/>
			<point x="352" y="207" type="line"/>
			<point x="405" y="256" type="line"/>
			<point x="512" y="92" type="line" smooth="yes"/>
			<point x="558" y="22"/>
			<point x="610" y="-16"/>
		</contour>
	</outline>
	<anchor name="bottom" x="446" y="-30"/>
	<anchor name="top" x="448" y="730"/>
</glyph>
<glyph name="L" format="2">
	<unicode hex="004C"/>
	<advance width="718"/>
	<outline>
		<contour>
			<point x="48" y="0" type="line"/>
			<point x="662" y="0" type="line"/>
			<point x="690" y="270" type="line"/>
			<point x="560" y="270" type="line"/>
			<point x="523" y="146"/>
			<point x="502" y="122"/>
			<point x="428" y="122" type="curve" smooth="yes"/>
			<point x="353" y="122" type="line"/>
			<point x="353" y="552" type="line" smooth="yes"/>
			<point x="353" y="587"/>
			<point x="360" y="597"/>
			<point x="390" y="599" type="curve" smooth="yes"/>
			<point x="442" y="602" type="line"/>
			<point x="442" y="700" type="line"/>
			<point x="48" y="700" type="line"/>
			<point x="48" y="601" type="line"/>
			<point x="83" y="600" type="line" smooth="yes"/>
			<point x="113" y="599"/>
			<point x="118" y="583"/>
			<point x="118" y="552" type="curve" smooth="yes"/>
			<point x="118" y="153" type="line" smooth="yes"/>
			<point x="118" y="113"/>
			<point x="111" y="104"/>
			<point x="85" y="102" type="curve" smooth="yes"/>
			<point x="48" y="99" type="line"/>
		</contour>
	</outline>
	<anchor name="bottom" x="359" y="-30"/>
	<anchor name="top" x="242" y="730"/>
</glyph>
<glyph name="M" format="2">
	<unicode hex="004D"/>
	<advance width="1064"/>
	<outline>
		<contour>
			<point x="28" y="0" type="line"/>
			<point x="316" y="0" type="line"/>
			<point x="316" y="98" type="line"/>
			<point x="268" y="101" type="line" smooth="yes"/>
			<point x="234" y="103"/>
			<point x="236" y="121"/>
			<point x="238" y="148" type="curve" smooth="yes"/>
			<point x="257" y="423" type="line"/>
			<point x="261" y="423" type="line"/>
			<point x="431" y="113" type="line"/>
			<point x="544" y="113" type="line"/>
			<point x="710" y="423" type="line"/>
			<point x="714" y="423" type="line"/>
			<point x="742" y="133" type="line" smooth="yes"/>
			<point x="745" y="106"/>
			<point x="736" y="101"/>
			<point x="718" y="100" type="curve" smooth="yes"/>
			<point x="663" y="98" type="line"/>
			<point x="663" y="0" type="line"/>
			<point x="1036" y="0" type="line"/>
			<point x="1036" y="98" type="line"/>
			<point x="1003" y="100" type="line" smooth="yes"/>
			<point x="969" y="102"/>
			<point x="969" y="119"/>
			<point x="967" y="146" type="curve" smooth="yes"/>
			<point x="932" y="563" type="line" smooth="yes"/>
			<point x="929" y="597"/>
			<point x="942" y="599"/>
			<point x="961" y="600" type="curve" smooth="yes"/>
			<point x="1000" y="602" type="line"/>
			<point x="1000" y="700" type="line"/>
			<point x="707" y="700" type="line"/>
			<point x="537" y="398" type="line"/>
			<point x="533" y="398" type="line"/>
			<point x="379" y="700" type="line"/>
			<point x="55" y="700" type="line"/>
			<point x="55" y="602" type="line"/>
			<point x="91" y="600" type="line" smooth="yes"/>
			<point x="127" y="598"/>
			<point x="128" y="586"/>
			<point x="126" y="562" type="curve" smooth="yes"/>
			<point x="97" y="136" type="line" smooth="yes"/>
			<point x="95" y="107"/>
			<point x="85" y="100"/>
			<point x="61" y="99" type="curve" smooth="yes"/>
			<point x="28" y="97" type="line"/>
		</contour>
	</outline>
	<anchor name="bottom" x="494" y="-30"/>
</glyph>
<glyph name="Q" format="2">
	<unicode hex="0051"/>
	<advance width="894"/>
	<outline>
		<contour>
			<point x="801" y="-192" type="curve" smooth="yes"/>
			<point x="886" y="-192"/>
			<point x="959" y="-151"/>
			<point x="1017" y="-90" type="curve"/>
			<point x="970" y="-24" type="line"/>
			<point x="926" y="-45"/>
			<point x="895" y="-53"/>
			<point x="852" y="-53" type="curve" smooth="yes"/>
			<point x="802" y="-53"/>
			<point x="761" y="-40"/>
			<point x="691" y="56" type="curve"/>
			<point x="795" y="126"/>
			<point x="846" y="240"/>
			<point x="846" y="366" type="curve" smooth="yes"/>
			<point x="846" y="597"/>
			<point x="689" y="714"/>
			<point x="465" y="714" type="curve" smooth="yes"/>
			<point x="221" y="714"/>
			<point x="48" y="586"/>
			<point x="48" y="340" type="curve" smooth="yes"/>
			<point x="48" y="139"/>
			<point x="173" y="-14"/>
			<point x="440" y="-14" type="curve" smooth="yes"/>
			<point x="474" y="-14"/>
			<point x="508" y="-11"/>
			<point x="537" y="-6" type="curve"/>
			<point x="618" y="-147"/>
			<point x="697" y="-192"/>
		</contour>
		<contour>
			<point x="449" y="111" type="curve" smooth="yes"/>
			<point x="385" y="111"/>
			<point x="337" y="147"/>
			<point x="315" y="203" type="curve"/>
			<point x="330" y="208"/>
			<point x="347" y="212"/>
			<point x="369" y="212" type="curve" smooth="yes"/>
			<point x="405" y="212"/>
			<point x="434" y="181"/>
			<point x="472" y="111" type="curve"/>
			<point x="468" y="111"/>
			<point x="456" y="111"/>
		</contour>
		<contour>
			<point x="586" y="219" type="curve"/>
			<point x="539" y="277"/>
			<point x="482" y="320"/>
			<point x="412" y="320" type="curve" smooth="yes"/>
			<point x="369" y="320"/>
			<point x="320" y="308"/>
			<point x="293" y="292" type="curve"/>
			<point x="290" y="313"/>
			<point x="289" y="324"/>
			<point x="289" y="357" type="curve" smooth="yes"/>
			<point x="289" y="534"/>
			<point x="353" y="581"/>
			<point x="446" y="581" type="curve" smooth="yes"/>
			<point x="544" y="581"/>
			<point x="610" y="512"/>
			<point x="610" y="350" type="curve" smooth="yes"/>
			<point x="610" y="299"/>
			<point x="601" y="251"/>
		</contour>
	</outline>
</glyph>
<glyph name="S" format="2">
	<unicode hex="0053"/>
	<advance width="701"/>
	<outline>
		<contour>
			<point x="374" y="-14" type="curve" smooth="yes"/>
			<point x="508" y="-14"/>
			<point x="659" y="57"/>
			<point x="659" y="220" type="curve" smooth="yes"/>
			<point x="659" y="380"/>
			<point x="539" y="424"/>
			<point x="409" y="454" type="curve" smooth="yes"/>
			<point x="329" y="472"/>
			<point x="269" y="488"/>
			<point x="269" y="536" type="curve" smooth="yes"/>
			<point x="269" y="571"/>
			<point x="308" y="587"/>
			<point x="354" y="587" type="curve" smooth="yes"/>
			<point x="407" y="587"/>
			<point x="486" y="570"/>
			<point x="529" y="465" type="curve"/>
			<point x="633" y="486" type="line"/>
			<point x="610" y="714" type="line"/>
			<point x="527" y="714" type="line"/>
			<point x="512" y="667" type="line"/>
			<point x="464" y="698"/>
			<point x="418" y="714"/>
			<point x="339" y="714" type="curve" smooth="yes"/>
			<point x="110" y="714"/>
			<point x="57" y="548"/>
			<point x="57" y="479" type="curve" smooth="yes"/>
			<point x="57" y="318"/>
			<point x="176" y="272"/>
			<point x="282" y="246" type="curve" smooth="yes"/>
			<point x="385" y="220"/>
			<point x="432" y="206"/>
			<point x="432" y="161" type="curve" smooth="yes"/>
			<point x="432" y="133"/>
			<point x="402" y="112"/>
			<point x="337" y="112" type="curve" smooth="yes"/>
			<point x="249" y="112"/>
			<point x="178" y="166"/>
			<point x="149" y="234" type="curve"/>
			<point x="47" y="216" type="line"/>
			<point x="62" y="-6" type="line"/>
			<point x="158" y="-6" type="line"/>
			<point x="171" y="43" type="line"/>
			<point x="217" y="11"/>
			<point x="290" y="-14"/>
		</contour>
	</outline>
	<anchor name="bottom" x="365" y="-30"/>
	<anchor name="top" x="356" y="730"/>
</glyph>
<glyph name="T" format="2">
	<unicode hex="0054"/>
	<advance width="822"/>
	<outline>
		<contour>
			<point x="189" y="0" type="line"/>
			<point x="634" y="0" type="line"/>
			<point x="634" y="99" type="line"/>
			<point x="565" y="103" type="line" smooth="yes"/>
			<point x="533" y="105"/>
			<point x="529" y="113"/>
			<point x="529" y="155" type="curve" smooth="yes"/>
			<point x="529" y="586" type="line"/>
			<point x="560" y="586" type="line" smooth="yes"/>
			<point x="622" y="586"/>
			<point x="651" y="559"/>
			<point x="674" y="449" type="curve"/>
			<point x="806" y="473" type="line"/>
			<point x="775" y="700" type="line"/>
			<point x="48" y="700" type="line"/>
			<point x="16" y="474" type="line"/>
			<point x="149" y="449" type="line"/>
			<point x="174" y="563"/>
			<point x="199" y="586"/>
			<point x="266" y="586" type="curve" smooth="yes"/>
			<point x="295" y="586" type="line"/>
			<point x="295" y="155" type="line" smooth="yes"/>
			<point x="295" y="112"/>
			<point x="286" y="105"/>
			<point x="259" y="103" type="curve" smooth="yes"/>
			<point x="189" y="99" type="line"/>
		</contour>
	</outline>
	<anchor name="bottom" x="410" y="-30"/>
	<anchor name="top" x="408" y="730"/>
</glyph>
<glyph name="V" format="2">
	<unicode hex="0056"/>
	<advance width="852"/>
	<outline>
		<contour>
			<point x="312" y="0" type="line"/>
			<point x="539" y="0" type="line"/>
			<point x="751" y="541" type="line" smooth="yes"/>
			<point x="769" y="588"/>
			<point x="776" y="596"/>
			<point x="799" y="598" type="curve" smooth="yes"/>
			<point x="843" y="601" type="line"/>
			<point x="843" y="700" type="line"/>
			<point x="543" y="700" type="line"/>
			<point x="536" y="598" type="line"/>
			<point x="592" y="596" type="line" smooth="yes"/>
			<point x="624" y="595"/>
			<point x="630" y="579"/>
			<point x="615" y="540" type="curve" smooth="yes"/>
			<point x="483" y="203" type="line"/>
			<point x="475" y="203" type="line"/>
			<point x="347" y="545" type="line" smooth="yes"/>
			<point x="334" y="579"/>
			<point x="342" y="594"/>
			<point x="373" y="595" type="curve" smooth="yes"/>
			<point x="425" y="598" type="line"/>
			<point x="425" y="700" type="line"/>
			<point x="9" y="700" type="line"/>
			<point x="9" y="603" type="line"/>
			<point x="49" y="601" type="line" smooth="yes"/>
			<point x="80" y="599"/>
			<point x="85" y="584"/>
			<point x="98" y="551" type="curve" smooth="yes"/>
		</contour>
	</outline>
	<anchor name="top" x="461" y="730"/>
	<guideline x="445" y="393" angle="90"/>
</glyph>
<glyph name="X" format="2">
	<unicode hex="0058"/>
	<advance width="875"/>
	<outline>
		<contour>
			<point x="15" y="0" type="line"/>
			<point x="372" y="0" type="line"/>
			<point x="372" y="98" type="line"/>
			<point x="317" y="102" type="line" smooth="yes"/>
			<point x="286" y="104"/>
			<point x="292" y="123"/>
			<point x="312" y="142" type="curve" smooth="yes"/>
			<point x="411" y="238" type="line"/>
			<point x="492" y="155" type="line" smooth="yes"/>
			<point x="522" y="124"/>
			<point x="523" y="104"/>
			<point x="487" y="101" type="curve" smooth="yes"/>
			<point x="445" y="98" type="line"/>
			<point x="445" y="0" type="line"/>
			<point x="862" y="0" type="line"/>
			<point x="862" y="98" type="line"/>
			<point x="833" y="101" type="line" smooth="yes"/>
			<point x="794" y="105"/>
			<point x="773" y="122"/>
			<point x="752" y="148" type="curve" smooth="yes"/>
			<point x="552" y="383" type="line"/>
			<point x="724" y="561" type="line" smooth="yes"/>
			<point x="746" y="584"/>
			<point x="764" y="593"/>
			<point x="805" y="596" type="curve" smooth="yes"/>
			<point x="842" y="599" type="line"/>
			<point x="842" y="700" type="line"/>
			<point x="542" y="700" type="line"/>
			<point x="525" y="599" type="line"/>
			<point x="564" y="595" type="line" smooth="yes"/>
			<point x="590" y="592"/>
			<point x="586" y="579"/>
			<point x="576" y="569" type="curve" smooth="yes"/>
			<point x="478" y="473" type="line"/>
			<point x="392" y="562" type="line" smooth="yes"/>
			<point x="374" y="581"/>
			<point x="374" y="596"/>
			<point x="400" y="597" type="curve" smooth="yes"/>
			<point x="441" y="599" type="line"/>
			<point x="441" y="700" type="line"/>
			<point x="30" y="700" type="line"/>
			<point x="13" y="603" type="line"/>
			<point x="52" y="598" type="line" smooth="yes"/>
			<point x="92" y="593"/>
			<point x="122" y="572"/>
			<point x="141" y="550" type="curve" smooth="yes"/>
			<point x="334" y="329" type="line"/>
			<point x="172" y="174" type="line" smooth="yes"/>
			<point x="129" y="133"/>
			<point x="119" y="108"/>
			<point x="47" y="101" type="curve" smooth="yes"/>
			<point x="15" y="98" type="line"/>
		</contour>
	</outline>
</glyph>
<glyph name="Y" format="2">
	<unicode hex="0059"/>
	<advance width="844"/>
	<outline>
		<contour>
			<point x="212" y="0" type="line"/>
			<point x="636" y="0" type="line"/>
			<point x="636" y="99" type="line"/>
			<point x="572" y="101" type="line" smooth="yes"/>
			<point x="543" y="102"/>
			<point x="536" y="111"/>
			<point x="536" y="148" type="curve" smooth="yes"/>
			<point x="536" y="243" type="line"/>
			<point x="723" y="540" type="line" smooth="yes"/>
			<point x="742" y="571"/>
			<point x="756" y="593"/>
			<point x="792" y="597" type="curve" smooth="yes"/>
			<point x="837" y="601" type="line"/>
			<point x="837" y="700" type="line"/>
			<point x="506" y="700" type="line"/>
			<point x="506" y="601" type="line"/>
			<point x="560" y="598" type="line" smooth="yes"/>
			<point x="602" y="596"/>
			<point x="600" y="574"/>
			<point x="578" y="541" type="curve" smooth="yes"/>
			<point x="472" y="384" type="line"/>
			<point x="466" y="384" type="line"/>
			<point x="352" y="547" type="line" smooth="yes"/>
			<point x="330" y="578"/>
			<point x="335" y="595"/>
			<point x="359" y="597" type="curve" smooth="yes"/>
			<point x="412" y="601" type="line"/>
			<point x="412" y="700" type="line"/>
			<point x="7" y="700" type="line"/>
			<point x="7" y="601" type="line"/>
			<point x="49" y="599" type="line" smooth="yes"/>
			<point x="86" y="597"/>
			<point x="97" y="577"/>
			<point x="115" y="548" type="curve" smooth="yes"/>
			<point x="310" y="238" type="line"/>
			<point x="310" y="152" type="line" smooth="yes"/>
			<point x="310" y="108"/>
			<point x="299" y="103"/>
			<point x="276" y="102" type="curve" smooth="yes"/>
			<point x="212" y="99" type="line"/>
		</contour>
	</outline>
	<anchor name="bottom" x="417" y="-30"/>
	<anchor name="top" x="453" y="730"/>
</glyph>
<glyph name="Z" format="2">
	<unicode hex="005A"/>
	<advance width="784"/>
	<outline>
		<contour>
			<point x="47" y="0" type="line"/>
			<point x="719" y="0" type="line"/>
			<point x="742" y="284" type="line"/>
			<point x="613" y="284" type="line"/>
			<point x="553" y="125"/>
			<point x="520" y="116"/>
			<point x="437" y="116" type="curve" smooth="yes"/>
			<point x="320" y="116" type="line"/>
			<point x="729" y="591" type="line"/>
			<point x="729" y="700" type="line"/>
			<point x="67" y="700" type="line"/>
			<point x="54" y="413" type="line"/>
			<point x="183" y="421" type="line"/>
			<point x="230" y="567"/>
			<point x="250" y="586"/>
			<point x="325" y="586" type="curve" smooth="yes"/>
			<point x="463" y="586" type="line"/>
			<point x="47" y="110" type="line"/>
		</contour>
	</outline>
	<anchor name="bottom" x="392" y="-30"/>
	<anchor name="top" x="391" y="730"/>
</glyph>
<glyph name="bracketleft" format="2">
	<unicode hex="005B"/>
	<advance width="401"/>
	<outline>
		<contour>
			<point x="82" y="-212" type="line"/>
			<point x="376" y="-212" type="line"/>
			<point x="376" y="-115" type="line"/>
			<point x="319" y="-112" type="line" smooth="yes"/>
			<point x="293" y="-111"/>
			<point x="283" y="-97"/>
			<point x="283" y="-73" type="curve" smooth="yes"/>
			<point x="283" y="673" type="line" smooth="yes"/>
			<point x="283" y="697"/>
			<point x="293" y="711"/>
			<point x="319" y="712" type="curve" smooth="yes"/>
			<point x="376" y="715" type="line"/>
			<point x="376" y="812" type="line"/>
			<point x="82" y="812" type="line"/>
		</contour>
	</outline>
</glyph>
<glyph name="bracketright" format="2">
	<unicode hex="005D"/>
	<advance width="401"/>
	<outline>
		<contour>
			<point x="25" y="-212" type="line"/>
			<point x="319" y="-212" type="line"/>
			<point x="319" y="812" type="line"/>
			<point x="25" y="812" type="line"/>
			<point x="25" y="715" type="line"/>
			<point x="82" y="712" type="line" smooth="yes"/>
			<point x="108" y="711"/>
			<point x="118" y="697"/>
			<point x="118" y="673" type="curve" smooth="yes"/>
			<point x="118" y="-73" type="line" smooth="yes"/>
			<point x="118" y="-97"/>
			<point x="108" y="-111"/>
			<point x="82" y="-112" type="curve" smooth="yes"/>
			<point x="25" y="-115" type="line"/>
		</contour>
	</outline>
</glyph>
<glyph name="grave" format="2">
	<unicode hex="0060"/>
	<advance width="500"/>
	<outline>
		<contour>
			<point x="293" y="585" type="line"/>
			<point x="341" y="633" type="line"/>
			<point x="225" y="811" type="line" smooth="yes"/>
			<point x="206" y="840"/>
			<point x="189" y="845"/>
			<point x="165" y="845" type="curve" smooth="yes"/>
			<point x="108" y="845"/>
			<point x="89" y="788"/>
			<point x="89" y="761" type="curve" smooth="yes"/>
			<point x="89" y="739"/>
			<point x="100" y="715"/>
			<point x="129" y="695" type="curve" smooth="yes"/>
		</contour>
	</outline>
	<anchor name="_top" x="250" y="550"/>
</glyph>
<glyph name="a" format="2">
	<unicode hex="0061"/>
	<advance width="674"/>
	<outline>
		<contour>
			<point x="219" y="-14" type="curve" smooth="yes"/>
			<point x="312" y="-14"/>
			<point x="364" y="30"/>
			<point x="386" y="65" type="curve"/>
			<point x="399" y="22"/>
			<point x="446" y="-14"/>
			<point x="521" y="-14" type="curve" smooth="yes"/>
			<point x="587" y="-14"/>
			<point x="645" y="12"/>
			<point x="676" y="35" type="curve"/>
			<point x="659" y="114" type="line"/>
			<point x="645" y="110"/>
			<point x="634" y="107"/>
			<point x="620" y="107" type="curve" smooth="yes"/>
			<point x="589" y="107"/>
			<point x="584" y="127"/>
			<point x="584" y="153" type="curve" smooth="yes"/>
			<point x="584" y="337" type="line" smooth="yes"/>
			<point x="584" y="456"/>
			<point x="527" y="541"/>
			<point x="325" y="541" type="curve" smooth="yes"/>
			<point x="158" y="541"/>
			<point x="53" y="475"/>
			<point x="53" y="385" type="curve" smooth="yes"/>
			<point x="53" y="345"/>
			<point x="80" y="316"/>
			<point x="137" y="316" type="curve" smooth="yes"/>
			<point x="203" y="316"/>
			<point x="235" y="342"/>
			<point x="235" y="375" type="curve" smooth="yes"/>
			<point x="235" y="389"/>
			<point x="228" y="408"/>
			<point x="208" y="440" type="curve"/>
			<point x="228" y="451"/>
			<point x="255" y="457"/>
			<point x="286" y="457" type="curve" smooth="yes"/>
			<point x="357" y="457"/>
			<point x="360" y="409"/>
			<point x="360" y="358" type="curve" smooth="yes"/>
			<point x="360" y="293" type="line"/>
			<point x="143" y="287"/>
			<point x="41" y="254"/>
			<point x="41" y="126" type="curve" smooth="yes"/>
			<point x="41" y="41"/>
			<point x="105" y="-14"/>
		</contour>
		<contour>
			<point x="304" y="94" type="curve" smooth="yes"/>
			<point x="270" y="94"/>
			<point x="258" y="118"/>
			<point x="258" y="148" type="curve" smooth="yes"/>
			<point x="258" y="192"/>
			<point x="290" y="210"/>
			<point x="360" y="210" type="curve"/>
			<point x="360" y="145" type="line" smooth="yes"/>
			<point x="360" y="110"/>
			<point x="339" y="94"/>
		</contour>
	</outline>
	<anchor name="bottom" x="341" y="-31"/>
	<anchor name="top" x="328" y="561"/>
</glyph>
<glyph name="b" format="2">
	<unicode hex="0062"/>
	<advance width="751"/>
	<outline>
		<contour>
			<point x="215" y="0" type="line"/>
			<point x="268" y="40" type="line"/>
			<point x="310" y="5"/>
			<point x="365" y="-14"/>
			<point x="433" y="-14" type="curve" smooth="yes"/>
			<point x="622" y="-14"/>
			<point x="715" y="103"/>
			<point x="715" y="288" type="curve" smooth="yes"/>
			<point x="715" y="455"/>
			<point x="626" y="543"/>
			<point x="488" y="543" type="curve" smooth="yes"/>
			<point x="419" y="543"/>
			<point x="355" y="511"/>
			<point x="319" y="464" type="curve"/>
			<point x="313" y="464" type="line"/>
			<point x="313" y="757" type="line"/>
			<point x="293" y="768" type="line"/>
			<point x="22" y="754" type="line"/>
			<point x="15" y="648" type="line"/>
			<point x="48" y="646" type="line" smooth="yes"/>
			<point x="85" y="644"/>
			<point x="88" y="625"/>
			<point x="88" y="584" type="curve" smooth="yes"/>
			<point x="88" y="0" type="line"/>
		</contour>
		<contour>
			<point x="390" y="113" type="curve" smooth="yes"/>
			<point x="362" y="113"/>
			<point x="337" y="120"/>
			<point x="313" y="133" type="curve"/>
			<point x="313" y="316" type="line" smooth="yes"/>
			<point x="313" y="377"/>
			<point x="339" y="415"/>
			<point x="395" y="415" type="curve" smooth="yes"/>
			<point x="450" y="415"/>
			<point x="481" y="376"/>
			<point x="481" y="271" type="curve" smooth="yes"/>
			<point x="481" y="153"/>
			<point x="453" y="113"/>
		</contour>
	</outline>
</glyph>
<glyph name="g" format="2">
	<unicode hex="0067"/>
	<advance width="696"/>
	<outline>
		<contour>
			<point x="305" y="-235" type="curve" smooth="yes"/>
			<point x="650" y="-235"/>
			<point x="691" y="-97"/>
			<point x="691" y="-24" type="curve" smooth="yes"/>
			<point x="691" y="56"/>
			<point x="622" y="107"/>
			<point x="494" y="107" type="curve" smooth="yes"/>
			<point x="288" y="107" type="line" smooth="yes"/>
			<point x="259" y="107"/>
			<point x="216" y="108"/>
			<point x="216" y="141" type="curve" smooth="yes"/>
			<point x="216" y="150"/>
			<point x="221" y="158"/>
			<point x="230" y="162" type="curve"/>
			<point x="259" y="155"/>
			<point x="288" y="149"/>
			<point x="332" y="149" type="curve" smooth="yes"/>
			<point x="512" y="149"/>
			<point x="618" y="239"/>
			<point x="618" y="343" type="curve" smooth="yes"/>
			<point x="618" y="416"/>
			<point x="580" y="455"/>
			<point x="540" y="491" type="curve"/>
			<point x="551" y="510"/>
			<point x="566" y="532"/>
			<point x="580" y="545" type="curve"/>
			<point x="593" y="529" type="line" smooth="yes"/>
			<point x="607" y="512"/>
			<point x="625" y="499"/>
			<point x="648" y="499" type="curve" smooth="yes"/>
			<point x="688" y="499"/>
			<point x="716" y="534"/>
			<point x="716" y="579" type="curve" smooth="yes"/>
			<point x="716" y="637"/>
			<point x="672" y="659"/>
			<point x="635" y="659" type="curve" smooth="yes"/>
			<point x="572" y="659"/>
			<point x="530" y="604"/>
			<point x="482" y="519" type="curve"/>
			<point x="430" y="540"/>
			<point x="365" y="543"/>
			<point x="332" y="543" type="curve" smooth="yes"/>
			<point x="176" y="543"/>
			<point x="41" y="486"/>
			<point x="41" y="339" type="curve" smooth="yes"/>
			<point x="41" y="275"/>
			<point x="73" y="227"/>
			<point x="126" y="197" type="curve"/>
			<point x="126" y="194" type="line"/>
			<point x="85" y="173"/>
			<point x="65" y="144"/>
			<point x="65" y="111" type="curve" smooth="yes"/>
			<point x="65" y="78"/>
			<point x="87" y="40"/>
			<point x="151" y="22" type="curve"/>
			<point x="151" y="19" type="line"/>
			<point x="86" y="3"/>
			<point x="19" y="-19"/>
			<point x="19" y="-98" type="curve" smooth="yes"/>
			<point x="19" y="-188"/>
			<point x="108" y="-235"/>
		</contour>
		<contour>
			<point x="330" y="-131" type="curve" smooth="yes"/>
			<point x="267" y="-131"/>
			<point x="230" y="-116"/>
			<point x="230" y="-80" type="curve" smooth="yes"/>
			<point x="230" y="-62"/>
			<point x="240" y="-44"/>
			<point x="255" y="-32" type="curve"/>
			<point x="396" y="-32" type="line" smooth="yes"/>
			<point x="425" y="-32"/>
			<point x="450" y="-39"/>
			<point x="450" y="-66" type="curve" smooth="yes"/>
			<point x="450" y="-105"/>
			<point x="407" y="-131"/>
		</contour>
		<contour>
			<point x="330" y="268" type="curve" smooth="yes"/>
			<point x="288" y="268"/>
			<point x="268" y="300"/>
			<point x="268" y="347" type="curve" smooth="yes"/>
			<point x="268" y="388"/>
			<point x="282" y="431"/>
			<point x="330" y="431" type="curve" smooth="yes"/>
			<point x="369" y="431"/>
			<point x="392" y="408"/>
			<point x="392" y="346" type="curve" smooth="yes"/>
			<point x="392" y="294"/>
			<point x="370" y="268"/>
		</contour>
	</outline>
	<anchor name="top" x="329" y="561"/>
</glyph>
<glyph name="h" format="2">
	<unicode hex="0068"/>
	<advance width="791"/>
	<outline>
		<contour>
			<point x="43" y="0" type="line"/>
			<point x="380" y="0" type="line"/>
			<point x="380" y="96" type="line"/>
			<point x="360" y="97" type="line" smooth="yes"/>
			<point x="337" y="98"/>
			<point x="333" y="114"/>
			<point x="333" y="142" type="curve" smooth="yes"/>
			<point x="333" y="293" type="line" smooth="yes"/>
			<point x="333" y="370"/>
			<point x="365" y="394"/>
			<point x="416" y="394" type="curve" smooth="yes"/>
			<point x="465" y="394"/>
			<point x="478" y="363"/>
			<point x="478" y="312" type="curve" smooth="yes"/>
			<point x="478" y="141" type="line" smooth="yes"/>
			<point x="478" y="112"/>
			<point x="473" y="98"/>
			<point x="449" y="97" type="curve" smooth="yes"/>
			<point x="430" y="96" type="line"/>
			<point x="430" y="0" type="line"/>
			<point x="769" y="0" type="line"/>
			<point x="769" y="96" type="line"/>
			<point x="737" y="98" type="line" smooth="yes"/>
			<point x="708" y="100"/>
			<point x="703" y="111"/>
			<point x="703" y="138" type="curve" smooth="yes"/>
			<point x="703" y="367" type="line" smooth="yes"/>
			<point x="703" y="462"/>
			<point x="650" y="542"/>
			<point x="516" y="542" type="curve" smooth="yes"/>
			<point x="428" y="542"/>
			<point x="372" y="509"/>
			<point x="337" y="454" type="curve"/>
			<point x="333" y="454" type="line"/>
			<point x="333" y="757" type="line"/>
			<point x="314" y="768" type="line"/>
			<point x="42" y="754" type="line"/>
			<point x="35" y="648" type="line"/>
			<point x="70" y="646" type="line" smooth="yes"/>
			<point x="103" y="644"/>
			<point x="108" y="628"/>
			<point x="108" y="583" type="curve" smooth="yes"/>
			<point x="108" y="143" type="line" smooth="yes"/>
			<point x="108" y="107"/>
			<point x="101" y="99"/>
			<point x="80" y="98" type="curve" smooth="yes"/>
			<point x="43" y="96" type="line"/>
		</contour>
	</outline>
	<anchor name="bottom" x="406" y="-31"/>
	<anchor name="top" x="183" y="796"/>
	<guideline x="313" y="681" angle="90"/>
</glyph>
<glyph name="i" format="2">
	<unicode hex="0069"/>
	<advance width="435"/>
	<outline>
		<contour>
			<point x="44" y="0" type="line"/>
			<point x="410" y="0" type="line"/>
			<point x="410" y="96" type="line"/>
			<point x="368" y="98" type="line" smooth="yes"/>
			<point x="343" y="99"/>
			<point x="340" y="111"/>
			<point x="340" y="146" type="curve" smooth="yes"/>
			<point x="340" y="524" type="line"/>
			<point x="321" y="536" type="line"/>
			<point x="48" y="521" type="line"/>
			<point x="40" y="414" type="line"/>
			<point x="77" y="412" type="line" smooth="yes"/>
			<point x="115" y="410"/>
			<point x="115" y="387"/>
			<point x="115" y="350" type="curve" smooth="yes"/>
			<point x="115" y="147" type="line" smooth="yes"/>
			<point x="115" y="111"/>
			<point x="110" y="99"/>
			<point x="86" y="98" type="curve" smooth="yes"/>
			<point x="44" y="96" type="line"/>
		</contour>
		<contour>
			<point x="211" y="592" type="curve" smooth="yes"/>
			<point x="290" y="592"/>
			<point x="340" y="629"/>
			<point x="340" y="695" type="curve" smooth="yes"/>
			<point x="340" y="761"/>
			<point x="297" y="797"/>
			<point x="211" y="797" type="curve" smooth="yes"/>
			<point x="127" y="797"/>
			<point x="82" y="760"/>
			<point x="82" y="696" type="curve" smooth="yes"/>
			<point x="82" y="629"/>
			<point x="129" y="592"/>
		</contour>
	</outline>
	<anchor name="bottom" x="222" y="-31"/>
</glyph>
<glyph name="k" format="2">
	<unicode hex="006B"/>
	<advance width="799"/>
	<outline>
		<contour>
			<point x="635" y="-14" type="curve" smooth="yes"/>
			<point x="697" y="-14"/>
			<point x="759" y="8"/>
			<point x="794" y="33" type="curve"/>
			<point x="773" y="116" type="line"/>
			<point x="757" y="111"/>
			<point x="744" y="109"/>
			<point x="735" y="109" type="curve" smooth="yes"/>
			<point x="707" y="109"/>
			<point x="689" y="125"/>
			<point x="653" y="173" type="curve" smooth="yes"/>
			<point x="546" y="313" type="line"/>
			<point x="637" y="389" type="line" smooth="yes"/>
			<point x="665" y="413"/>
			<point x="675" y="420"/>
			<point x="702" y="423" type="curve" smooth="yes"/>
			<point x="749" y="428" type="line"/>
			<point x="749" y="529" type="line"/>
			<point x="454" y="529" type="line"/>
			<point x="437" y="435" type="line"/>
			<point x="478" y="431" type="line" smooth="yes"/>
			<point x="504" y="428"/>
			<point x="505" y="407"/>
			<point x="482" y="388" type="curve" smooth="yes"/>
			<point x="347" y="277" type="line"/>
			<point x="347" y="253" type="line"/>
			<point x="468" y="76" type="line" smooth="yes"/>
			<point x="515" y="8"/>
			<point x="569" y="-14"/>
		</contour>
		<contour>
			<point x="43" y="0" type="line"/>
			<point x="394" y="0" type="line"/>
			<point x="394" y="95" type="line"/>
			<point x="366" y="98" type="line" smooth="yes"/>
			<point x="337" y="101"/>
			<point x="333" y="110"/>
			<point x="333" y="145" type="curve" smooth="yes"/>
			<point x="333" y="757" type="line"/>
			<point x="314" y="768" type="line"/>
			<point x="42" y="754" type="line"/>
			<point x="35" y="648" type="line"/>
			<point x="70" y="646" type="line" smooth="yes"/>
			<point x="103" y="644"/>
			<point x="108" y="628"/>
			<point x="108" y="583" type="curve" smooth="yes"/>
			<point x="108" y="143" type="line" smooth="yes"/>
			<point x="108" y="107"/>
			<point x="101" y="99"/>
			<point x="80" y="98" type="curve" smooth="yes"/>
			<point x="43" y="96" type="line"/>
		</contour>
	</outline>
	<anchor name="bottom" x="372" y="-31"/>
	<anchor name="top" x="183" y="796"/>
</glyph>
<glyph name="m" format="2">
	<unicode hex="006D"/>
	<advance width="1119"/>
	<outline>
		<contour>
			<point x="47" y="0" type="line"/>
			<point x="380" y="0" type="line"/>
			<point x="380" y="96" type="line"/>
			<point x="365" y="97" type="line" smooth="yes"/>
			<point x="341" y="99"/>
			<point x="339" y="112"/>
			<point x="339" y="141" type="curve" smooth="yes"/>
			<point x="339" y="310" type="line" smooth="yes"/>
			<point x="339" y="376"/>
			<point x="375" y="394"/>
			<point x="410" y="394" type="curve" smooth="yes"/>
			<point x="448" y="394"/>
			<point x="460" y="373"/>
			<point x="460" y="321" type="curve" smooth="yes"/>
			<point x="460" y="140" type="line" smooth="yes"/>
			<point x="460" y="110"/>
			<point x="454" y="99"/>
			<point x="433" y="97" type="curve" smooth="yes"/>
			<point x="419" y="96" type="line"/>
			<point x="419" y="0" type="line"/>
			<point x="726" y="0" type="line"/>
			<point x="726" y="96" type="line"/>
			<point x="712" y="97" type="line" smooth="yes"/>
			<point x="687" y="99"/>
			<point x="685" y="111"/>
			<point x="685" y="142" type="curve" smooth="yes"/>
			<point x="685" y="310" type="line" smooth="yes"/>
			<point x="685" y="376"/>
			<point x="721" y="394"/>
			<point x="757" y="394" type="curve" smooth="yes"/>
			<point x="794" y="394"/>
			<point x="806" y="371"/>
			<point x="806" y="321" type="curve" smooth="yes"/>
			<point x="806" y="140" type="line" smooth="yes"/>
			<point x="806" y="108"/>
			<point x="801" y="99"/>
			<point x="779" y="97" type="curve" smooth="yes"/>
			<point x="765" y="96" type="line"/>
			<point x="765" y="0" type="line"/>
			<point x="1097" y="0" type="line"/>
			<point x="1097" y="96" type="line"/>
			<point x="1064" y="98" type="line" smooth="yes"/>
			<point x="1036" y="100"/>
			<point x="1031" y="111"/>
			<point x="1031" y="138" type="curve" smooth="yes"/>
			<point x="1031" y="367" type="line" smooth="yes"/>
			<point x="1031" y="462"/>
			<point x="979" y="543"/>
			<point x="856" y="543" type="curve" smooth="yes"/>
			<point x="771" y="543"/>
			<point x="708" y="505"/>
			<point x="674" y="440" type="curve"/>
			<point x="653" y="501"/>
			<point x="601" y="543"/>
			<point x="510" y="543" type="curve" smooth="yes"/>
			<point x="420" y="543"/>
			<point x="358" y="500"/>
			<point x="323" y="431" type="curve"/>
			<point x="319" y="431" type="line"/>
			<point x="310" y="524" type="line"/>
			<point x="291" y="536" type="line"/>
			<point x="49" y="521" type="line"/>
			<point x="39" y="415" type="line"/>
			<point x="76" y="413" type="line" smooth="yes"/>
			<point x="111" y="411"/>
			<point x="114" y="394"/>
			<point x="114" y="356" type="curve" smooth="yes"/>
			<point x="114" y="146" type="line" smooth="yes"/>
			<point x="114" y="111"/>
			<point x="108" y="99"/>
			<point x="85" y="98" type="curve" smooth="yes"/>
			<point x="47" y="96" type="line"/>
		</contour>
	</outline>
	<anchor name="bottom" x="569" y="-31"/>
</glyph>
<glyph name="n" format="2">
	<unicode hex="006E"/>
	<advance width="795"/>
	<outline>
		<contour>
			<point x="47" y="0" type="line"/>
			<point x="385" y="0" type="line"/>
			<point x="385" y="96" type="line"/>
			<point x="365" y="97" type="line" smooth="yes"/>
			<point x="342" y="98"/>
			<point x="339" y="111"/>
			<point x="339" y="139" type="curve" smooth="yes"/>
			<point x="339" y="293" type="line" smooth="yes"/>
			<point x="339" y="368"/>
			<point x="368" y="394"/>
			<point x="421" y="394" type="curve" smooth="yes"/>
			<point x="469" y="394"/>
			<point x="482" y="365"/>
			<point x="482" y="312" type="curve" smooth="yes"/>
			<point x="482" y="138" type="line" smooth="yes"/>
			<point x="482" y="107"/>
			<point x="475" y="98"/>
			<point x="454" y="97" type="curve" smooth="yes"/>
			<point x="435" y="96" type="line"/>
			<point x="435" y="0" type="line"/>
			<point x="773" y="0" type="line"/>
			<point x="773" y="95" type="line"/>
			<point x="740" y="97" type="line" smooth="yes"/>
			<point x="708" y="99"/>
			<point x="707" y="115"/>
			<point x="707" y="138" type="curve" smooth="yes"/>
			<point x="707" y="367" type="line" smooth="yes"/>
			<point x="707" y="462"/>
			<point x="655" y="542"/>
			<point x="520" y="542" type="curve" smooth="yes"/>
			<point x="421" y="542"/>
			<point x="358" y="500"/>
			<point x="323" y="431" type="curve"/>
			<point x="319" y="431" type="line"/>
			<point x="310" y="524" type="line"/>
			<point x="290" y="536" type="line"/>
			<point x="49" y="521" type="line"/>
			<point x="39" y="415" type="line"/>
			<point x="76" y="413" type="line" smooth="yes"/>
			<point x="110" y="411"/>
			<point x="114" y="395"/>
			<point x="114" y="356" type="curve" smooth="yes"/>
			<point x="114" y="146" type="line" smooth="yes"/>
			<point x="114" y="111"/>
			<point x="108" y="99"/>
			<point x="85" y="98" type="curve" smooth="yes"/>
			<point x="47" y="96" type="line"/>
		</contour>
	</outline>
	<anchor name="bottom" x="410" y="-31"/>
	<anchor name="top" x="408" y="561"/>
</glyph>
<glyph name="o" format="2">
	<unicode hex="006F"/>
	<advance width="726"/>
	<outline>
		<contour>
			<point x="353" y="-14" type="curve" smooth="yes"/>
			<point x="567" y="-14"/>
			<point x="686" y="82"/>
			<point x="686" y="273" type="curve" smooth="yes"/>
			<point x="686" y="469"/>
			<point x="558" y="542"/>
			<point x="377" y="542" type="curve" smooth="yes"/>
			<point x="179" y="542"/>
			<point x="40" y="461"/>
			<point x="40" y="256" type="curve" smooth="yes"/>
			<point x="40" y="75"/>
			<point x="152" y="-14"/>
		</contour>
		<contour>
			<point x="368" y="105" type="curve" smooth="yes"/>
			<point x="298" y="105"/>
			<point x="275" y="156"/>
			<point x="275" y="290" type="curve" smooth="yes"/>
			<point x="275" y="401"/>
			<point x="310" y="425"/>
			<point x="361" y="425" type="curve" smooth="yes"/>
			<point x="417" y="425"/>
			<point x="451" y="397"/>
			<point x="451" y="256" type="curve" smooth="yes"/>
			<point x="451" y="152"/>
			<point x="434" y="105"/>
		</contour>
	</outline>
	<anchor name="bottom" x="362" y="-31"/>
	<anchor name="top" x="364" y="561"/>
	<guideline x="560" y="265" angle="90"/>
	<guideline x="511" y="265" angle="0"/>
	<guideline x="334" y="203" angle="90"/>
</glyph>
<glyph name="t" format="2">
	<unicode hex="0074"/>
	<advance width="509"/>
	<outline>
		<contour>
			<point x="287" y="-14" type="curve" smooth="yes"/>
			<point x="386" y="-14"/>
			<point x="454" y="21"/>
			<point x="499" y="62" type="curve"/>
			<point x="453" y="150" type="line"/>
			<point x="428" y="137"/>
			<point x="398" y="128"/>
			<point x="373" y="128" type="curve" smooth="yes"/>
			<point x="326" y="128"/>
			<point x="319" y="160"/>
			<point x="319" y="197" type="curve" smooth="yes"/>
			<point x="319" y="416" type="line"/>
			<point x="462" y="416" type="line"/>
			<point x="462" y="529" type="line"/>
			<point x="319" y="529" type="line"/>
			<point x="319" y="686" type="line"/>
			<point x="297" y="697" type="line"/>
			<point x="171" y="680" type="line"/>
			<point x="157" y="579"/>
			<point x="132" y="532"/>
			<point x="20" y="513" type="curve"/>
			<point x="20" y="416" type="line"/>
			<point x="94" y="416" type="line"/>
			<point x="94" y="150" type="line" smooth="yes"/>
			<point x="94" y="44"/>
			<point x="162" y="-14"/>
		</contour>
	</outline>
	<anchor name="bottom" x="282" y="-31"/>
</glyph>
<glyph name="u" format="2">
	<unicode hex="0075"/>
	<advance width="783"/>
	<outline>
		<contour>
			<point x="281" y="-14" type="curve" smooth="yes"/>
			<point x="399" y="-14"/>
			<point x="441" y="36"/>
			<point x="473" y="84" type="curve"/>
			<point x="479" y="84" type="line"/>
			<point x="493" y="-9" type="line"/>
			<point x="754" y="0" type="line"/>
			<point x="754" y="98" type="line"/>
			<point x="719" y="103" type="line" smooth="yes"/>
			<point x="692" y="107"/>
			<point x="685" y="122"/>
			<point x="685" y="168" type="curve" smooth="yes"/>
			<point x="685" y="524" type="line"/>
			<point x="665" y="536" type="line"/>
			<point x="410" y="521" type="line"/>
			<point x="395" y="416" type="line"/>
			<point x="424" y="414" type="line" smooth="yes"/>
			<point x="455" y="412"/>
			<point x="461" y="399"/>
			<point x="461" y="351" type="curve" smooth="yes"/>
			<point x="461" y="236" type="line" smooth="yes"/>
			<point x="461" y="166"/>
			<point x="434" y="133"/>
			<point x="382" y="133" type="curve" smooth="yes"/>
			<point x="337" y="133"/>
			<point x="324" y="159"/>
			<point x="324" y="212" type="curve" smooth="yes"/>
			<point x="324" y="524" type="line"/>
			<point x="304" y="536" type="line"/>
			<point x="36" y="521" type="line"/>
			<point x="28" y="416" type="line"/>
			<point x="63" y="414" type="line" smooth="yes"/>
			<point x="97" y="412"/>
			<point x="100" y="389"/>
			<point x="100" y="352" type="curve" smooth="yes"/>
			<point x="100" y="159" type="line" smooth="yes"/>
			<point x="100" y="52"/>
			<point x="163" y="-14"/>
		</contour>
	</outline>
	<anchor name="bottom" x="401" y="-31"/>
	<anchor name="top" x="374" y="561"/>
</glyph>
<glyph name="y" format="2">
	<unicode hex="0079"/>
	<advance width="705"/>
	<outline>
		<contour>
			<point x="181" y="-235" type="curve" smooth="yes"/>
			<point x="332" y="-235"/>
			<point x="384" y="-135"/>
			<point x="445" y="-2" type="curve" smooth="yes"/>
			<point x="611" y="363" type="line" smooth="yes"/>
			<point x="632" y="408"/>
			<point x="640" y="421"/>
			<point x="664" y="425" type="curve" smooth="yes"/>
			<point x="700" y="431" type="line"/>
			<point x="700" y="529" type="line"/>
			<point x="455" y="529" type="line"/>
			<point x="442" y="431" type="line"/>
			<point x="477" y="429" type="line" smooth="yes"/>
			<point x="509" y="427"/>
			<point x="512" y="401"/>
			<point x="495" y="363" type="curve" smooth="yes"/>
			<point x="418" y="185" type="line"/>
			<point x="413" y="185" type="line"/>
			<point x="327" y="369" type="line" smooth="yes"/>
			<point x="309" y="407"/>
			<point x="312" y="427"/>
			<point x="346" y="429" type="curve" smooth="yes"/>
			<point x="380" y="431" type="line"/>
			<point x="380" y="529" type="line"/>
			<point x="35" y="529" type="line"/>
			<point x="20" y="425" type="line"/>
			<point x="56" y="421" type="line" smooth="yes"/>
			<point x="81" y="418"/>
			<point x="87" y="411"/>
			<point x="104" y="375" type="curve" smooth="yes"/>
			<point x="299" y="-25" type="line"/>
			<point x="287" y="-49" type="line" smooth="yes"/>
			<point x="258" y="-108"/>
			<point x="229" y="-157"/>
			<point x="165" y="-146" type="curve"/>
			<point x="175" y="-121"/>
			<point x="184" y="-95"/>
			<point x="184" y="-80" type="curve" smooth="yes"/>
			<point x="184" y="-54"/>
			<point x="162" y="-27"/>
			<point x="110" y="-27" type="curve" smooth="yes"/>
			<point x="55" y="-27"/>
			<point x="20" y="-70"/>
			<point x="20" y="-120" type="curve" smooth="yes"/>
			<point x="20" y="-191"/>
			<point x="87" y="-235"/>
		</contour>
	</outline>
	<anchor name="bottom" x="552" y="-31"/>
	<anchor name="top" x="386" y="561"/>
</glyph>
<glyph name="braceleft" format="2">
	<unicode hex="007B"/>
	<advance width="403"/>
	<outline>
		<contour>
			<point x="240" y="-233" type="curve" smooth="yes"/>
			<point x="283" y="-233"/>
			<point x="337" y="-227"/>
			<point x="373" y="-216" type="curve"/>
			<point x="359" y="-124" type="line"/>
			<point x="349" y="-126"/>
			<point x="325" y="-128"/>
			<point x="317" y="-128" type="curve" smooth="yes"/>
			<point x="292" y="-128"/>
			<point x="286" y="-115"/>
			<point x="286" y="-84" type="curve" smooth="yes"/>
			<point x="286" y="0"/>
			<point x="307" y="131"/>
			<point x="307" y="177" type="curve" smooth="yes"/>
			<point x="307" y="247"/>
			<point x="272" y="282"/>
			<point x="210" y="303" type="curve"/>
			<point x="272" y="324"/>
			<point x="306" y="359"/>
			<point x="306" y="429" type="curve" smooth="yes"/>
			<point x="306" y="475"/>
			<point x="285" y="610"/>
			<point x="285" y="678" type="curve" smooth="yes"/>
			<point x="285" y="707"/>
			<point x="292" y="720"/>
			<point x="312" y="720" type="curve" smooth="yes"/>
			<point x="325" y="720"/>
			<point x="346" y="718"/>
			<point x="356" y="716" type="curve"/>
			<point x="373" y="808" type="line"/>
			<point x="335" y="820"/>
			<point x="289" y="825"/>
			<point x="246" y="825" type="curve" smooth="yes"/>
			<point x="145" y="825"/>
			<point x="83" y="772"/>
			<point x="83" y="688" type="curve" smooth="yes"/>
			<point x="83" y="634"/>
			<point x="109" y="496"/>
			<point x="109" y="416" type="curve" smooth="yes"/>
			<point x="109" y="351"/>
			<point x="62" y="352"/>
			<point x="17" y="351" type="curve"/>
			<point x="17" y="255" type="line"/>
			<point x="62" y="254"/>
			<point x="106" y="255"/>
			<point x="106" y="190" type="curve" smooth="yes"/>
			<point x="106" y="80"/>
			<point x="84" y="-42"/>
			<point x="84" y="-96" type="curve" smooth="yes"/>
			<point x="84" y="-180"/>
			<point x="139" y="-233"/>
		</contour>
	</outline>
</glyph>
<glyph name="sterling" format="2">
	<unicode hex="00A3"/>
	<advance width="704"/>
	<outline>
		<contour>
			<point x="79" y="0" type="line"/>
			<point x="646" y="0" type="line"/>
			<point x="669" y="239" type="line"/>
			<point x="545" y="239" type="line"/>
			<point x="519" y="142"/>
			<point x="503" y="128"/>
			<point x="441" y="128" type="curve" smooth="yes"/>
			<point x="310" y="128" type="line"/>
			<point x="307" y="134" type="line"/>
			<point x="378" y="182"/>
			<point x="395" y="220"/>
			<point x="395" y="269" type="curve" smooth="yes"/>
			<point x="395" y="278"/>
			<point x="394" y="287"/>
			<point x="393" y="296" type="curve"/>
			<point x="533" y="296" type="line"/>
			<point x="533" y="402" type="line"/>
			<point x="354" y="402" type="line"/>
			<point x="332" y="441"/>
			<point x="310" y="476"/>
			<point x="310" y="524" type="curve" smooth="yes"/>
			<point x="310" y="586"/>
			<point x="342" y="619"/>
			<point x="403" y="619" type="curve" smooth="yes"/>
			<point x="428" y="619"/>
			<point x="453" y="614"/>
			<point x="470" y="609" type="curve"/>
			<point x="443" y="571"/>
			<point x="440" y="555"/>
			<point x="440" y="537" type="curve" smooth="yes"/>
			<point x="440" y="500"/>
			<point x="477" y="468"/>
			<point x="539" y="468" type="curve" smooth="yes"/>
			<point x="612" y="468"/>
			<point x="647" y="511"/>
			<point x="647" y="563" type="curve" smooth="yes"/>
			<point x="647" y="648"/>
			<point x="554" y="713"/>
			<point x="389" y="713" type="curve" smooth="yes"/>
			<point x="200" y="713"/>
			<point x="84" y="628"/>
			<point x="84" y="517" type="curve" smooth="yes"/>
			<point x="84" y="468"/>
			<point x="96" y="432"/>
			<point x="111" y="402" type="curve"/>
			<point x="27" y="402" type="line"/>
			<point x="15" y="296" type="line"/>
			<point x="171" y="296" type="line"/>
			<point x="177" y="281"/>
			<point x="180" y="265"/>
			<point x="180" y="246" type="curve" smooth="yes"/>
			<point x="180" y="179"/>
			<point x="146" y="130"/>
			<point x="61" y="95" type="curve"/>
		</contour>
	</outline>
</glyph>
<glyph name="currency" format="2">
	<unicode hex="00A4"/>
	<advance width="619"/>
	<outline>
		<contour>
			<point x="495" y="72" type="line"/>
			<point x="574" y="149" type="line"/>
			<point x="524" y="231" type="line"/>
			<point x="538" y="255"/>
			<point x="549" y="292"/>
			<point x="549" y="329" type="curve" smooth="yes"/>
			<point x="549" y="360"/>
			<point x="542" y="384"/>
			<point x="527" y="410" type="curve"/>
			<point x="582" y="500" type="line"/>
			<point x="503" y="577" type="line"/>
			<point x="415" y="505" type="line"/>
			<point x="381" y="513"/>
			<point x="340" y="517"/>
			<point x="308" y="517" type="curve" smooth="yes"/>
			<point x="284" y="517"/>
			<point x="244" y="513"/>
			<point x="211" y="507" type="curve"/>
			<point x="124" y="579" type="line"/>
			<point x="45" y="502" type="line"/>
			<point x="93" y="424" type="line"/>
			<point x="68" y="384"/>
			<point x="60" y="354"/>
			<point x="60" y="320" type="curve" smooth="yes"/>
			<point x="60" y="288"/>
			<point x="67" y="256"/>
			<point x="85" y="225" type="curve"/>
			<point x="37" y="147" type="line"/>
			<point x="116" y="70" type="line"/>
			<point x="203" y="142" type="line"/>
			<point x="236" y="136"/>
			<point x="276" y="132"/>
			<point x="300" y="132" type="curve" smooth="yes"/>
			<point x="332" y="132"/>
			<point x="373" y="136"/>
			<point x="407" y="144" type="curve"/>
		</contour>
		<contour>
			<point x="302" y="223" type="curve" smooth="yes"/>
			<point x="281" y="223"/>
			<point x="278" y="258"/>
			<point x="278" y="323" type="curve" smooth="yes"/>
			<point x="278" y="389"/>
			<point x="284" y="419"/>
			<point x="306" y="419" type="curve" smooth="yes"/>
			<point x="327" y="419"/>
			<point x="332" y="390"/>
			<point x="332" y="325" type="curve" smooth="yes"/>
			<point x="332" y="259"/>
			<point x="326" y="223"/>
		</contour>
	</outline>
</glyph>
<glyph name="yen" format="2">
	<unicode hex="00A5"/>
	<advance width="866"/>
	<outline>
		<contour>
			<point x="223" y="0" type="line"/>
			<point x="647" y="0" type="line"/>
			<point x="647" y="99" type="line"/>
			<point x="583" y="101" type="line" smooth="yes"/>
			<point x="554" y="102"/>
			<point x="547" y="111"/>
			<point x="547" y="148" type="curve" smooth="yes"/>
			<point x="547" y="215" type="line"/>
			<point x="762" y="215" type="line"/>
			<point x="762" y="300" type="line"/>
			<point x="583" y="300" type="line"/>
			<point x="583" y="301" type="line"/>
			<point x="614" y="350" type="line"/>
			<point x="762" y="350" type="line"/>
			<point x="762" y="437" type="line"/>
			<point x="669" y="437" type="line"/>
			<point x="734" y="540" type="line" smooth="yes"/>
			<point x="753" y="571"/>
			<point x="767" y="593"/>
			<point x="803" y="597" type="curve" smooth="yes"/>
			<point x="848" y="601" type="line"/>
			<point x="848" y="700" type="line"/>
			<point x="517" y="700" type="line"/>
			<point x="517" y="601" type="line"/>
			<point x="571" y="598" type="line" smooth="yes"/>
			<point x="613" y="596"/>
			<point x="611" y="574"/>
			<point x="589" y="541" type="curve" smooth="yes"/>
			<point x="483" y="384" type="line"/>
			<point x="477" y="384" type="line"/>
			<point x="363" y="547" type="line" smooth="yes"/>
			<point x="341" y="578"/>
			<point x="346" y="595"/>
			<point x="370" y="597" type="curve" smooth="yes"/>
			<point x="423" y="601" type="line"/>
			<point x="423" y="700" type="line"/>
			<point x="18" y="700" type="line"/>
			<point x="18" y="601" type="line"/>
			<point x="60" y="599" type="line" smooth="yes"/>
			<point x="97" y="597"/>
			<point x="108" y="577"/>
			<point x="126" y="548" type="curve" smooth="yes"/>
			<point x="196" y="437" type="line"/>
			<point x="110" y="437" type="line"/>
			<point x="102" y="352" type="line"/>
			<point x="249" y="352" type="line"/>
			<point x="281" y="302" type="line"/>
			<point x="281" y="300" type="line"/>
			<point x="107" y="300" type="line"/>
			<point x="99" y="215" type="line"/>
			<point x="321" y="215" type="line"/>
			<point x="321" y="152" type="line" smooth="yes"/>
			<point x="321" y="108"/>
			<point x="310" y="103"/>
			<point x="287" y="102" type="curve" smooth="yes"/>
			<point x="223" y="99" type="line"/>
		</contour>
	</outline>
	<anchor name="bottom" x="428" y="-30"/>
	<anchor name="top" x="464" y="730"/>
</glyph>
<glyph name="section" format="2">
	<unicode hex="00A7"/>
	<advance width="689"/>
	<outline>
		<contour>
			<point x="322" y="-178" type="curve" smooth="yes"/>
			<point x="460" y="-178"/>
			<point x="560" y="-110"/>
			<point x="560" y="-11" type="curve" smooth="yes"/>
			<point x="560" y="20"/>
			<point x="555" y="42"/>
			<point x="546" y="64" type="curve"/>
			<point x="634" y="126"/>
			<point x="671" y="170"/>
			<point x="671" y="226" type="curve" smooth="yes"/>
			<point x="671" y="277"/>
			<point x="644" y="339"/>
			<point x="480" y="433" type="curve" smooth="yes"/>
			<point x="375" y="493"/>
			<point x="314" y="536"/>
			<point x="314" y="604" type="curve" smooth="yes"/>
			<point x="314" y="629"/>
			<point x="334" y="649"/>
			<point x="363" y="649" type="curve" smooth="yes"/>
			<point x="377" y="649"/>
			<point x="396" y="648"/>
			<point x="410" y="642" type="curve"/>
			<point x="399" y="625"/>
			<point x="388" y="596"/>
			<point x="388" y="580" type="curve" smooth="yes"/>
			<point x="388" y="546"/>
			<point x="428" y="521"/>
			<point x="475" y="521" type="curve" smooth="yes"/>
			<point x="552" y="521"/>
			<point x="575" y="569"/>
			<point x="575" y="608" type="curve" smooth="yes"/>
			<point x="575" y="693"/>
			<point x="490" y="737"/>
			<point x="364" y="737" type="curve" smooth="yes"/>
			<point x="229" y="737"/>
			<point x="129" y="669"/>
			<point x="129" y="570" type="curve" smooth="yes"/>
			<point x="129" y="544"/>
			<point x="133" y="517"/>
			<point x="142" y="495" type="curve"/>
			<point x="54" y="433"/>
			<point x="18" y="389"/>
			<point x="18" y="333" type="curve" smooth="yes"/>
			<point x="18" y="284"/>
			<point x="41" y="222"/>
			<point x="209" y="126" type="curve" smooth="yes"/>
			<point x="314" y="66"/>
			<point x="375" y="22"/>
			<point x="375" y="-45" type="curve" smooth="yes"/>
			<point x="375" y="-70"/>
			<point x="355" y="-90"/>
			<point x="324" y="-90" type="curve" smooth="yes"/>
			<point x="308" y="-90"/>
			<point x="290" y="-89"/>
			<point x="275" y="-83" type="curve"/>
			<point x="286" y="-66"/>
			<point x="298" y="-36"/>
			<point x="298" y="-21" type="curve" smooth="yes"/>
			<point x="298" y="13"/>
			<point x="258" y="38"/>
			<point x="212" y="38" type="curve" smooth="yes"/>
			<point x="134" y="38"/>
			<point x="110" y="-10"/>
			<point x="110" y="-49" type="curve" smooth="yes"/>
			<point x="110" y="-134"/>
			<point x="196" y="-178"/>
		</contour>
		<contour>
			<point x="487" y="143" type="curve"/>
			<point x="443" y="181"/>
			<point x="401" y="211"/>
			<point x="334" y="256" type="curve" smooth="yes"/>
			<point x="255" y="309"/>
			<point x="185" y="354"/>
			<point x="185" y="386" type="curve" smooth="yes"/>
			<point x="185" y="396"/>
			<point x="189" y="404"/>
			<point x="202" y="416" type="curve"/>
			<point x="236" y="387"/>
			<point x="280" y="354"/>
			<point x="356" y="304" type="curve" smooth="yes"/>
			<point x="431" y="254"/>
			<point x="504" y="206"/>
			<point x="504" y="173" type="curve" smooth="yes"/>
			<point x="504" y="163"/>
			<point x="499" y="155"/>
		</contour>
	</outline>
</glyph>
<glyph name="ordfeminine" format="2">
	<unicode hex="00AA"/>
	<advance width="493"/>
	<outline>
		<contour>
			<point x="142" y="362" type="curve" smooth="yes"/>
			<point x="224" y="362"/>
			<point x="265" y="393"/>
			<point x="282" y="416" type="curve"/>
			<point x="294" y="384"/>
			<point x="333" y="362"/>
			<point x="384" y="362" type="curve" smooth="yes"/>
			<point x="429" y="362"/>
			<point x="468" y="380"/>
			<point x="488" y="396" type="curve"/>
			<point x="477" y="461" type="line"/>
			<point x="470" y="458"/>
			<point x="462" y="456"/>
			<point x="454" y="456" type="curve" smooth="yes"/>
			<point x="436" y="456"/>
			<point x="432" y="466"/>
			<point x="432" y="488" type="curve" smooth="yes"/>
			<point x="432" y="602" type="line" smooth="yes"/>
			<point x="432" y="697"/>
			<point x="380" y="742"/>
			<point x="245" y="742" type="curve" smooth="yes"/>
			<point x="118" y="742"/>
			<point x="45" y="697"/>
			<point x="45" y="635" type="curve" smooth="yes"/>
			<point x="45" y="597"/>
			<point x="63" y="578"/>
			<point x="101" y="578" type="curve" smooth="yes"/>
			<point x="146" y="578"/>
			<point x="167" y="595"/>
			<point x="167" y="618" type="curve" smooth="yes"/>
			<point x="167" y="625"/>
			<point x="163" y="638"/>
			<point x="158" y="652" type="curve"/>
			<point x="173" y="657"/>
			<point x="187" y="660"/>
			<point x="207" y="660" type="curve" smooth="yes"/>
			<point x="253" y="660"/>
			<point x="264" y="638"/>
			<point x="264" y="592" type="curve" smooth="yes"/>
			<point x="264" y="572" type="line"/>
			<point x="218" y="571"/>
			<point x="176" y="568"/>
			<point x="145" y="563" type="curve" smooth="yes"/>
			<point x="68" y="551"/>
			<point x="25" y="522"/>
			<point x="25" y="458" type="curve" smooth="yes"/>
			<point x="25" y="396"/>
			<point x="66" y="362"/>
		</contour>
		<contour>
			<point x="231" y="455" type="curve" smooth="yes"/>
			<point x="210" y="455"/>
			<point x="202" y="466"/>
			<point x="202" y="481" type="curve" smooth="yes"/>
			<point x="202" y="501"/>
			<point x="227" y="513"/>
			<point x="264" y="513" type="curve"/>
			<point x="264" y="483" type="line" smooth="yes"/>
			<point x="264" y="465"/>
			<point x="254" y="455"/>
		</contour>
	</outline>
</glyph>
<glyph name="logicalnot" format="2">
	<unicode hex="00AC"/>
	<advance width="620"/>
	<outline>
		<contour>
			<point x="375" y="125" type="line"/>
			<point x="534" y="125" type="line"/>
			<point x="534" y="409" type="line"/>
			<point x="86" y="409" type="line"/>
			<point x="86" y="254" type="line"/>
			<point x="375" y="254" type="line"/>
		</contour>
	</outline>
</glyph>
<glyph name="softhyphen" format="2">
	<unicode hex="00AD"/>
	<advance width="363"/>
	<outline>
		<contour>
			<point x="40" y="230" type="line"/>
			<point x="323" y="230" type="line"/>
			<point x="323" y="370" type="line"/>
			<point x="40" y="370" type="line"/>
		</contour>
	</outline>
</glyph>
<glyph name="macron" format="2">
	<unicode hex="00AF"/>
	<advance width="500"/>
	<outline>
		<contour>
			<point x="64" y="624" type="line"/>
			<point x="436" y="624" type="line"/>
			<point x="436" y="766" type="line"/>
			<point x="64" y="766" type="line"/>
		</contour>
	</outline>
	<anchor name="_top" x="250" y="550"/>
</glyph>
<glyph name="degree" format="2">
	<unicode hex="00B0"/>
	<advance width="459"/>
	<outline>
		<contour>
			<point x="228" y="542" type="curve" smooth="yes"/>
			<point x="335" y="542"/>
			<point x="404" y="601"/>
			<point x="404" y="675" type="curve" smooth="yes"/>
			<point x="404" y="751"/>
			<point x="337" y="803"/>
			<point x="233" y="803" type="curve" smooth="yes"/>
			<point x="108" y="803"/>
			<point x="55" y="742"/>
			<point x="55" y="665" type="curve" smooth="yes"/>
			<point x="55" y="596"/>
			<point x="106" y="542"/>
		</contour>
		<contour>
			<point x="230" y="624" type="curve" smooth="yes"/>
			<point x="205" y="624"/>
			<point x="178" y="635"/>
			<point x="178" y="670" type="curve" smooth="yes"/>
			<point x="178" y="707"/>
			<point x="205" y="719"/>
			<point x="233" y="719" type="curve" smooth="yes"/>
			<point x="265" y="719"/>
			<point x="289" y="708"/>
			<point x="289" y="672" type="curve" smooth="yes"/>
			<point x="289" y="635"/>
			<point x="263" y="624"/>
		</contour>
	</outline>
</glyph>
<glyph name="threesuperior" format="2">
	<unicode hex="00B3"/>
	<advance width="467"/>
	<outline>
		<contour>
			<point x="223" y="360" type="curve" smooth="yes"/>
			<point x="343" y="360"/>
			<point x="433" y="412"/>
			<point x="433" y="499" type="curve" smooth="yes"/>
			<point x="433" y="567"/>
			<point x="383" y="600"/>
			<point x="290" y="606" type="curve"/>
			<point x="290" y="613" type="line"/>
			<point x="372" y="630"/>
			<point x="424" y="673"/>
			<point x="424" y="730" type="curve" smooth="yes"/>
			<point x="424" y="804"/>
			<point x="345" y="839"/>
			<point x="232" y="839" type="curve" smooth="yes"/>
			<point x="126" y="839"/>
			<point x="31" y="794"/>
			<point x="31" y="716" type="curve" smooth="yes"/>
			<point x="31" y="679"/>
			<point x="58" y="662"/>
			<point x="101" y="662" type="curve" smooth="yes"/>
			<point x="139" y="662"/>
			<point x="167" y="678"/>
			<point x="167" y="705" type="curve" smooth="yes"/>
			<point x="167" y="723"/>
			<point x="156" y="736"/>
			<point x="148" y="752" type="curve"/>
			<point x="159" y="757"/>
			<point x="175" y="759"/>
			<point x="194" y="759" type="curve" smooth="yes"/>
			<point x="228" y="759"/>
			<point x="251" y="743"/>
			<point x="251" y="711" type="curve" smooth="yes"/>
			<point x="251" y="658"/>
			<point x="214" y="642"/>
			<point x="143" y="636" type="curve"/>
			<point x="135" y="553" type="line"/>
			<point x="218" y="557"/>
			<point x="259" y="547"/>
			<point x="259" y="517" type="curve" smooth="yes"/>
			<point x="259" y="493"/>
			<point x="236" y="478"/>
			<point x="191" y="478" type="curve" smooth="yes"/>
			<point x="149" y="478"/>
			<point x="117" y="489"/>
			<point x="82" y="511" type="curve"/>
			<point x="24" y="421" type="line"/>
			<point x="67" y="384"/>
			<point x="133" y="360"/>
		</contour>
	</outline>
</glyph>
<glyph name="ordmasculine" format="2">
	<unicode hex="00BA"/>
	<advance width="507"/>
	<outline>
		<contour>
			<point x="248" y="360" type="curve" smooth="yes"/>
			<point x="389" y="360"/>
			<point x="482" y="426"/>
			<point x="482" y="558" type="curve" smooth="yes"/>
			<point x="482" y="693"/>
			<point x="382" y="742"/>
			<point x="264" y="742" type="curve" smooth="yes"/>
			<point x="133" y="742"/>
			<point x="25" y="687"/>
			<point x="25" y="546" type="curve" smooth="yes"/>
			<point x="25" y="421"/>
			<point x="114" y="360"/>
		</contour>
		<contour>
			<point x="257" y="446" type="curve" smooth="yes"/>
			<point x="215" y="446"/>
			<point x="200" y="482"/>
			<point x="200" y="570" type="curve" smooth="yes"/>
			<point x="200" y="641"/>
			<point x="225" y="657"/>
			<point x="253" y="657" type="curve" smooth="yes"/>
			<point x="284" y="657"/>
			<point x="307" y="639"/>
			<point x="307" y="546" type="curve" smooth="yes"/>
			<point x="307" y="476"/>
			<point x="295" y="446"/>
		</contour>
	</outline>
</glyph>
<glyph name="Ccedilla" format="2">
	<unicode hex="00C7"/>
	<advance width="794"/>
	<outline>
		<contour>
			<point x="451" y="-258" type="curve" smooth="yes"/>
			<point x="519" y="-258"/>
			<point x="588" y="-225"/>
			<point x="588" y="-140" type="curve" smooth="yes"/>
			<point x="588" y="-78"/>
			<point x="536" y="-31"/>
			<point x="450" y="-39" type="curve"/>
			<point x="460" y="-13" type="line"/>
			<point x="475" y="-12"/>
			<point x="490" y="-10"/>
			<point x="503" y="-8" type="curve" smooth="yes"/>
			<point x="632" y="13"/>
			<point x="710" y="77"/>
			<point x="751" y="116" type="curve"/>
			<point x="681" y="214" type="line"/>
			<point x="648" y="191"/>
			<point x="575" y="147"/>
			<point x="484" y="147" type="curve" smooth="yes"/>
			<point x="391" y="147"/>
			<point x="290" y="181"/>
			<point x="290" y="379" type="curve" smooth="yes"/>
			<point x="290" y="503"/>
			<point x="341" y="581"/>
			<point x="453" y="581" type="curve" smooth="yes"/>
			<point x="527" y="581"/>
			<point x="587" y="546"/>
			<point x="629" y="437" type="curve"/>
			<point x="742" y="458" type="line"/>
			<point x="700" y="714" type="line"/>
			<point x="615" y="714" type="line"/>
			<point x="601" y="667" type="line"/>
			<point x="552" y="696"/>
			<point x="497" y="714"/>
			<point x="432" y="714" type="curve" smooth="yes"/>
			<point x="197" y="714"/>
			<point x="48" y="569"/>
			<point x="48" y="345" type="curve" smooth="yes"/>
			<point x="48" y="133"/>
			<point x="165" y="11"/>
			<point x="357" y="-11" type="curve"/>
			<point x="336" y="-65" type="line"/>
			<point x="351" y="-109" type="line"/>
			<point x="363" y="-105"/>
			<point x="377" y="-103"/>
			<point x="392" y="-103" type="curve" smooth="yes"/>
			<point x="428" y="-103"/>
			<point x="443" y="-119"/>
			<point x="443" y="-135" type="curve" smooth="yes"/>
			<point x="443" y="-156"/>
			<point x="425" y="-169"/>
			<point x="393" y="-169" type="curve" smooth="yes"/>
			<point x="366" y="-169"/>
			<point x="342" y="-164"/>
			<point x="309" y="-154" type="curve"/>
			<point x="289" y="-221" type="line"/>
			<point x="318" y="-236"/>
			<point x="378" y="-258"/>
		</contour>
	</outline>
	<anchor name="bottom" x="427" y="-30"/>
	<anchor name="top" x="418" y="730"/>
</glyph>
<glyph name="Eth" format="2">
	<unicode hex="00D0"/>
	<advance width="869"/>
	<outline>
		<contour>
			<point x="428" y="700" type="curve" smooth="yes"/>
			<point x="50" y="700" type="line"/>
			<point x="50" y="601" type="line"/>
			<point x="84" y="600" type="line" smooth="yes"/>
			<point x="117" y="599"/>
			<point x="120" y="582"/>
			<point x="120" y="552" type="curve" smooth="yes"/>
			<point x="120" y="423" type="line"/>
			<point x="27" y="423" type="line"/>
			<point x="14" y="293" type="line"/>
			<point x="120" y="293" type="line"/>
			<point x="120" y="154" type="line" smooth="yes"/>
			<point x="120" y="110"/>
			<point x="110" y="104"/>
			<point x="86" y="102" type="curve" smooth="yes"/>
			<point x="50" y="99" type="line"/>
			<point x="50" y="0" type="line"/>
			<point x="354" y="0" type="line" smooth="yes"/>
			<point x="671" y="0"/>
			<point x="824" y="123"/>
			<point x="824" y="370" type="curve" smooth="yes"/>
			<point x="824" y="646"/>
			<point x="614" y="700"/>
		</contour>
		<contour>
			<point x="408" y="128" type="curve" smooth="yes"/>
			<point x="390" y="128"/>
			<point x="374" y="129"/>
			<point x="355" y="132" type="curve"/>
			<point x="355" y="293" type="line"/>
			<point x="471" y="293" type="line"/>
			<point x="471" y="423" type="line"/>
			<point x="355" y="423" type="line"/>
			<point x="355" y="572" type="line"/>
			<point x="412" y="572" type="line" smooth="yes"/>
			<point x="517" y="572"/>
			<point x="579" y="510"/>
			<point x="579" y="364" type="curve" smooth="yes"/>
			<point x="579" y="205"/>
			<point x="538" y="128"/>
		</contour>
	</outline>
	<anchor name="bottom" x="409" y="-30"/>
	<anchor name="top" x="405" y="730"/>
</glyph>
<glyph name="multiply" format="2">
	<unicode hex="00D7"/>
	<advance width="620"/>
	<outline>
		<contour>
			<point x="422" y="86" type="line"/>
			<point x="527" y="191" type="line"/>
			<point x="417" y="301" type="line"/>
			<point x="527" y="412" type="line"/>
			<point x="419" y="520" type="line"/>
			<point x="309" y="410" type="line"/>
			<point x="202" y="516" type="line"/>
			<point x="97" y="410" type="line"/>
			<point x="203" y="304" type="line"/>
			<point x="94" y="194" type="line"/>
			<point x="202" y="86" type="line"/>
			<point x="311" y="196" type="line"/>
		</contour>
	</outline>
</glyph>
<glyph name="Oslash" format="2">
	<unicode hex="00D8"/>
	<advance width="893"/>
	<outline>
		<contour>
			<point x="28" y="-14" type="line"/>
			<point x="173" y="-14" type="line"/>
			<point x="220" y="35" type="line"/>
			<point x="277" y="4"/>
			<point x="350" y="-14"/>
			<point x="440" y="-14" type="curve" smooth="yes"/>
			<point x="711" y="-14"/>
			<point x="839" y="161"/>
			<point x="839" y="366" type="curve" smooth="yes"/>
			<point x="839" y="466"/>
			<point x="811" y="545"/>
			<point x="761" y="602" type="curve"/>
			<point x="868" y="714" type="line"/>
			<point x="723" y="714" type="line"/>
			<point x="678" y="667" type="line"/>
			<point x="620" y="698"/>
			<point x="547" y="714"/>
			<point x="465" y="714" type="curve" smooth="yes"/>
			<point x="222" y="714"/>
			<point x="58" y="586"/>
			<point x="58" y="340" type="curve" smooth="yes"/>
			<point x="58" y="246"/>
			<point x="83" y="163"/>
			<point x="137" y="101" type="curve"/>
		</contour>
		<contour>
			<point x="452" y="120" type="curve" smooth="yes"/>
			<point x="405" y="120"/>
			<point x="370" y="135"/>
			<point x="346" y="167" type="curve"/>
			<point x="589" y="422" type="line"/>
			<point x="592" y="400"/>
			<point x="593" y="376"/>
			<point x="593" y="350" type="curve" smooth="yes"/>
			<point x="593" y="173"/>
			<point x="542" y="120"/>
		</contour>
		<contour>
			<point x="308" y="279" type="line"/>
			<point x="305" y="303"/>
			<point x="304" y="328"/>
			<point x="304" y="357" type="curve" smooth="yes"/>
			<point x="304" y="525"/>
			<point x="352" y="581"/>
			<point x="445" y="581" type="curve" smooth="yes"/>
			<point x="491" y="581"/>
			<point x="526" y="566"/>
			<point x="551" y="533" type="curve"/>
		</contour>
	</outline>
	<anchor name="bottom" x="449" y="-30"/>
	<anchor name="top" x="450" y="730"/>
</glyph>
<glyph name="germandbls" format="2">
	<unicode hex="00DF"/>
	<advance width="917"/>
	<outline>
		<contour>
			<point x="392" y="-14" type="line"/>
			<point x="481" y="-14" type="line"/>
			<point x="493" y="28" type="line"/>
			<point x="519" y="12"/>
			<point x="566" y="-14"/>
			<point x="657" y="-14" type="curve" smooth="yes"/>
			<point x="779" y="-14"/>
			<point x="892" y="63"/>
			<point x="892" y="192" type="curve" smooth="yes"/>
			<point x="892" y="386"/>
			<point x="610" y="335"/>
			<point x="610" y="436" type="curve" smooth="yes"/>
			<point x="610" y="501"/>
			<point x="765" y="527"/>
			<point x="765" y="637" type="curve" smooth="yes"/>
			<point x="765" y="725"/>
			<point x="640" y="782"/>
			<point x="468" y="782" type="curve" smooth="yes"/>
			<point x="242" y="782"/>
			<point x="111" y="690"/>
			<point x="111" y="527" type="curve" smooth="yes"/>
			<point x="111" y="515" type="line"/>
			<point x="31" y="502" type="line"/>
			<point x="31" y="402" type="line"/>
			<point x="109" y="402" type="line"/>
			<point x="109" y="146" type="line" smooth="yes"/>
			<point x="109" y="111"/>
			<point x="103" y="99"/>
			<point x="80" y="98" type="curve" smooth="yes"/>
			<point x="38" y="96" type="line"/>
			<point x="38" y="0" type="line"/>
			<point x="333" y="0" type="line"/>
			<point x="333" y="552" type="line" smooth="yes"/>
			<point x="333" y="645"/>
			<point x="377" y="692"/>
			<point x="455" y="692" type="curve" smooth="yes"/>
			<point x="504" y="692"/>
			<point x="558" y="670"/>
			<point x="558" y="599" type="curve" smooth="yes"/>
			<point x="558" y="472"/>
			<point x="447" y="462"/>
			<point x="447" y="336" type="curve" smooth="yes"/>
			<point x="447" y="161"/>
			<point x="707" y="214"/>
			<point x="707" y="131" type="curve" smooth="yes"/>
			<point x="707" y="103"/>
			<point x="674" y="88"/>
			<point x="635" y="88" type="curve" smooth="yes"/>
			<point x="553" y="88"/>
			<point x="502" y="144"/>
			<point x="488" y="175" type="curve"/>
			<point x="376" y="170" type="line"/>
		</contour>
	</outline>
</glyph>
<glyph name="ae" format="2">
	<unicode hex="00E6"/>
	<advance width="984"/>
	<outline>
		<contour>
			<point x="219" y="-14" type="curve" smooth="yes"/>
			<point x="315" y="-14"/>
			<point x="389" y="12"/>
			<point x="435" y="59" type="curve"/>
			<point x="479" y="12"/>
			<point x="556" y="-14"/>
			<point x="659" y="-14" type="curve" smooth="yes"/>
			<point x="789" y="-14"/>
			<point x="887" y="41"/>
			<point x="949" y="113" type="curve"/>
			<point x="885" y="191" type="line"/>
			<point x="833" y="161"/>
			<point x="786" y="142"/>
			<point x="712" y="142" type="curve" smooth="yes"/>
			<point x="640" y="142"/>
			<point x="591" y="169"/>
			<point x="586" y="227" type="curve"/>
			<point x="930" y="227" type="line"/>
			<point x="936" y="256"/>
			<point x="939" y="291"/>
			<point x="939" y="330" type="curve" smooth="yes"/>
			<point x="939" y="470"/>
			<point x="839" y="542"/>
			<point x="678" y="542" type="curve" smooth="yes"/>
			<point x="613" y="542"/>
			<point x="550" y="525"/>
			<point x="501" y="486" type="curve"/>
			<point x="455" y="524"/>
			<point x="398" y="541"/>
			<point x="325" y="541" type="curve" smooth="yes"/>
			<point x="158" y="541"/>
			<point x="53" y="475"/>
			<point x="53" y="385" type="curve" smooth="yes"/>
			<point x="53" y="345"/>
			<point x="80" y="316"/>
			<point x="137" y="316" type="curve" smooth="yes"/>
			<point x="203" y="316"/>
			<point x="235" y="342"/>
			<point x="235" y="375" type="curve" smooth="yes"/>
			<point x="235" y="389"/>
			<point x="228" y="408"/>
			<point x="208" y="440" type="curve"/>
			<point x="228" y="451"/>
			<point x="255" y="457"/>
			<point x="286" y="457" type="curve" smooth="yes"/>
			<point x="357" y="457"/>
			<point x="360" y="409"/>
			<point x="360" y="358" type="curve" smooth="yes"/>
			<point x="360" y="293" type="line"/>
			<point x="296" y="291"/>
			<point x="242" y="287"/>
			<point x="197" y="278" type="curve" smooth="yes"/>
			<point x="93" y="258"/>
			<point x="41" y="217"/>
			<point x="41" y="126" type="curve" smooth="yes"/>
			<point x="41" y="41"/>
			<point x="105" y="-14"/>
		</contour>
		<contour>
			<point x="304" y="94" type="curve" smooth="yes"/>
			<point x="270" y="94"/>
			<point x="258" y="118"/>
			<point x="258" y="148" type="curve" smooth="yes"/>
			<point x="258" y="178"/>
			<point x="273" y="195"/>
			<point x="303" y="204" type="curve" smooth="yes"/>
			<point x="318" y="208"/>
			<point x="337" y="210"/>
			<point x="360" y="210" type="curve"/>
			<point x="360" y="145" type="line" smooth="yes"/>
			<point x="360" y="110"/>
			<point x="339" y="94"/>
		</contour>
		<contour>
			<point x="584" y="331" type="line"/>
			<point x="587" y="387"/>
			<point x="612" y="437"/>
			<point x="670" y="437" type="curve" smooth="yes"/>
			<point x="708" y="437"/>
			<point x="729" y="415"/>
			<point x="729" y="381" type="curve" smooth="yes"/>
			<point x="729" y="365"/>
			<point x="728" y="348"/>
			<point x="725" y="331" type="curve"/>
		</contour>
	</outline>
	<anchor name="bottom" x="471" y="-31"/>
	<anchor name="top" x="506" y="561"/>
</glyph>
<glyph name="oslash" format="2">
	<unicode hex="00F8"/>
	<advance width="726"/>
	<outline>
		<contour>
			<point x="52" y="-24" type="line"/>
			<point x="167" y="-24" type="line"/>
			<point x="197" y="10" type="line"/>
			<point x="241" y="-6"/>
			<point x="293" y="-14"/>
			<point x="353" y="-14" type="curve" smooth="yes"/>
			<point x="567" y="-14"/>
			<point x="686" y="82"/>
			<point x="686" y="273" type="curve" smooth="yes"/>
			<point x="686" y="365"/>
			<point x="658" y="430"/>
			<point x="609" y="473" type="curve"/>
			<point x="681" y="553" type="line"/>
			<point x="565" y="553" type="line"/>
			<point x="533" y="517" type="line"/>
			<point x="488" y="534"/>
			<point x="436" y="542"/>
			<point x="377" y="542" type="curve" smooth="yes"/>
			<point x="179" y="542"/>
			<point x="40" y="461"/>
			<point x="40" y="256" type="curve" smooth="yes"/>
			<point x="40" y="166"/>
			<point x="68" y="98"/>
			<point x="121" y="53" type="curve"/>
		</contour>
		<contour>
			<point x="368" y="105" type="curve" smooth="yes"/>
			<point x="340" y="105"/>
			<point x="320" y="113"/>
			<point x="305" y="131" type="curve"/>
			<point x="450" y="294" type="line"/>
			<point x="451" y="282"/>
			<point x="451" y="270"/>
			<point x="451" y="256" type="curve" smooth="yes"/>
			<point x="451" y="152"/>
			<point x="434" y="105"/>
		</contour>
		<contour>
			<point x="277" y="229" type="line"/>
			<point x="276" y="247"/>
			<point x="275" y="267"/>
			<point x="275" y="290" type="curve" smooth="yes"/>
			<point x="275" y="401"/>
			<point x="310" y="425"/>
			<point x="361" y="425" type="curve" smooth="yes"/>
			<point x="388" y="425"/>
			<point x="410" y="418"/>
			<point x="425" y="396" type="curve"/>
		</contour>
	</outline>
	<anchor name="bottom" x="362" y="-31"/>
	<anchor name="top" x="364" y="561"/>
</glyph>
<glyph name="eogonek" format="2">
	<unicode hex="0119"/>
	<advance width="670"/>
	<outline>
		<contour>
			<point x="413" y="-255" type="curve" smooth="yes"/>
			<point x="487" y="-255"/>
			<point x="538" y="-227"/>
			<point x="574" y="-195" type="curve"/>
			<point x="540" y="-130" type="line"/>
			<point x="510" y="-146"/>
			<point x="488" y="-150"/>
			<point x="476" y="-150" type="curve" smooth="yes"/>
			<point x="453" y="-150"/>
			<point x="443" y="-139"/>
			<point x="443" y="-112" type="curve" smooth="yes"/>
			<point x="443" y="-75"/>
			<point x="469" y="-15"/>
			<point x="539" y="35" type="curve"/>
			<point x="577" y="56"/>
			<point x="609" y="83"/>
			<point x="635" y="113" type="curve"/>
			<point x="570" y="191" type="line"/>
			<point x="517" y="160"/>
			<point x="470" y="140"/>
			<point x="397" y="140" type="curve" smooth="yes"/>
			<point x="326" y="140"/>
			<point x="277" y="169"/>
			<point x="271" y="229" type="curve"/>
			<point x="615" y="229" type="line"/>
			<point x="622" y="259"/>
			<point x="625" y="297"/>
			<point x="625" y="330" type="curve" smooth="yes"/>
			<point x="625" y="470"/>
			<point x="525" y="542"/>
			<point x="363" y="542" type="curve" smooth="yes"/>
			<point x="176" y="542"/>
			<point x="40" y="441"/>
			<point x="40" y="246" type="curve" smooth="yes"/>
			<point x="40" y="92"/>
			<point x="142" y="-14"/>
			<point x="342" y="-14" type="curve" smooth="yes"/>
			<point x="359" y="-14"/>
			<point x="375" y="-13"/>
			<point x="390" y="-11" type="curve"/>
			<point x="330" y="-48"/>
			<point x="279" y="-98"/>
			<point x="279" y="-154" type="curve" smooth="yes"/>
			<point x="279" y="-196"/>
			<point x="303" y="-255"/>
		</contour>
		<contour>
			<point x="270" y="331" type="line"/>
			<point x="272" y="387"/>
			<point x="298" y="437"/>
			<point x="355" y="437" type="curve" smooth="yes"/>
			<point x="394" y="437"/>
			<point x="415" y="414"/>
			<point x="415" y="381" type="curve" smooth="yes"/>
			<point x="415" y="368"/>
			<point x="414" y="352"/>
			<point x="411" y="331" type="curve"/>
		</contour>
	</outline>
	<anchor name="bottom" x="349" y="-31"/>
	<anchor name="top" x="353" y="561"/>
</glyph>
<glyph name="Hbar" format="2">
	<unicode hex="0126"/>
	<advance width="843"/>
	<outline>
		<contour>
			<point x="36" y="0" type="line"/>
			<point x="388" y="0" type="line"/>
			<point x="388" y="98" type="line"/>
			<point x="362" y="104" type="line" smooth="yes"/>
			<point x="337" y="110"/>
			<point x="330" y="114"/>
			<point x="330" y="151" type="curve" smooth="yes"/>
			<point x="330" y="268" type="line"/>
			<point x="514" y="268" type="line"/>
			<point x="514" y="155" type="line" smooth="yes"/>
			<point x="514" y="115"/>
			<point x="507" y="109"/>
			<point x="483" y="104" type="curve" smooth="yes"/>
			<point x="456" y="98" type="line"/>
			<point x="456" y="0" type="line"/>
			<point x="807" y="0" type="line"/>
			<point x="807" y="98" type="line"/>
			<point x="782" y="104" type="line" smooth="yes"/>
			<point x="756" y="110"/>
			<point x="749" y="114"/>
			<point x="749" y="151" type="curve" smooth="yes"/>
			<point x="749" y="442" type="line"/>
			<point x="814" y="442" type="line"/>
			<point x="814" y="535" type="line"/>
			<point x="749" y="535" type="line"/>
			<point x="749" y="552" type="line" smooth="yes"/>
			<point x="749" y="589"/>
			<point x="756" y="599"/>
			<point x="780" y="603" type="curve" smooth="yes"/>
			<point x="807" y="607" type="line"/>
			<point x="807" y="700" type="line"/>
			<point x="456" y="700" type="line"/>
			<point x="456" y="607" type="line"/>
			<point x="481" y="601" type="line" smooth="yes"/>
			<point x="507" y="595"/>
			<point x="514" y="588"/>
			<point x="514" y="554" type="curve" smooth="yes"/>
			<point x="514" y="535" type="line"/>
			<point x="330" y="535" type="line"/>
			<point x="330" y="550" type="line" smooth="yes"/>
			<point x="330" y="586"/>
			<point x="336" y="596"/>
			<point x="360" y="601" type="curve" smooth="yes"/>
			<point x="388" y="607" type="line"/>
			<point x="388" y="700" type="line"/>
			<point x="36" y="700" type="line"/>
			<point x="36" y="607" type="line"/>
			<point x="62" y="603" type="line" smooth="yes"/>
			<point x="88" y="599"/>
			<point x="95" y="590"/>
			<point x="95" y="553" type="curve" smooth="yes"/>
			<point x="95" y="535" type="line"/>
			<point x="32" y="535" type="line"/>
			<point x="19" y="442" type="line"/>
			<point x="95" y="442" type="line"/>
			<point x="95" y="155" type="line" smooth="yes"/>
			<point x="95" y="115"/>
			<point x="88" y="109"/>
			<point x="64" y="104" type="curve" smooth="yes"/>
			<point x="36" y="98" type="line"/>
		</contour>
		<contour>
			<point x="330" y="376" type="line"/>
			<point x="330" y="442" type="line"/>
			<point x="514" y="442" type="line"/>
			<point x="514" y="376" type="line"/>
		</contour>
	</outline>
	<anchor name="bottom" x="422" y="-30"/>
	<anchor name="top" x="423" y="730"/>
</glyph>
<glyph name="Iogonek" format="2">
	<unicode hex="012E"/>
	<advance width="471"/>
	<outline>
		<contour>
			<point x="228" y="-255" type="curve" smooth="yes"/>
			<point x="316" y="-255"/>
			<point x="367" y="-224"/>
			<point x="403" y="-195" type="curve"/>
			<point x="369" y="-130" type="line"/>
			<point x="339" y="-145"/>
			<point x="314" y="-150"/>
			<point x="289" y="-150" type="curve" smooth="yes"/>
			<point x="267" y="-150"/>
			<point x="245" y="-142"/>
			<point x="245" y="-115" type="curve" smooth="yes"/>
			<point x="245" y="-88"/>
			<point x="266" y="-59"/>
			<point x="330" y="0" type="curve"/>
			<point x="423" y="0" type="line"/>
			<point x="423" y="99" type="line"/>
			<point x="388" y="102" type="line" smooth="yes"/>
			<point x="359" y="104"/>
			<point x="353" y="111"/>
			<point x="353" y="149" type="curve" smooth="yes"/>
			<point x="353" y="548" type="line" smooth="yes"/>
			<point x="353" y="588"/>
			<point x="361" y="596"/>
			<point x="386" y="598" type="curve" smooth="yes"/>
			<point x="423" y="601" type="line"/>
			<point x="423" y="700" type="line"/>
			<point x="48" y="700" type="line"/>
			<point x="48" y="601" type="line"/>
			<point x="81" y="600" type="line" smooth="yes"/>
			<point x="111" y="599"/>
			<point x="118" y="588"/>
			<point x="118" y="551" type="curve" smooth="yes"/>
			<point x="118" y="152" type="line" smooth="yes"/>
			<point x="118" y="120"/>
			<point x="114" y="104"/>
			<point x="85" y="102" type="curve" smooth="yes"/>
			<point x="48" y="99" type="line"/>
			<point x="48" y="0" type="line"/>
			<point x="225" y="0" type="line"/>
			<point x="143" y="-41"/>
			<point x="81" y="-87"/>
			<point x="81" y="-154" type="curve" smooth="yes"/>
			<point x="81" y="-196"/>
			<point x="115" y="-255"/>
		</contour>
	</outline>
	<anchor name="bottom" x="229" y="-30"/>
	<anchor name="top" x="237" y="730"/>
</glyph>
<glyph name="iogonek" format="2">
	<unicode hex="012F"/>
	<advance width="396"/>
	<outline>
		<contour>
			<point x="199" y="-255" type="curve" smooth="yes"/>
			<point x="287" y="-255"/>
			<point x="338" y="-224"/>
			<point x="374" y="-195" type="curve"/>
			<point x="340" y="-130" type="line"/>
			<point x="310" y="-145"/>
			<point x="285" y="-150"/>
			<point x="260" y="-150" type="curve" smooth="yes"/>
			<point x="238" y="-150"/>
			<point x="216" y="-142"/>
			<point x="216" y="-115" type="curve" smooth="yes"/>
			<point x="216" y="-88"/>
			<point x="237" y="-59"/>
			<point x="301" y="0" type="curve"/>
			<point x="410" y="0" type="line"/>
			<point x="410" y="96" type="line"/>
			<point x="368" y="98" type="line" smooth="yes"/>
			<point x="343" y="99"/>
			<point x="340" y="111"/>
			<point x="340" y="146" type="curve" smooth="yes"/>
			<point x="340" y="524" type="line"/>
			<point x="321" y="536" type="line"/>
			<point x="48" y="521" type="line"/>
			<point x="40" y="414" type="line"/>
			<point x="77" y="412" type="line" smooth="yes"/>
			<point x="115" y="410"/>
			<point x="115" y="387"/>
			<point x="115" y="350" type="curve" smooth="yes"/>
			<point x="115" y="147" type="line" smooth="yes"/>
			<point x="115" y="111"/>
			<point x="110" y="99"/>
			<point x="86" y="98" type="curve" smooth="yes"/>
			<point x="44" y="96" type="line"/>
			<point x="44" y="0" type="line"/>
			<point x="196" y="0" type="line"/>
			<point x="114" y="-41"/>
			<point x="52" y="-87"/>
			<point x="52" y="-154" type="curve" smooth="yes"/>
			<point x="52" y="-196"/>
			<point x="86" y="-255"/>
		</contour>
		<contour>
			<point x="211" y="592" type="curve" smooth="yes"/>
			<point x="290" y="592"/>
			<point x="340" y="629"/>
			<point x="340" y="695" type="curve" smooth="yes"/>
			<point x="340" y="761"/>
			<point x="297" y="797"/>
			<point x="211" y="797" type="curve" smooth="yes"/>
			<point x="127" y="797"/>
			<point x="82" y="760"/>
			<point x="82" y="696" type="curve" smooth="yes"/>
			<point x="82" y="629"/>
			<point x="129" y="592"/>
		</contour>
	</outline>
	<anchor name="bottom" x="222" y="-31"/>
</glyph>
<glyph name="idotless" format="2">
	<unicode hex="0131"/>
	<advance width="435"/>
	<outline>
		<contour>
			<point x="44" y="0" type="line"/>
			<point x="410" y="0" type="line"/>
			<point x="410" y="96" type="line"/>
			<point x="368" y="98" type="line" smooth="yes"/>
			<point x="343" y="99"/>
			<point x="340" y="111"/>
			<point x="340" y="146" type="curve" smooth="yes"/>
			<point x="340" y="524" type="line"/>
			<point x="321" y="536" type="line"/>
			<point x="48" y="521" type="line"/>
			<point x="40" y="414" type="line"/>
			<point x="77" y="412" type="line" smooth="yes"/>
			<point x="115" y="410"/>
			<point x="115" y="387"/>
			<point x="115" y="350" type="curve" smooth="yes"/>
			<point x="115" y="147" type="line" smooth="yes"/>
			<point x="115" y="111"/>
			<point x="110" y="99"/>
			<point x="86" y="98" type="curve" smooth="yes"/>
			<point x="44" y="96" type="line"/>
		</contour>
	</outline>
	<anchor name="bottom" x="227" y="-30"/>
	<anchor name="top" x="197" y="557"/>
</glyph>
<glyph name="lslash" format="2">
	<unicode hex="0142"/>
	<advance width="431"/>
	<outline>
		<contour>
			<point x="43" y="0" type="line"/>
			<point x="399" y="0" type="line"/>
			<point x="399" y="96" type="line"/>
			<point x="365" y="98" type="line" smooth="yes"/>
			<point x="339" y="100"/>
			<point x="333" y="109"/>
			<point x="333" y="147" type="curve" smooth="yes"/>
			<point x="333" y="360" type="line"/>
			<point x="405" y="388" type="line"/>
			<point x="405" y="516" type="line"/>
			<point x="333" y="490" type="line"/>
			<point x="333" y="757" type="line"/>
			<point x="313" y="768" type="line"/>
			<point x="42" y="754" type="line"/>
			<point x="35" y="648" type="line"/>
			<point x="68" y="646" type="line" smooth="yes"/>
			<point x="103" y="644"/>
			<point x="108" y="628"/>
			<point x="108" y="585" type="curve" smooth="yes"/>
			<point x="108" y="430" type="line"/>
			<point x="32" y="401" type="line"/>
			<point x="32" y="274" type="line"/>
			<point x="108" y="304" type="line"/>
			<point x="108" y="147" type="line" smooth="yes"/>
			<point x="108" y="108"/>
			<point x="102" y="99"/>
			<point x="79" y="98" type="curve" smooth="yes"/>
			<point x="43" y="96" type="line"/>
		</contour>
	</outline>
	<anchor name="bottom" x="225" y="-31"/>
	<anchor name="top" x="183" y="796"/>
</glyph>
<glyph name="Eng" format="2">
	<unicode hex="014A"/>
	<advance width="926"/>
	<outline>
		<contour>
			<point x="48" y="0" type="line"/>
			<point x="358" y="0" type="line"/>
			<point x="358" y="98" type="line"/>
			<point x="324" y="104" type="line" smooth="yes"/>
			<point x="296" y="109"/>
			<point x="289" y="114"/>
			<point x="289" y="151" type="curve" smooth="yes"/>
			<point x="289" y="368" type="line"/>
			<point x="294" y="368" type="line"/>
			<point x="580" y="7" type="line"/>
			<point x="580" y="6" type="line"/>
			<point x="574" y="-51"/>
			<point x="550" y="-92"/>
			<point x="499" y="-139" type="curve"/>
			<point x="572" y="-230" type="line"/>
			<point x="702" y="-166"/>
			<point x="817" y="-83"/>
			<point x="817" y="95" type="curve" smooth="yes"/>
			<point x="817" y="547" type="line" smooth="yes"/>
			<point x="817" y="584"/>
			<point x="825" y="595"/>
			<point x="851" y="598" type="curve" smooth="yes"/>
			<point x="886" y="602" type="line"/>
			<point x="886" y="700" type="line"/>
			<point x="577" y="700" type="line"/>
			<point x="577" y="602" type="line"/>
			<point x="610" y="596" type="line" smooth="yes"/>
			<point x="638" y="591"/>
			<point x="646" y="583"/>
			<point x="646" y="549" type="curve" smooth="yes"/>
			<point x="646" y="300" type="line"/>
			<point x="641" y="300" type="line"/>
			<point x="353" y="700" type="line"/>
			<point x="48" y="700" type="line"/>
			<point x="48" y="602" type="line"/>
			<point x="82" y="598" type="line" smooth="yes"/>
			<point x="115" y="594"/>
			<point x="118" y="579"/>
			<point x="118" y="548" type="curve" smooth="yes"/>
			<point x="118" y="155" type="line" smooth="yes"/>
			<point x="118" y="115"/>
			<point x="110" y="108"/>
			<point x="84" y="104" type="curve" smooth="yes"/>
			<point x="48" y="98" type="line"/>
		</contour>
	</outline>
	<anchor name="bottom" x="203" y="-30"/>
	<anchor name="top" x="463" y="756"/>
</glyph>
<glyph name="oe" format="2">
	<unicode hex="0153"/>
	<advance width="1079"/>
	<outline>
		<contour>
			<point x="329" y="-14" type="curve" smooth="yes"/>
			<point x="441" y="-14"/>
			<point x="508" y="25"/>
			<point x="549" y="58" type="curve"/>
			<point x="584" y="22"/>
			<point x="669" y="-14"/>
			<point x="760" y="-14" type="curve" smooth="yes"/>
			<point x="888" y="-14"/>
			<point x="984" y="44"/>
			<point x="1044" y="113" type="curve"/>
			<point x="980" y="191" type="line"/>
			<point x="927" y="161"/>
			<point x="881" y="142"/>
			<point x="807" y="142" type="curve" smooth="yes"/>
			<point x="734" y="142"/>
			<point x="686" y="169"/>
			<point x="681" y="227" type="curve"/>
			<point x="1024" y="227" type="line"/>
			<point x="1031" y="256"/>
			<point x="1034" y="296"/>
			<point x="1034" y="330" type="curve" smooth="yes"/>
			<point x="1034" y="470"/>
			<point x="934" y="542"/>
			<point x="782" y="542" type="curve" smooth="yes"/>
			<point x="691" y="542"/>
			<point x="621" y="516"/>
			<point x="565" y="462" type="curve"/>
			<point x="525" y="508"/>
			<point x="438" y="542"/>
			<point x="358" y="542" type="curve" smooth="yes"/>
			<point x="178" y="542"/>
			<point x="40" y="461"/>
			<point x="40" y="256" type="curve" smooth="yes"/>
			<point x="40" y="75"/>
			<point x="161" y="-14"/>
		</contour>
		<contour>
			<point x="369" y="102" type="curve" smooth="yes"/>
			<point x="299" y="102"/>
			<point x="274" y="156"/>
			<point x="274" y="290" type="curve" smooth="yes"/>
			<point x="274" y="401"/>
			<point x="311" y="425"/>
			<point x="361" y="425" type="curve" smooth="yes"/>
			<point x="418" y="425"/>
			<point x="454" y="397"/>
			<point x="454" y="256" type="curve" smooth="yes"/>
			<point x="454" y="147"/>
			<point x="434" y="102"/>
		</contour>
		<contour>
			<point x="679" y="331" type="line"/>
			<point x="681" y="387"/>
			<point x="707" y="437"/>
			<point x="765" y="437" type="curve" smooth="yes"/>
			<point x="803" y="437"/>
			<point x="824" y="415"/>
			<point x="824" y="381" type="curve" smooth="yes"/>
			<point x="824" y="367"/>
			<point x="823" y="351"/>
			<point x="820" y="331" type="curve"/>
		</contour>
	</outline>
</glyph>
<glyph name="Scedilla" format="2">
	<unicode hex="015E"/>
	<advance width="701"/>
	<outline>
		<contour>
			<point x="389" y="-258" type="curve" smooth="yes"/>
			<point x="457" y="-258"/>
			<point x="526" y="-225"/>
			<point x="526" y="-140" type="curve" smooth="yes"/>
			<point x="526" y="-78"/>
			<point x="474" y="-31"/>
			<point x="388" y="-39" type="curve"/>
			<point x="397" y="-13" type="line"/>
			<point x="525" y="-5"/>
			<point x="659" y="66"/>
			<point x="659" y="220" type="curve" smooth="yes"/>
			<point x="659" y="380"/>
			<point x="539" y="424"/>
			<point x="409" y="454" type="curve" smooth="yes"/>
			<point x="329" y="472"/>
			<point x="269" y="488"/>
			<point x="269" y="536" type="curve" smooth="yes"/>
			<point x="269" y="571"/>
			<point x="308" y="587"/>
			<point x="354" y="587" type="curve" smooth="yes"/>
			<point x="407" y="587"/>
			<point x="486" y="570"/>
			<point x="529" y="465" type="curve"/>
			<point x="633" y="486" type="line"/>
			<point x="610" y="714" type="line"/>
			<point x="527" y="714" type="line"/>
			<point x="512" y="667" type="line"/>
			<point x="464" y="698"/>
			<point x="418" y="714"/>
			<point x="339" y="714" type="curve" smooth="yes"/>
			<point x="110" y="714"/>
			<point x="57" y="548"/>
			<point x="57" y="479" type="curve" smooth="yes"/>
			<point x="57" y="318"/>
			<point x="176" y="272"/>
			<point x="282" y="246" type="curve" smooth="yes"/>
			<point x="385" y="220"/>
			<point x="432" y="206"/>
			<point x="432" y="161" type="curve" smooth="yes"/>
			<point x="432" y="133"/>
			<point x="402" y="112"/>
			<point x="337" y="112" type="curve" smooth="yes"/>
			<point x="249" y="112"/>
			<point x="178" y="166"/>
			<point x="149" y="234" type="curve"/>
			<point x="47" y="216" type="line"/>
			<point x="62" y="-6" type="line"/>
			<point x="158" y="-6" type="line"/>
			<point x="171" y="43" type="line"/>
			<point x="202" y="21"/>
			<point x="246" y="3"/>
			<point x="296" y="-7" type="curve"/>
			<point x="274" y="-65" type="line"/>
			<point x="289" y="-109" type="line"/>
			<point x="301" y="-105"/>
			<point x="315" y="-103"/>
			<point x="330" y="-103" type="curve" smooth="yes"/>
			<point x="366" y="-103"/>
			<point x="381" y="-119"/>
			<point x="381" y="-135" type="curve" smooth="yes"/>
			<point x="381" y="-156"/>
			<point x="363" y="-169"/>
			<point x="331" y="-169" type="curve" smooth="yes"/>
			<point x="304" y="-169"/>
			<point x="280" y="-164"/>
			<point x="247" y="-154" type="curve"/>
			<point x="227" y="-221" type="line"/>
			<point x="256" y="-236"/>
			<point x="316" y="-258"/>
		</contour>
	</outline>
	<anchor name="bottom" x="365" y="-30"/>
	<anchor name="top" x="356" y="730"/>
</glyph>
<glyph name="tcedilla" format="2">
	<unicode hex="0163"/>
	<advance width="509"/>
	<outline>
		<contour>
			<point x="306" y="-259" type="curve" smooth="yes"/>
			<point x="374" y="-259"/>
			<point x="443" y="-226"/>
			<point x="443" y="-141" type="curve" smooth="yes"/>
			<point x="443" y="-79"/>
			<point x="391" y="-32"/>
			<point x="305" y="-40" type="curve"/>
			<point x="315" y="-13" type="line"/>
			<point x="399" y="-7"/>
			<point x="458" y="25"/>
			<point x="499" y="62" type="curve"/>
			<point x="453" y="150" type="line"/>
			<point x="428" y="137"/>
			<point x="398" y="128"/>
			<point x="373" y="128" type="curve" smooth="yes"/>
			<point x="326" y="128"/>
			<point x="319" y="160"/>
			<point x="319" y="197" type="curve" smooth="yes"/>
			<point x="319" y="416" type="line"/>
			<point x="462" y="416" type="line"/>
			<point x="462" y="529" type="line"/>
			<point x="319" y="529" type="line"/>
			<point x="319" y="686" type="line"/>
			<point x="297" y="697" type="line"/>
			<point x="171" y="680" type="line"/>
			<point x="157" y="579"/>
			<point x="132" y="532"/>
			<point x="20" y="513" type="curve"/>
			<point x="20" y="416" type="line"/>
			<point x="94" y="416" type="line"/>
			<point x="94" y="150" type="line" smooth="yes"/>
			<point x="94" y="67"/>
			<point x="136" y="13"/>
			<point x="214" y="-6" type="curve"/>
			<point x="191" y="-66" type="line"/>
			<point x="206" y="-110" type="line"/>
			<point x="218" y="-106"/>
			<point x="232" y="-104"/>
			<point x="247" y="-104" type="curve" smooth="yes"/>
			<point x="283" y="-104"/>
			<point x="298" y="-120"/>
			<point x="298" y="-136" type="curve" smooth="yes"/>
			<point x="298" y="-157"/>
			<point x="280" y="-170"/>
			<point x="248" y="-170" type="curve" smooth="yes"/>
			<point x="221" y="-170"/>
			<point x="197" y="-165"/>
			<point x="164" y="-155" type="curve"/>
			<point x="144" y="-222" type="line"/>
			<point x="173" y="-237"/>
			<point x="233" y="-259"/>
		</contour>
	</outline>
	<anchor name="bottom" x="282" y="-31"/>
</glyph>
<glyph name="Uogonek" format="2">
	<unicode hex="0172"/>
	<advance width="852"/>
	<outline>
		<contour>
			<point x="423" y="-255" type="curve" smooth="yes"/>
			<point x="497" y="-255"/>
			<point x="548" y="-227"/>
			<point x="584" y="-195" type="curve"/>
			<point x="550" y="-130" type="line"/>
			<point x="520" y="-146"/>
			<point x="496" y="-150"/>
			<point x="484" y="-150" type="curve" smooth="yes"/>
			<point x="465" y="-150"/>
			<point x="453" y="-142"/>
			<point x="453" y="-115" type="curve" smooth="yes"/>
			<point x="453" y="-84"/>
			<point x="477" y="-48"/>
			<point x="523" y="-8" type="curve"/>
			<point x="670" y="15"/>
			<point x="746" y="100"/>
			<point x="746" y="252" type="curve" smooth="yes"/>
			<point x="746" y="547" type="line" smooth="yes"/>
			<point x="746" y="582"/>
			<point x="752" y="596"/>
			<point x="779" y="598" type="curve" smooth="yes"/>
			<point x="815" y="601" type="line"/>
			<point x="815" y="700" type="line"/>
			<point x="538" y="700" type="line"/>
			<point x="538" y="601" type="line"/>
			<point x="572" y="600" type="line" smooth="yes"/>
			<point x="603" y="599"/>
			<point x="608" y="584"/>
			<point x="608" y="550" type="curve" smooth="yes"/>
			<point x="608" y="243" type="line" smooth="yes"/>
			<point x="608" y="185"/>
			<point x="579" y="132"/>
			<point x="471" y="132" type="curve" smooth="yes"/>
			<point x="375" y="132"/>
			<point x="342" y="178"/>
			<point x="342" y="246" type="curve" smooth="yes"/>
			<point x="342" y="547" type="line" smooth="yes"/>
			<point x="342" y="582"/>
			<point x="348" y="596"/>
			<point x="375" y="598" type="curve" smooth="yes"/>
			<point x="411" y="601" type="line"/>
			<point x="411" y="700" type="line"/>
			<point x="37" y="700" type="line"/>
			<point x="37" y="601" type="line"/>
			<point x="71" y="600" type="line" smooth="yes"/>
			<point x="102" y="599"/>
			<point x="107" y="584"/>
			<point x="107" y="550" type="curve" smooth="yes"/>
			<point x="107" y="252" type="line" smooth="yes"/>
			<point x="107" y="130"/>
			<point x="163" y="0"/>
			<point x="392" y="-13" type="curve" smooth="yes"/>
			<point x="398" y="-14"/>
			<point x="403" y="-14"/>
			<point x="409" y="-14" type="curve"/>
			<point x="339" y="-52"/>
			<point x="289" y="-98"/>
			<point x="289" y="-154" type="curve" smooth="yes"/>
			<point x="289" y="-196"/>
			<point x="313" y="-255"/>
		</contour>
	</outline>
	<anchor name="bottom" x="435" y="-30"/>
	<anchor name="top" x="464" y="730"/>
</glyph>
<glyph name="uogonek" format="2">
	<unicode hex="0173"/>
	<advance width="783"/>
	<outline>
		<contour>
			<point x="590" y="-255" type="curve" smooth="yes"/>
			<point x="678" y="-255"/>
			<point x="729" y="-224"/>
			<point x="765" y="-195" type="curve"/>
			<point x="731" y="-130" type="line"/>
			<point x="701" y="-145"/>
			<point x="676" y="-150"/>
			<point x="651" y="-150" type="curve" smooth="yes"/>
			<point x="629" y="-150"/>
			<point x="607" y="-142"/>
			<point x="607" y="-115" type="curve" smooth="yes"/>
			<point x="607" y="-89"/>
			<point x="627" y="-60"/>
			<point x="690" y="-2" type="curve"/>
			<point x="754" y="0" type="line"/>
			<point x="754" y="98" type="line"/>
			<point x="719" y="103" type="line" smooth="yes"/>
			<point x="692" y="107"/>
			<point x="685" y="122"/>
			<point x="685" y="168" type="curve" smooth="yes"/>
			<point x="685" y="524" type="line"/>
			<point x="665" y="536" type="line"/>
			<point x="410" y="521" type="line"/>
			<point x="395" y="416" type="line"/>
			<point x="424" y="414" type="line" smooth="yes"/>
			<point x="455" y="412"/>
			<point x="461" y="399"/>
			<point x="461" y="351" type="curve" smooth="yes"/>
			<point x="461" y="236" type="line" smooth="yes"/>
			<point x="461" y="166"/>
			<point x="434" y="133"/>
			<point x="382" y="133" type="curve" smooth="yes"/>
			<point x="337" y="133"/>
			<point x="324" y="159"/>
			<point x="324" y="212" type="curve" smooth="yes"/>
			<point x="324" y="524" type="line"/>
			<point x="304" y="536" type="line"/>
			<point x="36" y="521" type="line"/>
			<point x="28" y="416" type="line"/>
			<point x="63" y="414" type="line" smooth="yes"/>
			<point x="97" y="412"/>
			<point x="100" y="389"/>
			<point x="100" y="352" type="curve" smooth="yes"/>
			<point x="100" y="159" type="line" smooth="yes"/>
			<point x="100" y="52"/>
			<point x="163" y="-14"/>
			<point x="281" y="-14" type="curve" smooth="yes"/>
			<point x="399" y="-14"/>
			<point x="441" y="36"/>
			<point x="473" y="84" type="curve"/>
			<point x="479" y="84" type="line"/>
			<point x="493" y="-9" type="line"/>
			<point x="575" y="-6" type="line"/>
			<point x="499" y="-45"/>
			<point x="443" y="-90"/>
			<point x="443" y="-154" type="curve" smooth="yes"/>
			<point x="443" y="-196"/>
			<point x="477" y="-255"/>
		</contour>
	</outline>
	<anchor name="bottom" x="401" y="-31"/>
	<anchor name="top" x="374" y="561"/>
</glyph>
<glyph name="florin" format="2">
	<unicode hex="0192"/>
	<advance width="761"/>
	<outline>
		<contour>
			<point x="180" y="-193" type="curve" smooth="yes"/>
			<point x="327" y="-193"/>
			<point x="431" y="-89"/>
			<point x="452" y="57" type="curve" smooth="yes"/>
			<point x="491" y="327" type="line"/>
			<point x="647" y="327" type="line"/>
			<point x="661" y="442" type="line"/>
			<point x="509" y="442" type="line"/>
			<point x="516" y="510" type="line" smooth="yes"/>
			<point x="524" y="588"/>
			<point x="541" y="625"/>
			<point x="578" y="625" type="curve" smooth="yes"/>
			<point x="593" y="625"/>
			<point x="608" y="620"/>
			<point x="621" y="613" type="curve"/>
			<point x="604" y="581"/>
			<point x="597" y="564"/>
			<point x="597" y="547" type="curve" smooth="yes"/>
			<point x="597" y="508"/>
			<point x="628" y="487"/>
			<point x="681" y="487" type="curve" smooth="yes"/>
			<point x="746" y="487"/>
			<point x="774" y="518"/>
			<point x="774" y="569" type="curve" smooth="yes"/>
			<point x="774" y="654"/>
			<point x="700" y="714"/>
			<point x="576" y="714" type="curve" smooth="yes"/>
			<point x="427" y="714"/>
			<point x="331" y="603"/>
			<point x="305" y="461" type="curve"/>
			<point x="300" y="440" type="line"/>
			<point x="217" y="440" type="line"/>
			<point x="202" y="327" type="line"/>
			<point x="285" y="327" type="line"/>
			<point x="241" y="13" type="line"/>
			<point x="233" y="-59"/>
			<point x="213" y="-104"/>
			<point x="175" y="-104" type="curve" smooth="yes"/>
			<point x="161" y="-104"/>
			<point x="149" y="-100"/>
			<point x="136" y="-92" type="curve"/>
			<point x="153" y="-60"/>
			<point x="161" y="-44"/>
			<point x="161" y="-26" type="curve" smooth="yes"/>
			<point x="161" y="13"/>
			<point x="129" y="34"/>
			<point x="76" y="34" type="curve" smooth="yes"/>
			<point x="11" y="34"/>
			<point x="-17" y="3"/>
			<point x="-17" y="-48" type="curve" smooth="yes"/>
			<point x="-17" y="-133"/>
			<point x="58" y="-193"/>
		</contour>
	</outline>
</glyph>
<glyph name="ohorn" format="2">
	<unicode hex="01A1"/>
	<advance width="785"/>
	<outline>
		<contour>
			<point x="335" y="-14" type="curve" smooth="yes"/>
			<point x="537" y="-14"/>
			<point x="648" y="80"/>
			<point x="648" y="268" type="curve" smooth="yes"/>
			<point x="648" y="305"/>
			<point x="644" y="337"/>
			<point x="635" y="365" type="curve"/>
			<point x="737" y="397"/>
			<point x="785" y="474"/>
			<point x="785" y="569" type="curve" smooth="yes"/>
			<point x="785" y="649"/>
			<point x="732" y="685"/>
			<point x="674" y="685" type="curve" smooth="yes"/>
			<point x="630" y="685"/>
			<point x="579" y="659"/>
			<point x="579" y="596" type="curve" smooth="yes"/>
			<point x="579" y="551"/>
			<point x="603" y="521"/>
			<point x="653" y="521" type="curve" smooth="yes"/>
			<point x="667" y="521" type="line"/>
			<point x="665" y="481"/>
			<point x="645" y="454"/>
			<point x="599" y="438" type="curve"/>
			<point x="548" y="504"/>
			<point x="462" y="531"/>
			<point x="358" y="531" type="curve" smooth="yes"/>
			<point x="171" y="531"/>
			<point x="40" y="453"/>
			<point x="40" y="251" type="curve" smooth="yes"/>
			<point x="40" y="73"/>
			<point x="144" y="-14"/>
		</contour>
		<contour>
			<point x="348" y="102" type="curve" smooth="yes"/>
			<point x="289" y="102"/>
			<point x="275" y="154"/>
			<point x="275" y="285" type="curve" smooth="yes"/>
			<point x="275" y="393"/>
			<point x="303" y="415"/>
			<point x="343" y="415" type="curve" smooth="yes"/>
			<point x="387" y="415"/>
			<point x="413" y="390"/>
			<point x="413" y="251" type="curve" smooth="yes"/>
			<point x="413" y="146"/>
			<point x="403" y="102"/>
		</contour>
	</outline>
	<anchor name="bottom" x="343" y="-30"/>
	<anchor name="top" x="345" y="550"/>
</glyph>
<glyph name="Uhorn" format="2">
	<unicode hex="01AF"/>
	<advance width="930"/>
	<outline>
		<contour>
			<point x="400" y="-14" type="curve" smooth="yes"/>
			<point x="590" y="-14"/>
			<point x="689" y="71"/>
			<point x="689" y="252" type="curve" smooth="yes"/>
			<point x="689" y="448" type="line"/>
			<point x="855" y="456"/>
			<point x="930" y="547"/>
			<point x="930" y="666" type="curve" smooth="yes"/>
			<point x="930" y="746"/>
			<point x="877" y="782"/>
			<point x="819" y="782" type="curve" smooth="yes"/>
			<point x="775" y="782"/>
			<point x="724" y="756"/>
			<point x="724" y="693" type="curve" smooth="yes"/>
			<point x="724" y="648"/>
			<point x="748" y="618"/>
			<point x="798" y="618" type="curve" smooth="yes"/>
			<point x="812" y="618" type="line"/>
			<point x="809" y="566"/>
			<point x="775" y="534"/>
			<point x="689" y="525" type="curve"/>
			<point x="689" y="700" type="line"/>
			<point x="493" y="700" type="line"/>
			<point x="493" y="602" type="line"/>
			<point x="518" y="598" type="line" smooth="yes"/>
			<point x="548" y="593"/>
			<point x="553" y="583"/>
			<point x="553" y="546" type="curve" smooth="yes"/>
			<point x="553" y="243" type="line" smooth="yes"/>
			<point x="553" y="185"/>
			<point x="533" y="132"/>
			<point x="439" y="132" type="curve" smooth="yes"/>
			<point x="359" y="132"/>
			<point x="331" y="178"/>
			<point x="331" y="246" type="curve" smooth="yes"/>
			<point x="331" y="547" type="line" smooth="yes"/>
			<point x="331" y="579"/>
			<point x="337" y="591"/>
			<point x="361" y="596" type="curve" smooth="yes"/>
			<point x="390" y="602" type="line"/>
			<point x="390" y="700" type="line"/>
			<point x="37" y="700" type="line"/>
			<point x="37" y="602" type="line"/>
			<point x="62" y="598" type="line" smooth="yes"/>
			<point x="91" y="593"/>
			<point x="96" y="582"/>
			<point x="96" y="546" type="curve" smooth="yes"/>
			<point x="96" y="252" type="line" smooth="yes"/>
			<point x="96" y="123"/>
			<point x="148" y="-14"/>
		</contour>
	</outline>
	<anchor name="bottom" x="423" y="-30"/>
	<anchor name="top" x="438" y="730"/>
</glyph>
<glyph name="oogonek" format="2">
	<unicode hex="01EB"/>
	<advance width="726"/>
	<outline>
		<contour>
			<point x="382" y="-255" type="curve" smooth="yes"/>
			<point x="470" y="-255"/>
			<point x="521" y="-224"/>
			<point x="557" y="-195" type="curve"/>
			<point x="523" y="-130" type="line"/>
			<point x="493" y="-145"/>
			<point x="468" y="-150"/>
			<point x="443" y="-150" type="curve" smooth="yes"/>
			<point x="421" y="-150"/>
			<point x="399" y="-142"/>
			<point x="399" y="-115" type="curve" smooth="yes"/>
			<point x="399" y="-88"/>
			<point x="420" y="-58"/>
			<point x="486" y="1" type="curve"/>
			<point x="616" y="35"/>
			<point x="686" y="126"/>
			<point x="686" y="273" type="curve" smooth="yes"/>
			<point x="686" y="469"/>
			<point x="558" y="542"/>
			<point x="377" y="542" type="curve" smooth="yes"/>
			<point x="179" y="542"/>
			<point x="40" y="461"/>
			<point x="40" y="256" type="curve" smooth="yes"/>
			<point x="40" y="87"/>
			<point x="137" y="-2"/>
			<point x="314" y="-13" type="curve" smooth="yes"/>
			<point x="326" y="-14"/>
			<point x="339" y="-14"/>
			<point x="353" y="-14" type="curve"/>
			<point x="284" y="-51"/>
			<point x="235" y="-95"/>
			<point x="235" y="-154" type="curve" smooth="yes"/>
			<point x="235" y="-196"/>
			<point x="269" y="-255"/>
		</contour>
		<contour>
			<point x="368" y="105" type="curve" smooth="yes"/>
			<point x="298" y="105"/>
			<point x="275" y="156"/>
			<point x="275" y="290" type="curve" smooth="yes"/>
			<point x="275" y="401"/>
			<point x="310" y="425"/>
			<point x="361" y="425" type="curve" smooth="yes"/>
			<point x="417" y="425"/>
			<point x="451" y="397"/>
			<point x="451" y="256" type="curve" smooth="yes"/>
			<point x="451" y="152"/>
			<point x="434" y="105"/>
		</contour>
	</outline>
	<anchor name="bottom" x="362" y="-31"/>
	<anchor name="top" x="364" y="561"/>
</glyph>
<glyph name="Aringacute" format="2">
	<unicode hex="01FA"/>
	<advance width="851"/>
	<outline>
		<contour>
			<point x="7" y="0" type="line"/>
			<point x="311" y="0" type="line"/>
			<point x="311" y="99" type="line"/>
			<point x="273" y="102" type="line" smooth="yes"/>
			<point x="235" y="105"/>
			<point x="231" y="126"/>
			<point x="247" y="161" type="curve" smooth="yes"/>
			<point x="260" y="190" type="line"/>
			<point x="495" y="190" type="line"/>
			<point x="509" y="158" type="line" smooth="yes"/>
			<point x="520" y="132"/>
			<point x="516" y="107"/>
			<point x="490" y="105" type="curve" smooth="yes"/>
			<point x="448" y="101" type="line"/>
			<point x="448" y="0" type="line"/>
			<point x="844" y="0" type="line"/>
			<point x="844" y="100" type="line"/>
			<point x="810" y="102" type="line" smooth="yes"/>
			<point x="784" y="104"/>
			<point x="772" y="115"/>
			<point x="756" y="157" type="curve" smooth="yes"/>
			<point x="552" y="681" type="line"/>
			<point x="589" y="702"/>
			<point x="612" y="733"/>
			<point x="612" y="774" type="curve" smooth="yes"/>
			<point x="612" y="857"/>
			<point x="551" y="896"/>
			<point x="437" y="896" type="curve" smooth="yes"/>
			<point x="335" y="896"/>
			<point x="253" y="858"/>
			<point x="253" y="774" type="curve" smooth="yes"/>
			<point x="253" y="733"/>
			<point x="274" y="701"/>
			<point x="309" y="680" type="curve"/>
			<point x="100" y="163" type="line" smooth="yes"/>
			<point x="88" y="133"/>
			<point x="74" y="111"/>
			<point x="46" y="107" type="curve" smooth="yes"/>
			<point x="7" y="102" type="line"/>
		</contour>
		<contour>
			<point x="297" y="299" type="line"/>
			<point x="383" y="522" type="line"/>
			<point x="387" y="522" type="line"/>
			<point x="464" y="299" type="line"/>
		</contour>
		<contour>
			<point x="432" y="715" type="curve" smooth="yes"/>
			<point x="406" y="715"/>
			<point x="390" y="725"/>
			<point x="390" y="775" type="curve" smooth="yes"/>
			<point x="390" y="819"/>
			<point x="405" y="833"/>
			<point x="431" y="833" type="curve" smooth="yes"/>
			<point x="454" y="833"/>
			<point x="474" y="824"/>
			<point x="474" y="775" type="curve" smooth="yes"/>
			<point x="474" y="730"/>
			<point x="456" y="715"/>
		</contour>
		<contour>
			<point x="325" y="915" type="line"/>
			<point x="511" y="990" type="line" smooth="yes"/>
			<point x="559" y="1009"/>
			<point x="574" y="1034"/>
			<point x="574" y="1065" type="curve" smooth="yes"/>
			<point x="574" y="1110"/>
			<point x="548" y="1152"/>
			<point x="497" y="1152" type="curve" smooth="yes"/>
			<point x="480" y="1152"/>
			<point x="464" y="1148"/>
			<point x="442" y="1126" type="curve" smooth="yes"/>
			<point x="287" y="975" type="line"/>
		</contour>
	</outline>
	<anchor name="bottom" x="403" y="-30"/>
	<anchor name="top" x="429" y="730"/>
</glyph>
<glyph name="gsingle" format="2">
	<unicode hex="0261"/>
	<advance width="744"/>
	<outline>
		<contour>
			<point x="312" y="-240" type="curve" smooth="yes"/>
			<point x="487" y="-240"/>
			<point x="672" y="-188"/>
			<point x="672" y="117" type="curve"/>
			<point x="671" y="528" type="line"/>
			<point x="559" y="542" type="line"/>
			<point x="492" y="488" type="line"/>
			<point x="442" y="525"/>
			<point x="395" y="543"/>
			<point x="324" y="543" type="curve" smooth="yes"/>
			<point x="144" y="543"/>
			<point x="43" y="429"/>
			<point x="43" y="250" type="curve" smooth="yes"/>
			<point x="43" y="88"/>
			<point x="117" y="-14"/>
			<point x="283" y="-14" type="curve" smooth="yes"/>
			<point x="370" y="-14"/>
			<point x="411" y="14"/>
			<point x="441" y="75" type="curve"/>
			<point x="446" y="75" type="line"/>
			<point x="447" y="64" type="line" smooth="yes"/>
			<point x="447" y="-72"/>
			<point x="432" y="-139"/>
			<point x="327" y="-139" type="curve" smooth="yes"/>
			<point x="297" y="-139"/>
			<point x="269" y="-136"/>
			<point x="248" y="-130" type="curve"/>
			<point x="257" y="-105"/>
			<point x="259" y="-92"/>
			<point x="259" y="-79" type="curve" smooth="yes"/>
			<point x="259" y="-54"/>
			<point x="237" y="-23"/>
			<point x="177" y="-23" type="curve" smooth="yes"/>
			<point x="95" y="-23"/>
			<point x="74" y="-79"/>
			<point x="74" y="-113" type="curve" smooth="yes"/>
			<point x="74" y="-197"/>
			<point x="195" y="-240"/>
		</contour>
		<contour>
			<point x="363" y="111" type="curve" smooth="yes"/>
			<point x="306" y="111"/>
			<point x="278" y="159"/>
			<point x="278" y="261" type="curve" smooth="yes"/>
			<point x="278" y="365"/>
			<point x="305" y="415"/>
			<point x="367" y="415" type="curve" smooth="yes"/>
			<point x="396" y="415"/>
			<point x="421" y="407"/>
			<point x="446" y="394" type="curve"/>
			<point x="446" y="206" type="line" smooth="yes"/>
			<point x="446" y="146"/>
			<point x="416" y="111"/>
		</contour>
	</outline>
</glyph>
<glyph name="caron" format="2">
	<unicode hex="02C7"/>
	<advance width="500"/>
	<outline>
		<contour>
			<point x="252" y="593" type="curve" smooth="yes"/>
			<point x="288" y="593"/>
			<point x="314" y="608"/>
			<point x="346" y="646" type="curve" smooth="yes"/>
			<point x="474" y="798" type="line"/>
			<point x="417" y="852" type="line"/>
			<point x="251" y="740" type="line"/>
			<point x="84" y="854" type="line"/>
			<point x="27" y="797" type="line"/>
			<point x="144" y="658" type="line" smooth="yes"/>
			<point x="176" y="620"/>
			<point x="194" y="593"/>
		</contour>
	</outline>
	<anchor name="_top" x="252" y="550"/>
</glyph>
<glyph name="breve" format="2">
	<unicode hex="02D8"/>
	<advance width="500"/>
	<outline>
		<contour>
			<point x="249" y="593" type="curve" smooth="yes"/>
			<point x="369" y="593"/>
			<point x="446" y="671"/>
			<point x="466" y="820" type="curve"/>
			<point x="384" y="837" type="line"/>
			<point x="363" y="772"/>
			<point x="328" y="728"/>
			<point x="252" y="728" type="curve" smooth="yes"/>
			<point x="184" y="728"/>
			<point x="135" y="763"/>
			<point x="118" y="837" type="curve"/>
			<point x="35" y="820" type="line"/>
			<point x="43" y="669"/>
			<point x="128" y="593"/>
		</contour>
	</outline>
	<anchor name="_top" x="250" y="550"/>
</glyph>
<glyph name="dotaccent" format="2">
	<unicode hex="02D9"/>
	<advance width="500"/>
	<outline>
		<contour>
			<point x="250" y="596" type="curve" smooth="yes"/>
			<point x="329" y="596"/>
			<point x="377" y="633"/>
			<point x="377" y="698" type="curve" smooth="yes"/>
			<point x="377" y="764"/>
			<point x="336" y="800"/>
			<point x="250" y="800" type="curve" smooth="yes"/>
			<point x="165" y="800"/>
			<point x="122" y="763"/>
			<point x="122" y="699" type="curve" smooth="yes"/>
			<point x="122" y="632"/>
			<point x="168" y="596"/>
		</contour>
	</outline>
	<anchor name="_top" x="250" y="550"/>
</glyph>
<glyph name="ring" format="2">
	<unicode hex="02DA"/>
	<advance width="500"/>
	<outline>
		<contour>
			<point x="240" y="592" type="curve" smooth="yes"/>
			<point x="348" y="592"/>
			<point x="430" y="636"/>
			<point x="430" y="714" type="curve" smooth="yes"/>
			<point x="430" y="797"/>
			<point x="369" y="836"/>
			<point x="255" y="836" type="curve" smooth="yes"/>
			<point x="153" y="836"/>
			<point x="71" y="798"/>
			<point x="71" y="714" type="curve" smooth="yes"/>
			<point x="71" y="639"/>
			<point x="142" y="592"/>
		</contour>
		<contour>
			<point x="250" y="655" type="curve" smooth="yes"/>
			<point x="224" y="655"/>
			<point x="208" y="665"/>
			<point x="208" y="715" type="curve" smooth="yes"/>
			<point x="208" y="759"/>
			<point x="223" y="773"/>
			<point x="249" y="773" type="curve" smooth="yes"/>
			<point x="272" y="773"/>
			<point x="292" y="764"/>
			<point x="292" y="715" type="curve" smooth="yes"/>
			<point x="292" y="670"/>
			<point x="274" y="655"/>
		</contour>
	</outline>
	<anchor name="_top" x="250" y="550"/>
</glyph>
<glyph name="ogonek" format="2">
	<unicode hex="02DB"/>
	<advance width="500"/>
	<outline>
		<contour>
			<point x="242" y="-255" type="curve" smooth="yes"/>
			<point x="330" y="-255"/>
			<point x="381" y="-224"/>
			<point x="417" y="-195" type="curve"/>
			<point x="383" y="-130" type="line"/>
			<point x="353" y="-145"/>
			<point x="328" y="-150"/>
			<point x="303" y="-150" type="curve" smooth="yes"/>
			<point x="281" y="-150"/>
			<point x="259" y="-142"/>
			<point x="259" y="-115" type="curve" smooth="yes"/>
			<point x="259" y="-86"/>
			<point x="283" y="-54"/>
			<point x="361" y="15" type="curve"/>
			<point x="258" y="9" type="line"/>
			<point x="167" y="-34"/>
			<point x="95" y="-82"/>
			<point x="95" y="-154" type="curve" smooth="yes"/>
			<point x="95" y="-196"/>
			<point x="129" y="-255"/>
		</contour>
	</outline>
	<anchor name="_bottom" x="250" y="-30"/>
</glyph>
<glyph name="hungarumlaut" format="2">
	<unicode hex="02DD"/>
	<advance width="500"/>
	<outline>
		<contour>
			<point x="362" y="585" type="line"/>
			<point x="526" y="693" type="line" smooth="yes"/>
			<point x="555" y="712"/>
			<point x="566" y="740"/>
			<point x="566" y="765" type="curve" smooth="yes"/>
			<point x="566" y="800"/>
			<point x="543" y="845"/>
			<point x="496" y="845" type="curve" smooth="yes"/>
			<point x="474" y="845"/>
			<point x="456" y="838"/>
			<point x="437" y="811" type="curve" smooth="yes"/>
			<point x="314" y="633" type="line"/>
		</contour>
		<contour>
			<point x="148" y="585" type="line"/>
			<point x="306" y="700" type="line" smooth="yes"/>
			<point x="335" y="721"/>
			<point x="346" y="746"/>
			<point x="346" y="768" type="curve" smooth="yes"/>
			<point x="346" y="797"/>
			<point x="323" y="845"/>
			<point x="276" y="845" type="curve" smooth="yes"/>
			<point x="252" y="845"/>
			<point x="233" y="837"/>
			<point x="216" y="811" type="curve" smooth="yes"/>
			<point x="100" y="633" type="line"/>
		</contour>
	</outline>
	<anchor name="_top" x="250" y="550"/>
</glyph>
<glyph name="acutecomb" format="2">
	<unicode hex="0301"/>
	<outline>
		<contour>
			<point x="-42" y="585" type="line"/>
			<point x="122" y="695" type="line" smooth="yes"/>
			<point x="151" y="715"/>
			<point x="162" y="739"/>
			<point x="162" y="761" type="curve" smooth="yes"/>
			<point x="162" y="788"/>
			<point x="143" y="845"/>
			<point x="86" y="845" type="curve" smooth="yes"/>
			<point x="62" y="845"/>
			<point x="45" y="840"/>
			<point x="26" y="811" type="curve" smooth="yes"/>
			<point x="-90" y="633" type="line"/>
		</contour>
	</outline>
	<anchor name="_top" x="0" y="550"/>
</glyph>
<glyph name="circumflexcomb" format="2">
	<unicode hex="0302"/>
	<outline>
		<contour>
			<point x="-162" y="585" type="line"/>
			<point x="0" y="696" type="line"/>
			<point x="163" y="585" type="line"/>
			<point x="219" y="638" type="line"/>
			<point x="109" y="776" type="line" smooth="yes"/>
			<point x="75" y="819"/>
			<point x="58" y="843"/>
			<point x="1" y="843" type="curve" smooth="yes"/>
			<point x="-41" y="843"/>
			<point x="-62" y="833"/>
			<point x="-98" y="788" type="curve" smooth="yes"/>
			<point x="-218" y="638" type="line"/>
		</contour>
	</outline>
	<anchor name="_top" x="0" y="550"/>
</glyph>
<glyph name="dotaccentcomb" format="2">
	<unicode hex="0307"/>
	<outline>
		<contour>
			<point x="0" y="596" type="curve" smooth="yes"/>
			<point x="79" y="596"/>
			<point x="127" y="633"/>
			<point x="127" y="698" type="curve" smooth="yes"/>
			<point x="127" y="764"/>
			<point x="86" y="800"/>
			<point x="0" y="800" type="curve" smooth="yes"/>
			<point x="-85" y="800"/>
			<point x="-128" y="763"/>
			<point x="-128" y="699" type="curve" smooth="yes"/>
			<point x="-128" y="632"/>
			<point x="-82" y="596"/>
		</contour>
	</outline>
	<anchor name="_top" x="0" y="550"/>
</glyph>
<glyph name="hungarumlautcomb" format="2">
	<unicode hex="030B"/>
	<outline>
		<contour>
			<point x="114" y="585" type="line"/>
			<point x="278" y="693" type="line" smooth="yes"/>
			<point x="307" y="712"/>
			<point x="318" y="740"/>
			<point x="318" y="765" type="curve" smooth="yes"/>
			<point x="318" y="800"/>
			<point x="295" y="845"/>
			<point x="248" y="845" type="curve" smooth="yes"/>
			<point x="226" y="845"/>
			<point x="208" y="838"/>
			<point x="189" y="811" type="curve" smooth="yes"/>
			<point x="66" y="633" type="line"/>
		</contour>
		<contour>
			<point x="-100" y="585" type="line"/>
			<point x="58" y="700" type="line" smooth="yes"/>
			<point x="87" y="721"/>
			<point x="98" y="746"/>
			<point x="98" y="768" type="curve" smooth="yes"/>
			<point x="98" y="797"/>
			<point x="75" y="845"/>
			<point x="28" y="845" type="curve" smooth="yes"/>
			<point x="4" y="845"/>
			<point x="-15" y="837"/>
			<point x="-32" y="811" type="curve" smooth="yes"/>
			<point x="-148" y="633" type="line"/>
		</contour>
	</outline>
	<anchor name="_top" x="0" y="550"/>
</glyph>
<glyph name="commaturnedabovecomb" format="2">
	<unicode hex="0312"/>
	<outline>
		<contour>
			<point x="0" y="586" type="curve" smooth="yes"/>
			<point x="39" y="586"/>
			<point x="90" y="605"/>
			<point x="90" y="661" type="curve" smooth="yes"/>
			<point x="90" y="687"/>
			<point x="77" y="713"/>
			<point x="38" y="713" type="curve" smooth="yes"/>
			<point x="31" y="713" type="line"/>
			<point x="34" y="741"/>
			<point x="51" y="768"/>
			<point x="93" y="797" type="curve"/>
			<point x="47" y="850" type="line"/>
			<point x="-73" y="785"/>
			<point x="-96" y="723"/>
			<point x="-96" y="673" type="curve" smooth="yes"/>
			<point x="-96" y="610"/>
			<point x="-49" y="586"/>
		</contour>
	</outline>
	<anchor name="_top" x="0" y="550"/>
</glyph>
<glyph name="horncomb" format="2">
	<unicode hex="031B"/>
	<outline>
		<contour>
			<point x="-129" y="351" type="line"/>
			<point x="35" y="359"/>
			<point x="122" y="450"/>
			<point x="122" y="569" type="curve" smooth="yes"/>
			<point x="122" y="649"/>
			<point x="69" y="685"/>
			<point x="11" y="685" type="curve" smooth="yes"/>
			<point x="-33" y="685"/>
			<point x="-84" y="659"/>
			<point x="-84" y="596" type="curve" smooth="yes"/>
			<point x="-84" y="551"/>
			<point x="-60" y="521"/>
			<point x="-10" y="521" type="curve" smooth="yes"/>
			<point x="4" y="521" type="line"/>
			<point x="1" y="469"/>
			<point x="-45" y="437"/>
			<point x="-129" y="428" type="curve"/>
		</contour>
	</outline>
</glyph>
<glyph name="dotbelowcomb" format="2">
	<unicode hex="0323"/>
	<outline>
		<contour>
			<point x="0" y="-265" type="curve" smooth="yes"/>
			<point x="79" y="-265"/>
			<point x="127" y="-228"/>
			<point x="127" y="-163" type="curve" smooth="yes"/>
			<point x="127" y="-97"/>
			<point x="86" y="-61"/>
			<point x="0" y="-61" type="curve" smooth="yes"/>
			<point x="-85" y="-61"/>
			<point x="-128" y="-98"/>
			<point x="-128" y="-162" type="curve" smooth="yes"/>
			<point x="-128" y="-229"/>
			<point x="-82" y="-265"/>
		</contour>
	</outline>
	<anchor name="_bottom" x="0" y="-30"/>
</glyph>
<glyph name="ogonekcomb" format="2">
	<unicode hex="0328"/>
	<outline>
		<contour>
			<point x="-8" y="-255" type="curve" smooth="yes"/>
			<point x="80" y="-255"/>
			<point x="131" y="-224"/>
			<point x="167" y="-195" type="curve"/>
			<point x="133" y="-130" type="line"/>
			<point x="103" y="-145"/>
			<point x="78" y="-150"/>
			<point x="53" y="-150" type="curve" smooth="yes"/>
			<point x="31" y="-150"/>
			<point x="9" y="-142"/>
			<point x="9" y="-115" type="curve" smooth="yes"/>
			<point x="9" y="-86"/>
			<point x="33" y="-54"/>
			<point x="111" y="15" type="curve"/>
			<point x="8" y="9" type="line"/>
			<point x="-83" y="-34"/>
			<point x="-155" y="-82"/>
			<point x="-155" y="-154" type="curve" smooth="yes"/>
			<point x="-155" y="-196"/>
			<point x="-121" y="-255"/>
		</contour>
	</outline>
	<anchor name="_bottom" x="0" y="-30"/>
</glyph>
<glyph name="brevebelowcomb" format="2">
	<unicode hex="032E"/>
	<outline>
		<contour>
			<point x="0" y="-276" type="curve" smooth="yes"/>
			<point x="123" y="-276"/>
			<point x="193" y="-195"/>
			<point x="205" y="-56" type="curve"/>
			<point x="124" y="-42" type="line"/>
			<point x="106" y="-109"/>
			<point x="62" y="-137"/>
			<point x="-1" y="-137" type="curve" smooth="yes"/>
			<point x="-63" y="-137"/>
			<point x="-107" y="-110"/>
			<point x="-126" y="-40" type="curve"/>
			<point x="-207" y="-54" type="line"/>
			<point x="-195" y="-194"/>
			<point x="-129" y="-276"/>
		</contour>
	</outline>
	<anchor name="_bottom" x="0" y="-30"/>
</glyph>
<glyph name="macronbelowcomb" format="2">
	<unicode hex="0331"/>
	<outline>
		<contour>
			<point x="-189" y="-219" type="line"/>
			<point x="189" y="-219" type="line"/>
			<point x="189" y="-77" type="line"/>
			<point x="-189" y="-77" type="line"/>
		</contour>
	</outline>
	<anchor name="_bottom" x="0" y="-30"/>
</glyph>
<glyph name="tonos" format="2">
	<unicode hex="0384"/>
	<advance width="464"/>
	<outline>
		<contour>
			<point x="203" y="573" type="line"/>
			<point x="376" y="740" type="line"/>
			<point x="376" y="759" type="line"/>
			<point x="363" y="803"/>
			<point x="328" y="830"/>
			<point x="285" y="830" type="curve" smooth="yes"/>
			<point x="240" y="830"/>
			<point x="217" y="808"/>
			<point x="202" y="751" type="curve" smooth="yes"/>
			<point x="160" y="595" type="line"/>
		</contour>
	</outline>
	<anchor name="_top" x="202" y="550"/>
</glyph>
<glyph name="dieresistonos" format="2">
	<unicode hex="0385"/>
	<advance width="661"/>
	<outline>
		<contour>
			<point x="297" y="576" type="line"/>
			<point x="437" y="767" type="line"/>
			<point x="437" y="786" type="line"/>
			<point x="422" y="827"/>
			<point x="389" y="851"/>
			<point x="346" y="851" type="curve" smooth="yes"/>
			<point x="296" y="851"/>
			<point x="279" y="828"/>
			<point x="264" y="739" type="curve" smooth="yes"/>
			<point x="240" y="596" type="line"/>
		</contour>
		<contour>
			<point x="117" y="598" type="curve" smooth="yes"/>
			<point x="181" y="598"/>
			<point x="224" y="637"/>
			<point x="224" y="695" type="curve" smooth="yes"/>
			<point x="224" y="758"/>
			<point x="188" y="790"/>
			<point x="117" y="790" type="curve" smooth="yes"/>
			<point x="53" y="790"/>
			<point x="10" y="753"/>
			<point x="10" y="696" type="curve" smooth="yes"/>
			<point x="10" y="636"/>
			<point x="51" y="598"/>
		</contour>
		<contour>
			<point x="542" y="598" type="curve" smooth="yes"/>
			<point x="607" y="598"/>
			<point x="650" y="637"/>
			<point x="650" y="695" type="curve" smooth="yes"/>
			<point x="650" y="758"/>
			<point x="614" y="790"/>
			<point x="542" y="790" type="curve" smooth="yes"/>
			<point x="478" y="790"/>
			<point x="436" y="752"/>
			<point x="436" y="696" type="curve" smooth="yes"/>
			<point x="436" y="636"/>
			<point x="477" y="598"/>
		</contour>
	</outline>
	<anchor name="_top" x="294" y="550"/>
</glyph>
<glyph name="Gamma" format="2">
	<unicode hex="0393"/>
	<advance width="716"/>
	<outline>
		<contour>
			<point x="48" y="0" type="line"/>
			<point x="475" y="0" type="line"/>
			<point x="475" y="101" type="line"/>
			<point x="399" y="105" type="line" smooth="yes"/>
			<point x="359" y="107"/>
			<point x="353" y="114"/>
			<point x="353" y="158" type="curve"/>
			<point x="353" y="586" type="line"/>
			<point x="439" y="586" type="line" smooth="yes"/>
			<point x="523" y="586"/>
			<point x="544" y="566"/>
			<point x="567" y="467" type="curve"/>
			<point x="690" y="481" type="line"/>
			<point x="658" y="700" type="line"/>
			<point x="48" y="700" type="line"/>
			<point x="48" y="601" type="line"/>
			<point x="82" y="600" type="line" smooth="yes"/>
			<point x="110" y="599"/>
			<point x="118" y="588"/>
			<point x="118" y="552" type="curve" smooth="yes"/>
			<point x="118" y="154" type="line" smooth="yes"/>
			<point x="118" y="115"/>
			<point x="111" y="104"/>
			<point x="84" y="102" type="curve" smooth="yes"/>
			<point x="48" y="99" type="line"/>
		</contour>
	</outline>
</glyph>
<glyph name="Lambda" format="2">
	<unicode hex="039B"/>
	<advance width="831"/>
	<outline>
		<contour>
			<point x="7" y="0" type="line"/>
			<point x="311" y="0" type="line"/>
			<point x="311" y="99" type="line"/>
			<point x="273" y="102" type="line" smooth="yes"/>
			<point x="238" y="105"/>
			<point x="230" y="123"/>
			<point x="247" y="161" type="curve"/>
			<point x="373" y="522" type="line"/>
			<point x="377" y="522" type="line"/>
			<point x="489" y="158" type="line"/>
			<point x="501" y="129"/>
			<point x="493" y="107"/>
			<point x="470" y="105" type="curve" smooth="yes"/>
			<point x="428" y="101" type="line"/>
			<point x="428" y="0" type="line"/>
			<point x="824" y="0" type="line"/>
			<point x="824" y="100" type="line"/>
			<point x="790" y="102" type="line" smooth="yes"/>
			<point x="763" y="104"/>
			<point x="752" y="115"/>
			<point x="736" y="157" type="curve" smooth="yes"/>
			<point x="535" y="700" type="line"/>
			<point x="307" y="700" type="line"/>
			<point x="100" y="163" type="line" smooth="yes"/>
			<point x="84" y="126"/>
			<point x="69" y="110"/>
			<point x="46" y="107" type="curve" smooth="yes"/>
			<point x="7" y="102" type="line"/>
		</contour>
	</outline>
</glyph>
<glyph name="Pi" format="2">
	<unicode hex="03A0"/>
	<advance width="922"/>
	<outline>
		<contour>
			<point x="48" y="0" type="line"/>
			<point x="422" y="0" type="line"/>
			<point x="422" y="99" type="line"/>
			<point x="388" y="101" type="line" smooth="yes"/>
			<point x="360" y="103"/>
			<point x="353" y="112"/>
			<point x="353" y="148" type="curve" smooth="yes"/>
			<point x="353" y="567" type="line"/>
			<point x="570" y="567" type="line"/>
			<point x="570" y="152" type="line" smooth="yes"/>
			<point x="570" y="114"/>
			<point x="563" y="104"/>
			<point x="536" y="102" type="curve" smooth="yes"/>
			<point x="501" y="99" type="line"/>
			<point x="501" y="0" type="line"/>
			<point x="874" y="0" type="line"/>
			<point x="874" y="99" type="line"/>
			<point x="841" y="101" type="line" smooth="yes"/>
			<point x="812" y="103"/>
			<point x="805" y="112"/>
			<point x="805" y="148" type="curve" smooth="yes"/>
			<point x="805" y="549" type="line" smooth="yes"/>
			<point x="805" y="587"/>
			<point x="813" y="599"/>
			<point x="839" y="600" type="curve" smooth="yes"/>
			<point x="874" y="601" type="line"/>
			<point x="874" y="700" type="line"/>
			<point x="48" y="700" type="line"/>
			<point x="48" y="601" type="line"/>
			<point x="82" y="600" type="line" smooth="yes"/>
			<point x="110" y="599"/>
			<point x="118" y="588"/>
			<point x="118" y="550" type="curve" smooth="yes"/>
			<point x="118" y="152" type="line" smooth="yes"/>
			<point x="118" y="114"/>
			<point x="111" y="104"/>
			<point x="84" y="102" type="curve" smooth="yes"/>
			<point x="48" y="99" type="line"/>
		</contour>
	</outline>
</glyph>
<glyph name="Sigma" format="2">
	<unicode hex="03A3"/>
	<advance width="763"/>
	<outline>
		<contour>
			<point x="47" y="0" type="line"/>
			<point x="692" y="0" type="line"/>
			<point x="721" y="281" type="line"/>
			<point x="585" y="281" type="line"/>
			<point x="545" y="149"/>
			<point x="520" y="150"/>
			<point x="434" y="150" type="curve" smooth="yes"/>
			<point x="228" y="150" type="line"/>
			<point x="261" y="83" type="line"/>
			<point x="466" y="353" type="line"/>
			<point x="466" y="365" type="line"/>
			<point x="349" y="582" type="line"/>
			<point x="440" y="582" type="line" smooth="yes"/>
			<point x="519" y="582"/>
			<point x="552" y="585"/>
			<point x="573" y="466" type="curve"/>
			<point x="699" y="480" type="line"/>
			<point x="671" y="699" type="line"/>
			<point x="66" y="699" type="line"/>
			<point x="66" y="587" type="line"/>
			<point x="209" y="316" type="line"/>
			<point x="47" y="113" type="line"/>
		</contour>
	</outline>
</glyph>
<glyph name="Phi" format="2">
	<unicode hex="03A6"/>
	<advance width="990"/>
	<outline>
		<contour>
			<point x="341" y="-29" type="line"/>
			<point x="652" y="-29" type="line"/>
			<point x="652" y="51" type="line"/>
			<point x="625" y="58" type="line" smooth="yes"/>
			<point x="608" y="64"/>
			<point x="604" y="72"/>
			<point x="604" y="104" type="curve" smooth="yes"/>
			<point x="604" y="112" type="line"/>
			<point x="819" y="115"/>
			<point x="945" y="206"/>
			<point x="945" y="359" type="curve" smooth="yes"/>
			<point x="945" y="505"/>
			<point x="813" y="597"/>
			<point x="604" y="596" type="curve"/>
			<point x="604" y="599" type="line" smooth="yes"/>
			<point x="604" y="625"/>
			<point x="609" y="636"/>
			<point x="623" y="641" type="curve" smooth="yes"/>
			<point x="652" y="648" type="line"/>
			<point x="652" y="728" type="line"/>
			<point x="341" y="728" type="line"/>
			<point x="341" y="648" type="line"/>
			<point x="366" y="643" type="line" smooth="yes"/>
			<point x="384" y="639"/>
			<point x="389" y="629"/>
			<point x="389" y="595" type="curve" smooth="yes"/>
			<point x="389" y="593" type="line"/>
			<point x="174" y="590"/>
			<point x="48" y="499"/>
			<point x="48" y="345" type="curve" smooth="yes"/>
			<point x="48" y="200"/>
			<point x="179" y="109"/>
			<point x="389" y="109" type="curve"/>
			<point x="389" y="107" type="line" smooth="yes"/>
			<point x="389" y="72"/>
			<point x="385" y="62"/>
			<point x="370" y="58" type="curve" smooth="yes"/>
			<point x="341" y="51" type="line"/>
		</contour>
		<contour>
			<point x="389" y="229" type="line"/>
			<point x="315" y="229"/>
			<point x="270" y="278"/>
			<point x="270" y="358" type="curve" smooth="yes"/>
			<point x="270" y="438"/>
			<point x="312" y="482"/>
			<point x="389" y="482" type="curve"/>
		</contour>
		<contour>
			<point x="604" y="224" type="curve"/>
			<point x="604" y="476" type="line"/>
			<point x="679" y="476"/>
			<point x="723" y="428"/>
			<point x="723" y="347" type="curve" smooth="yes"/>
			<point x="723" y="267"/>
			<point x="681" y="224"/>
		</contour>
	</outline>
</glyph>
<glyph name="Psi" format="2">
	<unicode hex="03A8"/>
	<advance width="1054"/>
	<outline>
		<contour>
			<point x="366" y="0" type="line"/>
			<point x="688" y="0" type="line"/>
			<point x="688" y="101" type="line"/>
			<point x="671" y="107" type="line" smooth="yes"/>
			<point x="636" y="120"/>
			<point x="634" y="122"/>
			<point x="634" y="154" type="curve" smooth="yes"/>
			<point x="634" y="187" type="line"/>
			<point x="843" y="195"/>
			<point x="953" y="286"/>
			<point x="953" y="453" type="curve" smooth="yes"/>
			<point x="953" y="538" type="line" smooth="yes"/>
			<point x="953" y="576"/>
			<point x="959" y="587"/>
			<point x="984" y="592" type="curve" smooth="yes"/>
			<point x="1017" y="599" type="line"/>
			<point x="1017" y="699" type="line"/>
			<point x="748" y="699" type="line"/>
			<point x="748" y="483" type="line" smooth="yes"/>
			<point x="748" y="370"/>
			<point x="721" y="332"/>
			<point x="634" y="326" type="curve"/>
			<point x="634" y="542" type="line" smooth="yes"/>
			<point x="634" y="574"/>
			<point x="638" y="580"/>
			<point x="669" y="592" type="curve" smooth="yes"/>
			<point x="688" y="599" type="line"/>
			<point x="688" y="699" type="line"/>
			<point x="366" y="699" type="line"/>
			<point x="366" y="599" type="line"/>
			<point x="381" y="594" type="line" smooth="yes"/>
			<point x="416" y="582"/>
			<point x="420" y="577"/>
			<point x="420" y="545" type="curve" smooth="yes"/>
			<point x="420" y="326" type="line"/>
			<point x="334" y="332"/>
			<point x="306" y="370"/>
			<point x="306" y="483" type="curve" smooth="yes"/>
			<point x="306" y="699" type="line"/>
			<point x="37" y="699" type="line"/>
			<point x="37" y="599" type="line"/>
			<point x="70" y="592" type="line" smooth="yes"/>
			<point x="95" y="587"/>
			<point x="101" y="576"/>
			<point x="101" y="538" type="curve" smooth="yes"/>
			<point x="101" y="453" type="line" smooth="yes"/>
			<point x="101" y="282"/>
			<point x="206" y="195"/>
			<point x="420" y="187" type="curve"/>
			<point x="420" y="157" type="line" smooth="yes"/>
			<point x="420" y="124"/>
			<point x="415" y="117"/>
			<point x="385" y="107" type="curve" smooth="yes"/>
			<point x="366" y="101" type="line"/>
		</contour>
	</outline>
</glyph>
<glyph name="Omega" format="2">
	<unicode hex="03A9"/>
	<advance width="813"/>
	<outline>
		<contour>
			<point x="49" y="0" type="line"/>
			<point x="376" y="0" type="line"/>
			<point x="376" y="235" type="line"/>
			<point x="332" y="242"/>
			<point x="296" y="322"/>
			<point x="296" y="413" type="curve" smooth="yes"/>
			<point x="296" y="518"/>
			<point x="338" y="577"/>
			<point x="412" y="577" type="curve" smooth="yes"/>
			<point x="480" y="577"/>
			<point x="517" y="522"/>
			<point x="517" y="420" type="curve" smooth="yes"/>
			<point x="517" y="324"/>
			<point x="482" y="243"/>
			<point x="437" y="235" type="curve"/>
			<point x="437" y="0" type="line"/>
			<point x="765" y="0" type="line"/>
			<point x="785" y="224" type="line"/>
			<point x="709" y="224" type="line"/>
			<point x="690" y="138"/>
			<point x="650" y="144"/>
			<point x="595" y="144" type="curve" smooth="yes"/>
			<point x="559" y="144" type="line"/>
			<point x="559" y="176" type="line"/>
			<point x="677" y="196"/>
			<point x="754" y="292"/>
			<point x="754" y="419" type="curve" smooth="yes"/>
			<point x="754" y="593"/>
			<point x="617" y="713"/>
			<point x="419" y="713" type="curve" smooth="yes"/>
			<point x="208" y="713"/>
			<point x="59" y="588"/>
			<point x="59" y="410" type="curve" smooth="yes"/>
			<point x="59" y="297"/>
			<point x="134" y="209"/>
			<point x="259" y="176" type="curve"/>
			<point x="259" y="144" type="line"/>
			<point x="219" y="144" type="line" smooth="yes"/>
			<point x="164" y="144"/>
			<point x="123" y="138"/>
			<point x="103" y="224" type="curve"/>
			<point x="28" y="224" type="line"/>
		</contour>
	</outline>
	<anchor name="bottom" x="407" y="-45"/>
	<anchor name="side" x="821" y="217"/>
	<anchor name="topleft" x="39" y="700"/>
</glyph>
<glyph name="gamma" format="2">
	<unicode hex="03B3"/>
	<advance width="718"/>
	<outline>
		<contour>
			<point x="245" y="-186" type="curve"/>
			<point x="303" y="-186"/>
			<point x="394" y="-176"/>
			<point x="415" y="-168" type="curve"/>
			<point x="415" y="-102"/>
			<point x="407" y="3"/>
			<point x="401" y="19" type="curve"/>
			<point x="570" y="122"/>
			<point x="668" y="277"/>
			<point x="668" y="440" type="curve" smooth="yes"/>
			<point x="668" y="481"/>
			<point x="664" y="513"/>
			<point x="657" y="526" type="curve"/>
			<point x="635" y="537" type="line"/>
			<point x="418" y="525" type="line"/>
			<point x="430" y="485"/>
			<point x="435" y="442"/>
			<point x="435" y="371" type="curve" smooth="yes"/>
			<point x="435" y="283"/>
			<point x="421" y="224"/>
			<point x="391" y="187" type="curve"/>
			<point x="388" y="187" type="line"/>
			<point x="370" y="457"/>
			<point x="322" y="539"/>
			<point x="183" y="539" type="curve" smooth="yes"/>
			<point x="124" y="539"/>
			<point x="51" y="517"/>
			<point x="15" y="489" type="curve"/>
			<point x="33" y="408" type="line"/>
			<point x="46" y="412"/>
			<point x="58" y="414"/>
			<point x="69" y="414" type="curve" smooth="yes"/>
			<point x="143" y="414"/>
			<point x="195" y="289"/>
			<point x="227" y="34" type="curve"/>
			<point x="214" y="-49"/>
			<point x="204" y="-100"/>
		</contour>
	</outline>
</glyph>
<glyph name="delta" format="2">
	<unicode hex="03B4"/>
	<advance width="653"/>
	<outline>
		<contour>
			<point x="315" y="-14" type="curve" smooth="yes"/>
			<point x="491" y="-14"/>
			<point x="618" y="91"/>
			<point x="618" y="236" type="curve" smooth="yes"/>
			<point x="618" y="361"/>
			<point x="559" y="445"/>
			<point x="410" y="534" type="curve" smooth="yes"/>
			<point x="299" y="601"/>
			<point x="277" y="621"/>
			<point x="277" y="658" type="curve" smooth="yes"/>
			<point x="277" y="687"/>
			<point x="303" y="705"/>
			<point x="345" y="705" type="curve" smooth="yes"/>
			<point x="383" y="705"/>
			<point x="417" y="696"/>
			<point x="447" y="679" type="curve"/>
			<point x="432" y="659"/>
			<point x="422" y="630"/>
			<point x="422" y="609" type="curve" smooth="yes"/>
			<point x="422" y="569"/>
			<point x="453" y="545"/>
			<point x="506" y="545" type="curve" smooth="yes"/>
			<point x="567" y="545"/>
			<point x="604" y="580"/>
			<point x="604" y="638" type="curve" smooth="yes"/>
			<point x="604" y="729"/>
			<point x="515" y="782"/>
			<point x="362" y="782" type="curve" smooth="yes"/>
			<point x="204" y="782"/>
			<point x="108" y="717"/>
			<point x="108" y="609" type="curve" smooth="yes"/>
			<point x="108" y="545"/>
			<point x="137" y="504"/>
			<point x="215" y="455" type="curve"/>
			<point x="103" y="429"/>
			<point x="30" y="339"/>
			<point x="30" y="225" type="curve" smooth="yes"/>
			<point x="30" y="79"/>
			<point x="141" y="-14"/>
		</contour>
		<contour>
			<point x="327" y="82" type="curve" smooth="yes"/>
			<point x="282" y="82"/>
			<point x="255" y="140"/>
			<point x="255" y="235" type="curve" smooth="yes"/>
			<point x="255" y="315"/>
			<point x="285" y="382"/>
			<point x="330" y="403" type="curve"/>
			<point x="379" y="369"/>
			<point x="400" y="317"/>
			<point x="400" y="230" type="curve" smooth="yes"/>
			<point x="400" y="134"/>
			<point x="374" y="82"/>
		</contour>
	</outline>
</glyph>
<glyph name="epsilon" format="2">
	<unicode hex="03B5"/>
	<advance width="643"/>
	<outline>
		<contour>
			<point x="295" y="-14" type="curve" smooth="yes"/>
			<point x="433" y="-14"/>
			<point x="537" y="23"/>
			<point x="611" y="98" type="curve"/>
			<point x="552" y="182" type="line"/>
			<point x="495" y="144"/>
			<point x="431" y="125"/>
			<point x="365" y="125" type="curve" smooth="yes"/>
			<point x="291" y="125"/>
			<point x="250" y="151"/>
			<point x="250" y="198" type="curve" smooth="yes"/>
			<point x="250" y="224"/>
			<point x="267" y="249"/>
			<point x="295" y="261" type="curve"/>
			<point x="314" y="227"/>
			<point x="339" y="208"/>
			<point x="366" y="208" type="curve" smooth="yes"/>
			<point x="404" y="208"/>
			<point x="429" y="237"/>
			<point x="429" y="281" type="curve" smooth="yes"/>
			<point x="429" y="326"/>
			<point x="404" y="355"/>
			<point x="366" y="355" type="curve" smooth="yes"/>
			<point x="339" y="355"/>
			<point x="317" y="339"/>
			<point x="295" y="304" type="curve"/>
			<point x="266" y="315"/>
			<point x="250" y="338"/>
			<point x="250" y="367" type="curve" smooth="yes"/>
			<point x="250" y="412"/>
			<point x="295" y="443"/>
			<point x="361" y="443" type="curve" smooth="yes"/>
			<point x="406" y="443"/>
			<point x="441" y="435"/>
			<point x="463" y="419" type="curve"/>
			<point x="440" y="388"/>
			<point x="432" y="374"/>
			<point x="432" y="365" type="curve" smooth="yes"/>
			<point x="432" y="323"/>
			<point x="464" y="293"/>
			<point x="509" y="293" type="curve" smooth="yes"/>
			<point x="575" y="293"/>
			<point x="611" y="328"/>
			<point x="611" y="391" type="curve" smooth="yes"/>
			<point x="611" y="484"/>
			<point x="512" y="543"/>
			<point x="356" y="543" type="curve" smooth="yes"/>
			<point x="153" y="543"/>
			<point x="54" y="490"/>
			<point x="54" y="381" type="curve" smooth="yes"/>
			<point x="54" y="325"/>
			<point x="91" y="285"/>
			<point x="155" y="272" type="curve"/>
			<point x="155" y="268" type="line"/>
			<point x="83" y="259"/>
			<point x="45" y="217"/>
			<point x="45" y="146" type="curve" smooth="yes"/>
			<point x="45" y="44"/>
			<point x="135" y="-14"/>
		</contour>
	</outline>
	<anchor name="top" x="365" y="561"/>
</glyph>
<glyph name="zeta" format="2">
	<unicode hex="03B6"/>
	<advance width="572"/>
	<outline>
		<contour>
			<point x="456" y="-230" type="line"/>
			<point x="543" y="-136"/>
			<point x="575" y="-73"/>
			<point x="575" y="4" type="curve" smooth="yes"/>
			<point x="575" y="97"/>
			<point x="521" y="145"/>
			<point x="374" y="182" type="curve" smooth="yes"/>
			<point x="270" y="208"/>
			<point x="235" y="234"/>
			<point x="235" y="286" type="curve" smooth="yes"/>
			<point x="235" y="375"/>
			<point x="338" y="460"/>
			<point x="585" y="575" type="curve"/>
			<point x="585" y="599" type="line"/>
			<point x="464" y="770" type="line"/>
			<point x="408" y="734"/>
			<point x="348" y="688"/>
			<point x="285" y="633" type="curve"/>
			<point x="281" y="634"/>
			<point x="277" y="635"/>
			<point x="271" y="636" type="curve" smooth="yes"/>
			<point x="250" y="640"/>
			<point x="222" y="652"/>
			<point x="199" y="667" type="curve"/>
			<point x="213" y="700"/>
			<point x="221" y="723"/>
			<point x="221" y="736" type="curve" smooth="yes"/>
			<point x="221" y="778"/>
			<point x="190" y="802"/>
			<point x="136" y="802" type="curve" smooth="yes"/>
			<point x="73" y="802"/>
			<point x="32" y="759"/>
			<point x="32" y="692" type="curve" smooth="yes"/>
			<point x="32" y="622"/>
			<point x="74" y="579"/>
			<point x="160" y="559" type="curve" smooth="yes"/>
			<point x="173" y="556"/>
			<point x="187" y="554"/>
			<point x="202" y="553" type="curve"/>
			<point x="90" y="433"/>
			<point x="30" y="322"/>
			<point x="30" y="234" type="curve" smooth="yes"/>
			<point x="30" y="111"/>
			<point x="113" y="25"/>
			<point x="267" y="-13" type="curve" smooth="yes"/>
			<point x="381" y="-41"/>
			<point x="402" y="-54"/>
			<point x="402" y="-96" type="curve" smooth="yes"/>
			<point x="402" y="-117"/>
			<point x="393" y="-139"/>
			<point x="367" y="-183" type="curve"/>
		</contour>
	</outline>
</glyph>
<glyph name="kappa" format="2">
	<unicode hex="03BA"/>
	<advance width="755"/>
	<outline>
		<contour>
			<point x="568" y="-13" type="curve" smooth="yes"/>
			<point x="616" y="-13"/>
			<point x="673" y="6"/>
			<point x="713" y="36" type="curve"/>
			<point x="697" y="118" type="line"/>
			<point x="682" y="114"/>
			<point x="678" y="112"/>
			<point x="669" y="112" type="curve" smooth="yes"/>
			<point x="636" y="112"/>
			<point x="626" y="122"/>
			<point x="578" y="200" type="curve" smooth="yes"/>
			<point x="538" y="265"/>
			<point x="509" y="318"/>
			<point x="479" y="379" type="curve"/>
			<point x="503" y="410" type="line" smooth="yes"/>
			<point x="518" y="428"/>
			<point x="527" y="433"/>
			<point x="541" y="433" type="curve"/>
			<point x="530" y="387"/>
			<point x="565" y="349"/>
			<point x="619" y="349" type="curve" smooth="yes"/>
			<point x="677" y="349"/>
			<point x="715" y="388"/>
			<point x="715" y="448" type="curve" smooth="yes"/>
			<point x="715" y="509"/>
			<point x="677" y="544"/>
			<point x="611" y="544" type="curve" smooth="yes"/>
			<point x="545" y="544"/>
			<point x="501" y="515"/>
			<point x="434" y="428" type="curve" smooth="yes"/>
			<point x="301" y="257" type="line"/>
			<point x="301" y="327"/>
			<point x="305" y="388"/>
			<point x="320" y="527" type="curve"/>
			<point x="300" y="538" type="line"/>
			<point x="68" y="526" type="line"/>
			<point x="77" y="0" type="line"/>
			<point x="306" y="0" type="line"/>
			<point x="305" y="162" type="line"/>
			<point x="343" y="213" type="line"/>
			<point x="356" y="179"/>
			<point x="369" y="149"/>
			<point x="383" y="120" type="curve" smooth="yes"/>
			<point x="434" y="15"/>
			<point x="473" y="-13"/>
		</contour>
	</outline>
</glyph>
<glyph name="lambda" format="2">
	<unicode hex="03BB"/>
	<advance width="721"/>
	<outline>
		<contour>
			<point x="700" y="114" type="line"/>
			<point x="687" y="111"/>
			<point x="680" y="109"/>
			<point x="668" y="109" type="curve" smooth="yes"/>
			<point x="649" y="109"/>
			<point x="640" y="116"/>
			<point x="632" y="136" type="curve" smooth="yes"/>
			<point x="488" y="546" type="line" smooth="yes"/>
			<point x="425" y="725"/>
			<point x="355" y="782"/>
			<point x="198" y="782" type="curve" smooth="yes"/>
			<point x="93" y="782"/>
			<point x="20" y="731"/>
			<point x="20" y="657" type="curve" smooth="yes"/>
			<point x="20" y="605"/>
			<point x="52" y="574"/>
			<point x="106" y="574" type="curve" smooth="yes"/>
			<point x="158" y="574"/>
			<point x="192" y="600"/>
			<point x="192" y="639" type="curve" smooth="yes"/>
			<point x="192" y="662"/>
			<point x="182" y="680"/>
			<point x="156" y="705" type="curve"/>
			<point x="159" y="710"/>
			<point x="177" y="715"/>
			<point x="193" y="715" type="curve" smooth="yes"/>
			<point x="244" y="715"/>
			<point x="263" y="697"/>
			<point x="281" y="634" type="curve" smooth="yes"/>
			<point x="313" y="529" type="line"/>
			<point x="21" y="11" type="line"/>
			<point x="40" y="0" type="line"/>
			<point x="286" y="0" type="line"/>
			<point x="398" y="244" type="line"/>
			<point x="400" y="244" type="line"/>
			<point x="439" y="117" type="line" smooth="yes"/>
			<point x="471" y="16"/>
			<point x="503" y="-13"/>
			<point x="583" y="-13" type="curve" smooth="yes"/>
			<point x="637" y="-13"/>
			<point x="674" y="0"/>
			<point x="716" y="34" type="curve"/>
		</contour>
	</outline>
</glyph>
<glyph name="mu" format="2">
	<unicode hex="03BC"/>
	<advance width="741"/>
	<outline>
		<contour>
			<point x="102" y="-227" type="line"/>
			<point x="328" y="-214" type="line"/>
			<point x="311" y="-147"/>
			<point x="303" y="-75"/>
			<point x="293" y="6" type="curve"/>
			<point x="295" y="6" type="line"/>
			<point x="309" y="-5"/>
			<point x="323" y="-10"/>
			<point x="338" y="-10" type="curve" smooth="yes"/>
			<point x="386" y="-10"/>
			<point x="422" y="29"/>
			<point x="427" y="88" type="curve"/>
			<point x="427" y="88" type="line"/>
			<point x="444" y="37"/>
			<point x="510" y="-10"/>
			<point x="566" y="-10" type="curve" smooth="yes"/>
			<point x="620" y="-10"/>
			<point x="681" y="9"/>
			<point x="721" y="39" type="curve"/>
			<point x="705" y="121" type="line"/>
			<point x="692" y="117"/>
			<point x="682" y="115"/>
			<point x="668" y="115" type="curve" smooth="yes"/>
			<point x="645" y="115"/>
			<point x="629" y="136"/>
			<point x="629" y="166" type="curve" smooth="yes"/>
			<point x="629" y="253"/>
			<point x="635" y="426"/>
			<point x="641" y="527" type="curve"/>
			<point x="622" y="538" type="line"/>
			<point x="411" y="526" type="line"/>
			<point x="411" y="412"/>
			<point x="411" y="255"/>
			<point x="411" y="220" type="curve" smooth="yes"/>
			<point x="411" y="153"/>
			<point x="392" y="121"/>
			<point x="353" y="121" type="curve" smooth="yes"/>
			<point x="322" y="121"/>
			<point x="307" y="125"/>
			<point x="292" y="137" type="curve"/>
			<point x="292" y="250"/>
			<point x="294" y="333"/>
			<point x="303" y="527" type="curve"/>
			<point x="284" y="538" type="line"/>
			<point x="74" y="526" type="line"/>
			<point x="74" y="410"/>
			<point x="73" y="172"/>
			<point x="73" y="109" type="curve" smooth="yes"/>
			<point x="73" y="-15"/>
			<point x="76" y="-109"/>
			<point x="82" y="-216" type="curve"/>
		</contour>
	</outline>
</glyph>
<glyph name="pi" format="2">
	<unicode hex="03C0"/>
	<advance width="800"/>
	<outline>
		<contour>
			<point x="582" y="-14" type="curve" smooth="yes"/>
			<point x="645" y="-14"/>
			<point x="704" y="8"/>
			<point x="760" y="51" type="curve"/>
			<point x="715" y="145" type="line"/>
			<point x="695" y="134"/>
			<point x="680" y="130"/>
			<point x="661" y="130" type="curve" smooth="yes"/>
			<point x="625" y="130"/>
			<point x="607" y="148"/>
			<point x="607" y="186" type="curve" smooth="yes"/>
			<point x="607" y="263"/>
			<point x="609" y="318"/>
			<point x="609" y="372" type="curve"/>
			<point x="720" y="372" type="line"/>
			<point x="741" y="383" type="line"/>
			<point x="741" y="540" type="line"/>
			<point x="140" y="531" type="line" smooth="yes"/>
			<point x="107" y="531"/>
			<point x="51" y="519"/>
			<point x="20" y="506" type="curve"/>
			<point x="-2" y="372" type="line"/>
			<point x="143" y="372" type="line"/>
			<point x="40" y="11" type="line"/>
			<point x="61" y="0" type="line"/>
			<point x="278" y="0" type="line"/>
			<point x="319" y="372" type="line"/>
			<point x="428" y="372" type="line"/>
			<point x="424" y="306"/>
			<point x="410" y="197"/>
			<point x="410" y="145" type="curve" smooth="yes"/>
			<point x="410" y="36"/>
			<point x="464" y="-14"/>
		</contour>
	</outline>
</glyph>
<glyph name="rho" format="2">
	<unicode hex="03C1"/>
	<advance width="682"/>
	<outline>
		<contour>
			<point x="82" y="-227" type="line"/>
			<point x="298" y="-214" type="line"/>
			<point x="280" y="-141"/>
			<point x="273" y="-75"/>
			<point x="271" y="25" type="curve"/>
			<point x="272" y="25" type="line"/>
			<point x="312" y="0"/>
			<point x="328" y="-11"/>
			<point x="372" y="-11" type="curve" smooth="yes"/>
			<point x="532" y="-11"/>
			<point x="646" y="108"/>
			<point x="646" y="274" type="curve" smooth="yes"/>
			<point x="646" y="441"/>
			<point x="535" y="542"/>
			<point x="350" y="542" type="curve" smooth="yes"/>
			<point x="154" y="542"/>
			<point x="53" y="441"/>
			<point x="53" y="245" type="curve" smooth="yes"/>
			<point x="53" y="32" type="line" smooth="yes"/>
			<point x="53" y="-66"/>
			<point x="57" y="-181"/>
			<point x="62" y="-216" type="curve"/>
		</contour>
		<contour>
			<point x="332" y="111" type="curve" smooth="yes"/>
			<point x="312" y="111"/>
			<point x="288" y="118"/>
			<point x="271" y="130" type="curve"/>
			<point x="271" y="328" type="line" smooth="yes"/>
			<point x="271" y="386"/>
			<point x="296" y="421"/>
			<point x="338" y="421" type="curve" smooth="yes"/>
			<point x="386" y="421"/>
			<point x="407" y="376"/>
			<point x="407" y="274" type="curve" smooth="yes"/>
			<point x="407" y="154"/>
			<point x="387" y="111"/>
		</contour>
	</outline>
	<anchor name="top" x="372" y="561"/>
</glyph>
<glyph name="sigmafinal" format="2">
	<unicode hex="03C2"/>
	<advance width="607"/>
	<outline>
		<contour>
			<point x="442" y="-230" type="line"/>
			<point x="529" y="-136"/>
			<point x="563" y="-69"/>
			<point x="563" y="7" type="curve" smooth="yes"/>
			<point x="563" y="96"/>
			<point x="515" y="144"/>
			<point x="389" y="181" type="curve" smooth="yes"/>
			<point x="288" y="211"/>
			<point x="256" y="244"/>
			<point x="256" y="322" type="curve" smooth="yes"/>
			<point x="256" y="384"/>
			<point x="299" y="431"/>
			<point x="357" y="431" type="curve" smooth="yes"/>
			<point x="376" y="431"/>
			<point x="387" y="429"/>
			<point x="410" y="420" type="curve"/>
			<point x="395" y="392"/>
			<point x="388" y="373"/>
			<point x="388" y="360" type="curve" smooth="yes"/>
			<point x="388" y="319"/>
			<point x="421" y="295"/>
			<point x="479" y="295" type="curve" smooth="yes"/>
			<point x="543" y="295"/>
			<point x="580" y="333"/>
			<point x="580" y="396" type="curve" smooth="yes"/>
			<point x="580" y="481"/>
			<point x="482" y="543"/>
			<point x="348" y="543" type="curve" smooth="yes"/>
			<point x="159" y="543"/>
			<point x="40" y="434"/>
			<point x="40" y="261" type="curve" smooth="yes"/>
			<point x="40" y="105"/>
			<point x="103" y="34"/>
			<point x="295" y="-22" type="curve" smooth="yes"/>
			<point x="373" y="-45"/>
			<point x="388" y="-56"/>
			<point x="388" y="-91" type="curve" smooth="yes"/>
			<point x="388" y="-116"/>
			<point x="378" y="-143"/>
			<point x="352" y="-182" type="curve"/>
		</contour>
	</outline>
</glyph>
<glyph name="phi" format="2">
	<unicode hex="03C6"/>
	<advance width="896"/>
	<outline>
		<contour>
			<point x="364" y="-219" type="line"/>
			<point x="520" y="-219" type="line"/>
			<point x="525" y="-12" type="line"/>
			<point x="733" y="-3"/>
			<point x="856" y="102"/>
			<point x="856" y="270" type="curve" smooth="yes"/>
			<point x="856" y="426"/>
			<point x="735" y="526"/>
			<point x="538" y="534" type="curve"/>
			<point x="547" y="719" type="line"/>
			<point x="528" y="730" type="line"/>
			<point x="354" y="720" type="line"/>
			<point x="360" y="534" type="line"/>
			<point x="156" y="520"/>
			<point x="40" y="420"/>
			<point x="40" y="258" type="curve" smooth="yes"/>
			<point x="40" y="97"/>
			<point x="159" y="-3"/>
			<point x="362" y="-13" type="curve"/>
		</contour>
		<contour>
			<point x="362" y="74" type="line"/>
			<point x="302" y="90"/>
			<point x="275" y="153"/>
			<point x="275" y="279" type="curve" smooth="yes"/>
			<point x="275" y="378"/>
			<point x="308" y="444"/>
			<point x="360" y="450" type="curve"/>
		</contour>
		<contour>
			<point x="526" y="70" type="curve"/>
			<point x="536" y="446" type="line"/>
			<point x="591" y="430"/>
			<point x="619" y="364"/>
			<point x="619" y="251" type="curve" smooth="yes"/>
			<point x="619" y="149"/>
			<point x="578" y="70"/>
		</contour>
	</outline>
</glyph>
<glyph name="kaiSymbol" format="2">
	<unicode hex="03D7"/>
	<advance width="739"/>
	<outline>
		<contour>
			<point x="384" y="-229" type="curve" smooth="yes"/>
			<point x="570" y="-229"/>
			<point x="664" y="-167"/>
			<point x="664" y="-45" type="curve" smooth="yes"/>
			<point x="664" y="26"/>
			<point x="643" y="67"/>
			<point x="554" y="171" type="curve" smooth="yes"/>
			<point x="464" y="278"/>
			<point x="469" y="303"/>
			<point x="469" y="343" type="curve" smooth="yes"/>
			<point x="469" y="385"/>
			<point x="497" y="429"/>
			<point x="529" y="436" type="curve"/>
			<point x="521" y="387"/>
			<point x="555" y="352"/>
			<point x="610" y="352" type="curve" smooth="yes"/>
			<point x="664" y="352"/>
			<point x="699" y="391"/>
			<point x="699" y="453" type="curve" smooth="yes"/>
			<point x="699" y="507"/>
			<point x="656" y="544"/>
			<point x="592" y="544" type="curve" smooth="yes"/>
			<point x="517" y="544"/>
			<point x="399" y="430"/>
			<point x="286" y="249" type="curve"/>
			<point x="292" y="342"/>
			<point x="297" y="434"/>
			<point x="303" y="527" type="curve"/>
			<point x="282" y="538" type="line"/>
			<point x="68" y="525" type="line"/>
			<point x="80" y="0" type="line"/>
			<point x="293" y="0" type="line"/>
			<point x="289" y="150" type="line"/>
			<point x="307" y="182"/>
			<point x="312" y="189"/>
			<point x="345" y="219" type="curve"/>
			<point x="335" y="199"/>
			<point x="330" y="182"/>
			<point x="330" y="168" type="curve" smooth="yes"/>
			<point x="330" y="142"/>
			<point x="345" y="111"/>
			<point x="373" y="82" type="curve" smooth="yes"/>
			<point x="435" y="20"/>
			<point x="454" y="-10"/>
			<point x="454" y="-47" type="curve" smooth="yes"/>
			<point x="454" y="-102"/>
			<point x="425" y="-112"/>
			<point x="266" y="-112" type="curve" smooth="yes"/>
			<point x="257" y="-112" type="line"/>
			<point x="257" y="-210" type="line"/>
			<point x="269" y="-218"/>
			<point x="343" y="-229"/>
		</contour>
	</outline>
</glyph>
<glyph name="KoppaArchaic" format="2">
	<unicode hex="03D8"/>
	<advance width="874"/>
	<outline>
		<contour>
			<point x="366" y="-220" type="line"/>
			<point x="530" y="-208" type="line"/>
			<point x="525" y="-147"/>
			<point x="522" y="-68"/>
			<point x="521" y="-7" type="curve"/>
			<point x="712" y="25"/>
			<point x="829" y="166"/>
			<point x="829" y="366" type="curve" smooth="yes"/>
			<point x="829" y="586"/>
			<point x="692" y="714"/>
			<point x="455" y="714" type="curve" smooth="yes"/>
			<point x="200" y="714"/>
			<point x="48" y="575"/>
			<point x="48" y="340" type="curve" smooth="yes"/>
			<point x="48" y="139"/>
			<point x="162" y="12"/>
			<point x="362" y="-10" type="curve"/>
			<point x="360" y="-59"/>
			<point x="352" y="-145"/>
			<point x="347" y="-209" type="curve"/>
		</contour>
		<contour>
			<point x="527" y="142" type="curve"/>
			<point x="528" y="171"/>
			<point x="531" y="211"/>
			<point x="536" y="256" type="curve"/>
			<point x="517" y="267" type="line"/>
			<point x="354" y="256" type="line"/>
			<point x="356" y="221"/>
			<point x="359" y="182"/>
			<point x="360" y="143" type="curve"/>
			<point x="315" y="176"/>
			<point x="294" y="244"/>
			<point x="294" y="357" type="curve" smooth="yes"/>
			<point x="294" y="515"/>
			<point x="336" y="581"/>
			<point x="435" y="581" type="curve" smooth="yes"/>
			<point x="536" y="581"/>
			<point x="583" y="507"/>
			<point x="583" y="350" type="curve" smooth="yes"/>
			<point x="583" y="245"/>
			<point x="565" y="176"/>
		</contour>
	</outline>
</glyph>
<glyph name="koppaArchaic" format="2">
	<unicode hex="03D9"/>
	<advance width="726"/>
	<outline>
		<contour>
			<point x="313" y="-161" type="line"/>
			<point x="431" y="-151" type="line"/>
			<point x="429" y="-93"/>
			<point x="427" y="-46"/>
			<point x="426" y="-10" type="curve"/>
			<point x="590" y="7"/>
			<point x="686" y="112"/>
			<point x="686" y="273" type="curve" smooth="yes"/>
			<point x="686" y="445"/>
			<point x="574" y="543"/>
			<point x="378" y="543" type="curve" smooth="yes"/>
			<point x="164" y="543"/>
			<point x="40" y="438"/>
			<point x="40" y="256" type="curve" smooth="yes"/>
			<point x="40" y="97"/>
			<point x="140" y="-2"/>
			<point x="310" y="-11" type="curve"/>
			<point x="308" y="-47"/>
			<point x="305" y="-95"/>
			<point x="302" y="-150" type="curve"/>
		</contour>
		<contour>
			<point x="427" y="96" type="curve"/>
			<point x="429" y="142"/>
			<point x="433" y="188"/>
			<point x="436" y="211" type="curve"/>
			<point x="425" y="222" type="line"/>
			<point x="307" y="212" type="line"/>
			<point x="309" y="189"/>
			<point x="311" y="145"/>
			<point x="312" y="105" type="curve"/>
			<point x="280" y="141"/>
			<point x="264" y="197"/>
			<point x="264" y="273" type="curve" smooth="yes"/>
			<point x="264" y="377"/>
			<point x="298" y="432"/>
			<point x="363" y="432" type="curve" smooth="yes"/>
			<point x="430" y="432"/>
			<point x="464" y="374"/>
			<point x="464" y="258" type="curve" smooth="yes"/>
			<point x="464" y="190"/>
			<point x="450" y="131"/>
		</contour>
	</outline>
</glyph>
<glyph name="stigma" format="2">
	<unicode hex="03DB"/>
	<advance width="599"/>
	<outline>
		<contour>
			<point x="442" y="-230" type="line"/>
			<point x="529" y="-136"/>
			<point x="563" y="-69"/>
			<point x="563" y="7" type="curve" smooth="yes"/>
			<point x="563" y="97"/>
			<point x="515" y="145"/>
			<point x="389" y="181" type="curve" smooth="yes"/>
			<point x="236" y="227"/>
			<point x="213" y="242"/>
			<point x="213" y="296" type="curve" smooth="yes"/>
			<point x="209" y="368"/>
			<point x="269" y="398"/>
			<point x="417" y="398" type="curve" smooth="yes"/>
			<point x="516" y="398"/>
			<point x="572" y="436"/>
			<point x="572" y="504" type="curve" smooth="yes"/>
			<point x="572" y="541"/>
			<point x="551" y="594"/>
			<point x="522" y="628" type="curve"/>
			<point x="443" y="611" type="line"/>
			<point x="448" y="607"/>
			<point x="451" y="592"/>
			<point x="450" y="578" type="curve" smooth="yes"/>
			<point x="447" y="544"/>
			<point x="420" y="545"/>
			<point x="336" y="543" type="curve" smooth="yes"/>
			<point x="145" y="538"/>
			<point x="40" y="443"/>
			<point x="40" y="277" type="curve" smooth="yes"/>
			<point x="40" y="123"/>
			<point x="118" y="31"/>
			<point x="295" y="-22" type="curve" smooth="yes"/>
			<point x="372" y="-43"/>
			<point x="388" y="-55"/>
			<point x="388" y="-91" type="curve" smooth="yes"/>
			<point x="388" y="-116"/>
			<point x="378" y="-143"/>
			<point x="352" y="-182" type="curve"/>
		</contour>
	</outline>
</glyph>
<glyph name="digamma" format="2">
	<unicode hex="03DD"/>
	<advance width="489"/>
	<outline>
		<contour>
			<point x="125" y="-11" type="line"/>
			<point x="331" y="0" type="line"/>
			<point x="331" y="399" type="line"/>
			<point x="464" y="399" type="line"/>
			<point x="464" y="517" type="line"/>
			<point x="331" y="517" type="line"/>
			<point x="331" y="604" type="line" smooth="yes"/>
			<point x="331" y="669"/>
			<point x="342" y="690"/>
			<point x="377" y="690" type="curve" smooth="yes"/>
			<point x="393" y="690"/>
			<point x="407" y="686"/>
			<point x="418" y="679" type="curve"/>
			<point x="401" y="641"/>
			<point x="397" y="629"/>
			<point x="397" y="615" type="curve" smooth="yes"/>
			<point x="397" y="576"/>
			<point x="426" y="555"/>
			<point x="479" y="555" type="curve" smooth="yes"/>
			<point x="540" y="555"/>
			<point x="569" y="582"/>
			<point x="569" y="637" type="curve" smooth="yes"/>
			<point x="569" y="728"/>
			<point x="490" y="782"/>
			<point x="358" y="782" type="curve" smooth="yes"/>
			<point x="193" y="782"/>
			<point x="108" y="701"/>
			<point x="108" y="545" type="curve" smooth="yes"/>
			<point x="108" y="514" type="line"/>
			<point x="31" y="497" type="line"/>
			<point x="31" y="399" type="line"/>
			<point x="106" y="399" type="line"/>
			<point x="106" y="0" type="line"/>
		</contour>
	</outline>
</glyph>
<glyph name="Koppa" format="2">
	<unicode hex="03DE"/>
	<advance width="591"/>
	<outline>
		<contour>
			<point x="340" y="-104" type="curve" smooth="yes"/>
			<point x="390" y="-104"/>
			<point x="444" y="-85"/>
			<point x="479" y="-55" type="curve"/>
			<point x="463" y="25" type="line"/>
			<point x="454" y="22"/>
			<point x="441" y="19"/>
			<point x="433" y="19" type="curve" smooth="yes"/>
			<point x="404" y="19"/>
			<point x="388" y="33"/>
			<point x="388" y="57" type="curve" smooth="yes"/>
			<point x="388" y="90"/>
			<point x="406" y="125"/>
			<point x="448" y="177" type="curve" smooth="yes"/>
			<point x="556" y="312" type="line"/>
			<point x="498" y="408" type="line"/>
			<point x="283" y="292" type="line"/>
			<point x="377" y="378"/>
			<point x="410" y="427"/>
			<point x="410" y="482" type="curve" smooth="yes"/>
			<point x="410" y="554"/>
			<point x="355" y="599"/>
			<point x="265" y="599" type="curve" smooth="yes"/>
			<point x="215" y="599"/>
			<point x="161" y="580"/>
			<point x="126" y="550" type="curve"/>
			<point x="142" y="470" type="line"/>
			<point x="151" y="473"/>
			<point x="164" y="476"/>
			<point x="172" y="476" type="curve" smooth="yes"/>
			<point x="201" y="476"/>
			<point x="217" y="462"/>
			<point x="217" y="438" type="curve" smooth="yes"/>
			<point x="217" y="404"/>
			<point x="200" y="370"/>
			<point x="159" y="320" type="curve" smooth="yes"/>
			<point x="50" y="185" type="line"/>
			<point x="109" y="87" type="line"/>
			<point x="324" y="205" type="line"/>
			<point x="225" y="113"/>
			<point x="195" y="67"/>
			<point x="195" y="6" type="curve" smooth="yes"/>
			<point x="195" y="-59"/>
			<point x="254" y="-104"/>
		</contour>
	</outline>
</glyph>
<glyph name="koppa" format="2">
	<unicode hex="03DF"/>
	<advance width="600"/>
	<outline>
		<contour>
			<point x="316" y="-93" type="curve" smooth="yes"/>
			<point x="366" y="-93"/>
			<point x="430" y="-73"/>
			<point x="472" y="-45" type="curve"/>
			<point x="455" y="35" type="line"/>
			<point x="446" y="31"/>
			<point x="436" y="29"/>
			<point x="426" y="29" type="curve" smooth="yes"/>
			<point x="406" y="29"/>
			<point x="394" y="41"/>
			<point x="394" y="59" type="curve" smooth="yes"/>
			<point x="394" y="75"/>
			<point x="402" y="91"/>
			<point x="426" y="124" type="curve" smooth="yes"/>
			<point x="522" y="255" type="line"/>
			<point x="522" y="321" type="line"/>
			<point x="254" y="320" type="line"/>
			<point x="310" y="372" type="line" smooth="yes"/>
			<point x="354" y="413"/>
			<point x="378" y="458"/>
			<point x="378" y="502" type="curve" smooth="yes"/>
			<point x="378" y="571"/>
			<point x="332" y="611"/>
			<point x="254" y="611" type="curve" smooth="yes"/>
			<point x="204" y="611"/>
			<point x="139" y="591"/>
			<point x="97" y="563" type="curve"/>
			<point x="114" y="483" type="line"/>
			<point x="124" y="487"/>
			<point x="133" y="489"/>
			<point x="143" y="489" type="curve" smooth="yes"/>
			<point x="164" y="489"/>
			<point x="176" y="477"/>
			<point x="176" y="458" type="curve" smooth="yes"/>
			<point x="176" y="442"/>
			<point x="168" y="428"/>
			<point x="143" y="394" type="curve" smooth="yes"/>
			<point x="48" y="269" type="line"/>
			<point x="48" y="203" type="line"/>
			<point x="313" y="203" type="line"/>
			<point x="259" y="146" type="line" smooth="yes"/>
			<point x="213" y="97"/>
			<point x="191" y="55"/>
			<point x="191" y="16" type="curve" smooth="yes"/>
			<point x="191" y="-53"/>
			<point x="237" y="-93"/>
		</contour>
	</outline>
</glyph>
<glyph name="Lje-cy" format="2">
	<unicode hex="0409"/>
	<advance width="1090"/>
	<outline>
		<contour>
			<point x="167" y="-13" type="curve" smooth="yes"/>
			<point x="301" y="-13"/>
			<point x="369" y="163"/>
			<point x="392" y="302" type="curve" smooth="yes"/>
			<point x="408" y="397"/>
			<point x="415" y="528"/>
			<point x="415" y="567" type="curve"/>
			<point x="496" y="567" type="line"/>
			<point x="496" y="155" type="line" smooth="yes"/>
			<point x="496" y="115"/>
			<point x="489" y="109"/>
			<point x="465" y="104" type="curve" smooth="yes"/>
			<point x="437" y="98" type="line"/>
			<point x="437" y="0" type="line"/>
			<point x="776" y="0" type="line" smooth="yes"/>
			<point x="968" y="0"/>
			<point x="1080" y="83"/>
			<point x="1080" y="233" type="curve" smooth="yes"/>
			<point x="1080" y="377"/>
			<point x="961" y="447"/>
			<point x="777" y="447" type="curve" smooth="yes"/>
			<point x="758" y="447"/>
			<point x="746" y="447"/>
			<point x="731" y="445" type="curve"/>
			<point x="731" y="545" type="line" smooth="yes"/>
			<point x="731" y="581"/>
			<point x="737" y="591"/>
			<point x="761" y="596" type="curve" smooth="yes"/>
			<point x="789" y="602" type="line"/>
			<point x="789" y="700" type="line"/>
			<point x="196" y="700" type="line"/>
			<point x="196" y="622" type="line"/>
			<point x="256" y="615" type="line" smooth="yes"/>
			<point x="286" y="612"/>
			<point x="286" y="590"/>
			<point x="286" y="574" type="curve" smooth="yes"/>
			<point x="286" y="403"/>
			<point x="269" y="239"/>
			<point x="213" y="142" type="curve"/>
			<point x="201" y="166"/>
			<point x="170" y="206"/>
			<point x="137" y="206" type="curve" smooth="yes"/>
			<point x="76" y="206"/>
			<point x="35" y="148"/>
			<point x="35" y="90" type="curve" smooth="yes"/>
			<point x="35" y="28"/>
			<point x="99" y="-13"/>
		</contour>
		<contour>
			<point x="731" y="112" type="curve"/>
			<point x="731" y="328" type="line"/>
			<point x="743" y="330"/>
			<point x="750" y="330"/>
			<point x="762" y="330" type="curve" smooth="yes"/>
			<point x="820" y="330"/>
			<point x="845" y="299"/>
			<point x="845" y="218" type="curve" smooth="yes"/>
			<point x="845" y="131"/>
			<point x="814" y="106"/>
			<point x="771" y="106" type="curve" smooth="yes"/>
			<point x="754" y="106"/>
			<point x="746" y="108"/>
		</contour>
	</outline>
</glyph>
